<svg width="585" height="513" viewBox="0 0 585 513" fill="none" xmlns="http://www.w3.org/2000/svg">
<g opacity="0.15" clip-path="url(#clip0_85_650)">
<path d="M-56.745 16.4127L8.57461 260.201L8.22488 260.295L-57.095 16.507L-56.745 16.4127Z" fill="#D1D1D1"/>
<path d="M128.84 357.712L180.252 549.421L179.94 549.505L128.529 357.795L128.84 357.712Z" fill="#D1D1D1"/>
<path d="M138.732 332.411L138.651 332.713L-40.2404 284.783L-40.1632 284.477L138.732 332.411Z" fill="#D1D1D1"/>
<path d="M80.8809 597.985L80.8092 598.253L-61.5317 560.115L-61.4605 559.847L80.8809 597.985Z" fill="#D1D1D1"/>
<path d="M286.461 597.624L286.561 597.653L327.123 608.521L356.889 578.754L356.86 578.654L345.993 538.092L305.331 527.196L275.565 556.963L275.593 557.062L286.461 597.624ZM327.016 608.114L286.757 597.328L275.971 557.069L305.442 527.599L345.697 538.388L356.487 578.644L327.016 608.114Z" fill="#D1D1D1"/>
<path d="M154.242 524.637L154.342 524.666L194.904 535.534L224.67 505.767L224.642 505.667L213.774 465.105L213.675 465.077L173.112 454.209L143.346 483.976L143.375 484.075L154.242 524.637ZM194.794 535.131L154.534 524.345L143.748 484.086L173.219 454.615L213.479 465.401L224.264 505.661L194.794 535.131Z" fill="#D1D1D1"/>
<path d="M179.8 550.381L180.07 550.452L220.8 561.366L250.812 531.354L250.741 531.083L239.827 490.353L198.827 479.368L168.815 509.381L168.886 509.651L179.8 550.381ZM220.512 560.286L180.59 549.59L169.894 509.669L199.119 480.444L239.039 491.141L249.736 531.062L220.512 560.286Z" fill="#D1D1D1"/>
<path d="M147.533 428.751L147.632 428.78L188.194 439.647L217.961 409.881L217.932 409.781L207.065 369.219L166.403 358.323L136.636 388.089L136.665 388.189L147.533 428.751ZM188.084 439.244L147.825 428.459L137.039 388.2L166.509 358.729L206.769 369.515L217.554 409.774L188.084 439.244Z" fill="#D1D1D1"/>
<path d="M158.369 469.216L158.468 469.244L199.03 480.112L228.797 450.346L228.768 450.246L217.901 409.684L177.239 398.788L147.472 428.554L147.501 428.654L158.369 469.216ZM198.92 479.703L158.66 468.917L147.875 428.657L177.345 399.187L217.605 409.973L228.391 450.232L198.92 479.703Z" fill="#D1D1D1"/>
<path d="M220.512 560.971L220.612 560.999L261.174 571.867L290.94 542.101L290.911 542.001L280.044 501.438L239.382 490.543L209.616 520.309L209.644 520.408L220.512 560.971ZM261.067 571.461L220.811 560.671L210.022 520.416L239.492 490.945L279.752 501.73L290.537 541.99L261.067 571.461Z" fill="#D1D1D1"/>
<path d="M250.132 531.351L250.232 531.379L290.794 542.247L320.56 512.481L320.531 512.381L309.664 471.818L269.002 460.923L239.236 490.689L239.264 490.788L250.132 531.351ZM290.683 541.844L250.424 531.058L239.639 490.799L269.109 461.329L309.368 472.114L320.154 512.374L290.683 541.844Z" fill="#D1D1D1"/>
<path d="M-55.9918 580.974L-55.8918 581.002L-15.3292 591.87L14.4371 562.103L14.4083 562.003L3.54068 521.441L3.44114 521.413L-37.121 510.545L-66.8873 540.311L-66.859 540.411L-55.9918 580.974ZM-15.436 591.463L-55.6923 580.674L-66.4809 540.418L-37.0105 510.948L3.24848 521.733L14.0344 561.993L-15.436 591.463Z" fill="#D1D1D1"/>
<path d="M-77.9189 500.298L-77.6482 500.369L-36.918 511.283L-6.90617 481.271L-6.97739 481L-17.8911 440.27L-18.1623 440.199L-58.892 429.285L-88.9038 459.297L-88.8326 459.568L-77.9189 500.298ZM-37.2107 510.207L-77.1314 499.511L-87.8282 459.589L-58.6034 430.365L-18.6823 441.062L-7.98591 480.982L-37.2107 510.207Z" fill="#CB3322"/>
<path d="M69.5184 558.067L69.6179 558.095L110.177 568.959L139.944 539.193L139.915 539.093L129.047 498.53L128.948 498.502L88.3855 487.635L58.6193 517.401L58.6476 517.5L69.5184 558.067ZM110.07 568.552L69.8105 557.767L59.0252 517.507L88.4956 488.037L128.751 498.826L139.541 539.082L110.07 568.552Z" fill="#D1D1D1"/>
<path d="M73.3317 502.952L73.4312 502.98L113.993 513.848L143.76 484.082L143.731 483.982L132.864 443.42L132.764 443.391L92.2016 432.524L62.4354 462.29L62.4637 462.389L73.3317 502.952ZM113.883 513.445L73.6234 502.66L62.838 462.4L92.3084 432.93L132.565 443.719L143.353 483.975L113.883 513.445Z" fill="#D1D1D1"/>
<path d="M32.612 492.37L32.8823 492.441L73.6125 503.355L103.625 473.343L103.553 473.072L92.6394 432.342L92.3687 432.271L51.6389 421.357L21.6266 451.369L21.6983 451.64L32.612 492.37ZM73.324 502.275L33.4028 491.579L22.7063 451.657L51.9307 422.433L91.8519 433.13L102.548 473.051L73.324 502.275Z" fill="#D1D1D1"/>
<path d="M26.1488 396.23L26.2483 396.259L66.8105 407.126L96.5767 377.36L96.5484 377.26L85.6808 336.698L45.0187 325.802L15.2525 355.568L15.2812 355.668L26.1488 396.23ZM66.7 406.723L26.4442 395.935L15.6552 355.679L45.1256 326.208L85.385 336.994L96.1704 377.253L66.7 406.723Z" fill="#D1D1D1"/>
<path d="M36.9832 436.697L37.0832 436.726L77.6458 447.593L107.412 417.827L107.383 417.727L96.5157 377.164L96.4162 377.136L55.854 366.269L26.0878 396.035L26.1161 396.134L36.9832 436.697ZM77.539 447.187L37.2827 436.397L26.4941 396.142L55.9645 366.671L96.2235 377.457L107.009 417.716L77.539 447.187Z" fill="#D1D1D1"/>
<path d="M77.4505 447.532L77.5504 447.56L118.113 458.428L147.879 428.662L147.85 428.562L136.982 388L96.3208 377.104L66.5545 406.87L66.5828 406.969L77.4505 447.532ZM118.002 458.025L77.7458 447.236L66.9572 406.98L96.4276 377.51L136.687 388.295L147.472 428.555L118.002 458.025Z" fill="#D1D1D1"/>
<path d="M-51.8659 525.546L-51.7659 525.575L-11.2033 536.442L18.5625 506.676L18.5337 506.576L7.66656 466.013L7.56704 465.985L-32.9956 455.118L-62.7613 484.884L-62.7335 484.984L-51.8659 525.546ZM-11.3138 536.039L-51.5737 525.254L-62.3587 484.994L-32.8883 455.524L7.37073 466.309L18.1566 506.569L-11.3138 536.039Z" fill="#D1D1D1"/>
<path d="M-26.3783 551.36L-26.2783 551.389L14.2838 562.257L44.0501 532.491L44.0213 532.391L33.1537 491.828L33.0542 491.8L-7.50796 480.932L-37.2742 510.699L-37.2459 510.798L-26.3783 551.36ZM14.177 561.85L-26.0829 551.065L-36.8679 510.806L-7.39748 481.335L32.8579 492.124L43.6474 532.38L14.177 561.85Z" fill="#D1D1D1"/>
<path d="M-58.8914 429.969L-58.7915 429.998L-18.2293 440.865L11.5369 411.099L11.5082 410.999L0.640563 370.437L0.541028 370.409L-40.0229 359.539L-69.7891 389.305L-69.7608 389.405L-58.8914 429.969ZM-18.3362 440.459L-58.5924 429.67L-69.3792 389.416L-39.9088 359.945L0.348382 370.729L11.1342 410.988L-18.3362 440.459Z" fill="#D1D1D1"/>
<path d="M-48.0536 470.433L-47.9541 470.461L-7.39146 481.328L22.3743 451.562L22.3465 451.463L11.4789 410.9L11.3789 410.872L-29.1837 400.004L-58.9495 429.77L-58.9207 429.87L-48.0536 470.433ZM-7.50195 480.926L-47.7614 470.141L-58.5468 429.881L-29.0764 400.41L11.1831 411.196L21.9685 451.455L-7.50195 480.926Z" fill="#D1D1D1"/>
<path d="M80.6639 598.215L80.764 598.244L121.326 609.112L151.092 579.346L151.064 579.246L140.196 538.683L140.096 538.655L99.5343 527.788L69.7681 557.554L69.7964 557.653L80.6639 598.215ZM121.216 608.709L80.9561 597.923L70.1703 557.664L99.6407 528.193L139.901 538.979L150.686 579.239L121.216 608.709Z" fill="#D1D1D1"/>
<path d="M-50.9678 319.442L-50.8682 319.47L-10.3033 330.34L19.4625 300.574L19.4342 300.475L8.56475 259.91L8.46521 259.881L-32.0997 249.012L-61.8654 278.778L-61.8326 278.882L-50.9678 319.442ZM-10.4175 329.934L-50.6756 319.15L-61.4591 278.892L-31.9887 249.421L8.26891 260.205L19.0529 300.463L-10.4175 329.934Z" fill="#D1D1D1"/>
<path d="M-61.8074 278.985L-61.7078 279.013L-21.148 289.878L8.6182 260.112L8.58989 260.012L-2.27534 219.453L-42.9393 208.554L-72.7056 238.321L-72.6772 238.42L-61.8074 278.985ZM-21.254 289.473L-61.5115 278.689L-72.3001 238.427L-42.8297 208.956L-2.56753 219.745L8.21642 260.002L-21.254 289.473Z" fill="#D1D1D1"/>
<path d="M-43.0294 208.9L-2.36547 219.798L27.4009 190.032L27.3726 189.932L16.5029 149.368L-24.1567 138.474L-53.923 168.241L-53.8947 168.34L-43.0294 208.9ZM-2.47593 219.388L-42.7336 208.604L-53.5176 168.346L-24.0472 138.876L16.2107 149.66L26.9946 189.918L-2.47593 219.388Z" fill="#D1D1D1"/>
<path d="M-32.1916 249.369L-32.0921 249.397L8.46774 260.262L38.234 230.496L38.2057 230.396L27.3406 189.836L-13.3236 178.938L-43.0899 208.705L-43.0615 208.804L-32.1916 249.369ZM8.3618 259.857L-31.8926 249.07L-42.6844 208.811L-13.214 179.34L27.0484 190.129L37.8322 230.386L8.3618 259.857Z" fill="#D1D1D1"/>
<path d="M-54.9388 374.711L-54.8347 374.743L-14.2744 385.608L15.4914 355.842L15.4631 355.743L4.5937 315.178L4.49417 315.15L-36.0662 304.285L-65.832 334.051L-65.8036 334.15L-54.9388 374.711ZM-14.3817 385.202L-54.6429 374.415L-65.427 334.157L-35.9566 304.687L4.30151 315.47L15.0887 355.732L-14.3817 385.202Z" fill="#D1D1D1"/>
<path d="M126.764 359.658C125.704 358.598 125.703 356.878 126.764 355.817C127.825 354.756 129.544 354.757 130.605 355.817C131.666 356.878 131.666 358.598 130.605 359.659C129.544 360.719 127.825 360.719 126.764 359.658Z" fill="#C5C8CD"/>
</g>
<defs>
<clipPath id="clip0_85_650">
<rect width="929.738" height="521.686" fill="white" transform="matrix(-0.707107 -0.707107 -0.707107 0.707107 584.312 657.424)"/>
</clipPath>
</defs>
</svg>
