<svg width="764" height="477" viewBox="0 0 764 477" fill="none" xmlns="http://www.w3.org/2000/svg">
<g opacity="0.15" clip-path="url(#clip0_82_55)">
<path d="M638.086 308.166L638.18 307.815L881.969 373.135L881.874 373.485L638.086 308.166Z" fill="#D1D1D1"/>
<path d="M641.057 459.899L575.737 216.111L576.087 216.017L641.407 459.805L641.057 459.899Z" fill="#D1D1D1"/>
<path d="M455.471 118.6L404.06 -73.1096L404.371 -73.1932L455.783 118.517L455.471 118.6Z" fill="#D1D1D1"/>
<path d="M445.58 143.901L445.66 143.599L624.552 191.529L624.475 191.834L445.58 143.901Z" fill="#D1D1D1"/>
<path d="M430.07 -48.3257L429.97 -48.3545L389.408 -59.222L359.641 -29.4558L359.67 -29.3558L370.538 11.2064L370.637 11.2346L411.199 22.1022L440.966 -7.66402L440.937 -7.76355L430.07 -48.3257ZM389.518 -58.8194L429.778 -48.0335L440.563 -7.77404L411.093 21.6964L370.833 10.911L360.048 -29.349L389.518 -58.8194Z" fill="#D1D1D1"/>
<path d="M404.512 -74.0689L404.241 -74.1405L363.512 -85.0543L333.499 -55.042L333.571 -54.7717L344.485 -14.0415L385.485 -3.05659L415.497 -33.0689L415.426 -33.3392L404.512 -74.0689ZM363.8 -83.9745L403.721 -73.2781L414.417 -33.357L385.193 -4.13266L345.272 -14.829L334.576 -54.7502L363.8 -83.9745Z" fill="#D1D1D1"/>
<path d="M436.779 47.5605L436.68 47.5322L396.118 36.6646L366.351 66.4309L366.38 66.5304L377.247 107.093L417.909 117.989L447.676 88.2226L447.647 88.1231L436.779 47.5605ZM396.228 37.0673L436.487 47.8527L447.273 88.1121L417.803 117.583L377.543 106.797L366.758 66.5377L396.228 37.0673Z" fill="#D1D1D1"/>
<path d="M425.943 7.09559L425.844 7.0673L385.282 -3.80027L355.515 25.966L355.544 26.0655L366.411 66.6276L407.073 77.524L436.84 47.7577L436.811 47.6577L425.943 7.09559ZM385.392 -3.39076L425.652 7.39465L436.437 47.6546L406.967 77.125L366.707 66.3391L355.921 26.0796L385.392 -3.39076Z" fill="#D1D1D1"/>
<path d="M363.8 -84.6589L363.7 -84.6877L323.138 -95.5552L293.372 -65.789L293.401 -65.689L304.268 -25.1264L344.93 -14.231L374.696 -43.9972L374.668 -44.0967L363.8 -84.6589ZM323.245 -95.1489L363.501 -84.3594L374.29 -44.104L344.819 -14.6336L304.56 -25.4186L293.775 -65.6785L323.245 -95.1489Z" fill="#D1D1D1"/>
<path d="M334.18 -55.0387L334.08 -55.0675L293.518 -65.9351L263.752 -36.1688L263.781 -36.0689L274.648 4.49347L315.31 15.3892L345.076 -14.3771L345.048 -14.4766L334.18 -55.0387ZM293.629 -65.5324L333.888 -54.7465L344.673 -14.4875L315.203 14.9829L274.944 4.19773L264.158 -36.062L293.629 -65.5324Z" fill="#D1D1D1"/>
<path d="M742.909 -2.05675L742.805 -2.0896L702.244 -12.9544L672.478 16.8118L672.506 16.9113L683.376 57.4758L683.476 57.5041L724.036 68.3694L753.802 38.6032L753.774 38.5036L742.909 -2.05675ZM702.351 -12.5481L742.609 -1.75725L753.396 38.4972L723.926 67.9676L683.668 57.1836L672.881 16.9223L702.351 -12.5481Z" fill="#D1D1D1"/>
<path d="M691.605 -53.3605L691.506 -53.3888L650.943 -64.2559L621.177 -34.4896L621.205 -34.3901L632.073 6.17206L632.173 6.20081L672.735 17.0684L702.501 -12.6979L702.472 -12.7978L691.605 -53.3605ZM651.05 -63.8496L691.306 -53.061L702.095 -12.8047L672.624 16.6657L632.365 5.87986L621.579 -34.3792L651.05 -63.8496Z" fill="#D1D1D1"/>
<path d="M662.231 -23.9864L661.96 -24.0572L621.23 -34.9713L591.218 -4.95947L591.289 -4.68829L602.203 36.0414L602.474 36.1126L643.204 47.0263L673.216 17.0145L673.145 16.7433L662.231 -23.9864ZM621.523 -33.8953L661.443 -23.1989L672.14 16.7223L642.915 45.9471L602.994 35.2502L592.298 -4.67046L621.523 -33.8953Z" fill="#1EA0B7"/>
<path d="M514.794 -81.7548L514.694 -81.7831L474.135 -92.647L444.368 -62.8808L444.397 -62.7808L455.265 -22.2186L455.364 -22.1904L495.926 -11.3228L525.693 -41.089L525.664 -41.1886L514.794 -81.7548ZM474.241 -92.2407L514.501 -81.4553L525.287 -41.1954L495.816 -11.725L455.561 -22.5145L444.771 -62.7703L474.241 -92.2407Z" fill="#D1D1D1"/>
<path d="M510.98 -26.6403L510.881 -26.6686L470.319 -37.5361L440.552 -7.76989L440.581 -7.67038L451.448 32.8918L451.548 32.9205L492.11 43.7881L521.877 14.0218L521.848 13.9223L510.98 -26.6403ZM470.429 -37.1335L510.688 -26.3486L521.474 13.9113L492.003 43.3818L451.747 32.5927L440.959 -7.66307L470.429 -37.1335Z" fill="#D1D1D1"/>
<path d="M551.7 -16.058L551.43 -16.1292L510.699 -27.0434L480.687 2.9689L480.759 3.23963L491.672 43.9693L491.943 44.041L532.673 54.9548L562.685 24.9425L562.614 24.6717L551.7 -16.058ZM510.988 -25.9633L550.909 -15.2673L561.606 24.6544L532.381 53.8787L492.46 43.1818L481.764 3.26108L510.988 -25.9633Z" fill="#D1D1D1"/>
<path d="M558.163 80.0815L558.064 80.0532L517.501 69.1856L487.735 98.9519L487.764 99.0514L498.631 139.614L539.293 150.51L569.059 120.744L569.031 120.644L558.163 80.0815ZM517.612 69.5883L557.868 80.3769L568.657 120.633L539.186 150.104L498.927 139.318L488.142 99.0587L517.612 69.5883Z" fill="#D1D1D1"/>
<path d="M547.329 39.6148L547.229 39.586L506.666 28.7189L476.9 58.4851L476.929 58.5851L487.796 99.1473L487.896 99.1756L528.458 110.043L558.224 80.2769L558.196 80.1774L547.329 39.6148ZM506.773 29.1252L547.029 39.9143L557.818 80.1701L528.347 109.64L488.088 98.8551L477.303 58.5956L506.773 29.1252Z" fill="#D1D1D1"/>
<path d="M506.861 28.7801L506.762 28.7514L466.199 17.8837L436.433 47.65L436.462 47.75L447.329 88.3121L487.991 99.208L517.757 69.4418L517.729 69.3423L506.861 28.7801ZM466.31 18.2864L506.566 29.0755L517.355 69.3313L487.884 98.8017L447.625 88.0163L436.839 47.7568L466.31 18.2864Z" fill="#D1D1D1"/>
<path d="M636.178 -49.2342L636.078 -49.263L595.515 -60.1301L565.749 -30.3643L565.778 -30.2643L576.645 10.2982L576.745 10.3266L617.307 21.1937L647.073 -8.57206L647.045 -8.67207L636.178 -49.2342ZM595.626 -59.7274L635.886 -48.942L646.671 -8.68255L617.2 20.7878L576.941 10.0024L566.155 -30.257L595.626 -59.7274Z" fill="#D1D1D1"/>
<path d="M610.69 -75.0486L610.59 -75.0774L570.028 -85.945L540.262 -56.1787L540.291 -56.0788L551.158 -15.5166L551.258 -15.4883L591.82 -4.62069L621.586 -34.3869L621.558 -34.4865L610.69 -75.0486ZM570.135 -85.5387L610.395 -74.7533L621.18 -34.4938L591.709 -5.02337L551.454 -15.8124L540.664 -56.0682L570.135 -85.5387Z" fill="#D1D1D1"/>
<path d="M643.203 46.3429L643.103 46.3141L602.541 35.4466L572.775 65.2128L572.804 65.3128L583.671 105.875L583.771 105.903L624.335 116.773L654.101 87.0064L654.073 86.9069L643.203 46.3429ZM602.648 35.8529L642.904 46.6419L653.691 86.8959L624.221 116.366L583.964 105.583L573.178 65.3233L602.648 35.8529Z" fill="#D1D1D1"/>
<path d="M632.366 5.87889L632.266 5.85058L591.703 -5.01654L561.938 24.7493L561.965 24.8492L572.833 65.4114L572.933 65.4402L613.496 76.3073L643.261 46.5415L643.233 46.4415L632.366 5.87889ZM591.814 -4.61386L632.073 6.17107L642.859 46.431L613.388 75.9014L573.129 65.1156L562.343 24.8565L591.814 -4.61386Z" fill="#D1D1D1"/>
<path opacity="0.6" d="M820.268 74.4848L819.995 74.4113L779.265 63.4971L749.253 93.509L749.327 93.782L760.241 134.512L760.509 134.582L801.239 145.496L831.251 115.484L831.182 115.215L820.268 74.4848ZM779.554 64.5773L819.477 75.276L830.171 115.194L800.947 144.419L761.028 133.725L750.33 93.8016L779.554 64.5773Z" fill="#1814E6"/>
<path d="M794.209 49.2373L794.11 49.209L753.55 38.3437L723.784 68.11L723.812 68.2095L734.677 108.769L734.777 108.798L775.341 119.668L805.108 89.9013L805.079 89.8018L794.209 49.2373ZM753.66 38.7455L793.917 49.5295L804.706 89.7918L775.235 119.262L734.973 108.474L724.189 68.2159L753.66 38.7455Z" fill="#D1D1D1"/>
<path d="M826.728 170.62L826.628 170.592L786.064 159.722L756.298 189.488L756.326 189.587L767.196 230.152L767.295 230.18L807.86 241.05L837.626 211.284L837.593 211.18L826.728 170.62ZM786.174 160.132L826.432 170.916L837.216 211.173L807.746 240.644L767.488 229.86L756.704 189.602L786.174 160.132Z" fill="#D1D1D1"/>
<path opacity="0.3" d="M816.141 129.91L815.868 129.836L775.138 118.922L745.125 148.934L745.199 149.207L756.113 189.937L756.382 190.006L797.112 200.921L827.124 170.908L827.05 170.635L816.141 129.91ZM775.427 120.002L815.35 130.7L826.044 170.619L796.819 199.844L756.901 189.15L746.202 149.227L775.427 120.002Z" fill="#FFC300"/>
<path d="M753.749 38.4L753.65 38.3716L713.085 27.5017L683.319 57.268L683.347 57.3675L694.217 97.9324L694.317 97.9603L734.881 108.83L764.648 79.0639L764.615 78.9598L753.749 38.4ZM713.196 27.9117L753.45 38.6994L764.238 78.9535L734.767 108.424L694.513 97.6366L683.725 57.3821L713.196 27.9117Z" fill="#D1D1D1"/>
<path d="M775.431 119.322L775.331 119.294L734.767 108.424L705.001 138.191L705.029 138.29L715.899 178.855L715.998 178.883L756.558 189.748L786.324 159.982L786.296 159.882L775.431 119.322ZM734.877 108.834L775.135 119.618L785.919 159.876L756.449 189.346L716.191 178.562L705.407 138.305L734.877 108.834Z" fill="#D1D1D1"/>
<path d="M745.811 148.942L745.711 148.914L705.147 138.044L675.381 167.81L675.409 167.91L686.279 208.474L686.378 208.502L726.938 219.368L756.704 189.602L756.676 189.502L745.811 148.942ZM705.261 138.45L745.515 149.238L756.303 189.492L726.832 218.962L686.574 208.179L675.791 167.921L705.261 138.45Z" fill="#D1D1D1"/>
<path d="M635.28 156.87L635.18 156.841L594.615 145.972L564.849 175.738L564.878 175.837L575.747 216.402L575.847 216.43L616.412 227.3L646.177 197.534L646.144 197.43L635.28 156.87ZM594.729 146.378L634.987 157.162L645.771 197.42L616.301 226.89L576.043 216.106L565.259 175.849L594.729 146.378Z" fill="#D1D1D1"/>
<path d="M694.516 97.6329L694.417 97.6046L653.852 86.7352L624.086 116.501L624.114 116.601L634.984 157.165L635.083 157.194L675.648 168.063L705.414 138.297L705.381 138.193L694.516 97.6329ZM653.966 87.1415L694.22 97.9288L705.008 138.183L675.537 167.654L635.28 156.87L624.496 116.612L653.966 87.1415Z" fill="#D1D1D1"/>
<path d="M727.028 219.023L726.928 218.994L686.364 208.124L656.598 237.891L656.626 237.99L667.495 278.555L667.595 278.583L708.155 289.448L737.921 259.682L737.893 259.582L727.028 219.023ZM686.473 208.526L726.736 219.315L737.52 259.572L708.049 289.043L667.791 278.259L657.003 237.997L686.473 208.526Z" fill="#D1D1D1"/>
<path d="M716.44 178.313L716.167 178.239L675.436 167.325L645.424 197.338L645.498 197.611L656.412 238.341L656.681 238.41L697.411 249.324L727.423 219.312L727.354 219.044L716.44 178.313ZM675.729 168.402L715.652 179.101L726.346 219.019L697.122 248.244L657.203 237.55L646.505 197.627L675.729 168.402Z" fill="#168195"/>
<path d="M646.119 197.327L646.02 197.299L605.46 186.434L575.694 216.2L575.722 216.299L586.587 256.859L627.251 267.757L657.017 237.991L656.989 237.892L646.119 197.327ZM605.566 186.839L645.823 197.623L656.612 237.885L627.142 267.356L586.879 256.567L576.096 216.309L605.566 186.839Z" fill="#D1D1D1"/>
<path d="M627.341 267.412L586.677 256.514L556.911 286.28L556.939 286.379L567.809 326.944L608.469 337.837L638.235 308.071L638.207 307.972L627.341 267.412ZM586.788 256.924L627.045 267.708L637.83 307.965L608.359 337.436L568.101 326.652L557.317 286.394L586.788 256.924Z" fill="#D1D1D1"/>
<path d="M616.504 226.943L616.404 226.915L575.844 216.05L546.078 245.816L546.106 245.915L556.971 286.475L597.636 297.373L627.402 267.607L627.373 267.508L616.504 226.943ZM575.95 216.455L616.205 227.242L626.996 267.501L597.526 296.972L557.264 286.183L546.48 245.925L575.95 216.455Z" fill="#D1D1D1"/>
<path d="M683.665 57.1872L683.561 57.1543L643.001 46.289L613.235 76.0552L613.263 76.1548L624.132 116.72L624.232 116.748L664.792 127.613L694.559 97.8466L694.53 97.7471L683.665 57.1872ZM643.111 46.6917L683.373 57.4794L694.157 97.737L664.686 127.207L624.428 116.424L613.641 76.1621L643.111 46.6917Z" fill="#D1D1D1"/>
<path d="M639.251 101.601L639.147 101.568L598.586 90.7035L568.821 120.469L568.849 120.569L579.718 161.134L579.818 161.162L620.378 172.027L650.144 142.261L650.116 142.162L639.251 101.601ZM598.694 91.1094L638.955 101.897L649.739 142.155L620.269 171.625L580.01 160.841L569.223 120.58L598.694 91.1094Z" fill="#D1D1D1"/>
<path d="M842.597 -50.4573L842.498 -50.4856L801.938 -61.3509L772.172 -31.5847L772.2 -31.4851L783.065 9.0747L783.165 9.10301L823.729 19.9728L853.495 -9.79338L853.467 -9.89292L842.597 -50.4573ZM802.048 -60.9491L842.305 -50.1651L853.094 -9.90293L823.623 19.5675L783.364 8.77565L772.577 -31.4787L802.048 -60.9491Z" fill="#D1D1D1"/>
<path d="M817.109 -76.2662L817.009 -76.2945L776.445 -87.163L746.68 -57.3972L746.708 -57.2977L757.577 -16.7337L757.676 -16.7054L798.236 -5.84056L828.002 -35.6063L827.974 -35.7059L817.109 -76.2662ZM776.56 -86.7566L816.818 -75.9658L827.605 -35.7114L798.135 -6.24098L757.881 -17.0287L747.089 -57.2863L776.56 -86.7566Z" fill="#D1D1D1"/>
<path d="M823.819 19.6277L823.719 19.5994L783.154 8.73002L753.389 38.4958L753.417 38.5953L764.286 79.1602L764.386 79.1885L804.946 90.0534L834.712 60.2876L834.684 60.188L823.819 19.6277ZM783.261 9.13502L823.519 19.9272L834.307 60.1812L804.837 89.6516L764.582 78.8644L753.79 38.6054L783.261 9.13502Z" fill="#D1D1D1"/>
<path d="M812.981 -20.8413L812.882 -20.8696L772.322 -31.7349L742.556 -1.96863L742.584 -1.8691L753.449 38.6912L753.549 38.7191L794.113 49.5889L823.88 19.8227L823.851 19.7231L812.981 -20.8413ZM772.428 -31.3295L812.682 -20.5418L823.474 19.7168L794.004 49.1872L753.745 38.3954L742.958 -1.85907L772.428 -31.3295Z" fill="#D1D1D1"/>
<path d="M778.589 270.057L778.32 269.988L737.59 259.073L707.578 289.085L707.652 289.358L718.561 330.084L718.834 330.158L759.564 341.072L789.576 311.06L789.503 310.787L778.589 270.057ZM737.883 260.15L777.801 270.844L788.5 310.767L759.275 339.992L719.352 329.293L708.658 289.375L737.883 260.15Z" fill="#D1D1D1"/>
<path d="M807.952 240.693L807.853 240.665L767.293 229.799L737.527 259.566L737.555 259.665L748.42 300.225L748.524 300.258L789.084 311.123L818.85 281.357L818.822 281.257L807.952 240.693ZM767.399 230.205L807.657 240.988L818.445 281.251L788.975 310.721L748.712 299.933L737.928 259.675L767.399 230.205Z" fill="#D1D1D1"/>
<path d="M457.548 116.653C458.608 117.714 458.609 119.434 457.548 120.494C456.487 121.555 454.768 121.555 453.707 120.494C452.646 119.434 452.646 117.714 453.707 116.653C454.768 115.592 456.487 115.593 457.548 116.653Z" fill="#C5C8CD"/>
<path d="M669.566 276.485C670.625 277.544 670.623 279.262 669.563 280.323C668.502 281.383 666.784 281.385 665.725 280.326C664.661 279.262 664.663 277.544 665.723 276.483C666.784 275.423 668.502 275.421 669.566 276.485Z" fill="#C5C8CD"/>
<path d="M674.676 14.8696C675.737 15.9306 675.737 17.6499 674.676 18.7109C673.615 19.7715 671.896 19.7715 670.835 18.7105C669.774 17.65 669.774 15.9306 670.835 14.87C671.896 13.809 673.615 13.8091 674.676 14.8696Z" fill="#C5C8CD"/>
<path d="M626.198 114.644C627.262 115.708 627.26 117.426 626.2 118.487C625.139 119.548 623.421 119.549 622.357 118.486C621.298 117.426 621.3 115.708 622.36 114.647C623.421 113.587 625.139 113.585 626.198 114.644Z" fill="#C5C8CD"/>
</g>
<defs>
<clipPath id="clip0_82_55">
<rect width="929.738" height="521.686" fill="white" transform="matrix(0.707107 0.707107 0.707107 -0.707107 0 -181.112)"/>
</clipPath>
</defs>
</svg>
