<?xml version="1.0" encoding="UTF-8"?>
<svg id="Layer_1" data-name="Layer 1" xmlns="http://www.w3.org/2000/svg" viewBox="0 0 554.03 481.3">
  <defs>
    <style>
      .cls-1, .cls-2, .cls-3, .cls-4, .cls-5 {
        fill: #fff;
      }

      .cls-6, .cls-3, .cls-7, .cls-4, .cls-8, .cls-5, .cls-9, .cls-10, .cls-11, .cls-12 {
        isolation: isolate;
      }

      .cls-6, .cls-8, .cls-13 {
        opacity: .33;
      }

      .cls-6, .cls-14 {
        fill: #845b5b;
      }

      .cls-2, .cls-15 {
        stroke: #e6f3ff;
        stroke-miterlimit: 10;
      }

      .cls-2, .cls-15, .cls-16 {
        stroke-width: 2px;
      }

      .cls-3 {
        opacity: .12;
      }

      .cls-7, .cls-17 {
        fill: #626c84;
      }

      .cls-7, .cls-11 {
        opacity: .25;
      }

      .cls-4 {
        opacity: .52;
      }

      .cls-18 {
        fill: #00ff84;
      }

      .cls-19, .cls-20, .cls-8, .cls-21, .cls-15, .cls-9, .cls-22, .cls-16, .cls-23, .cls-10, .cls-11 {
        fill: #4e4e4e;
      }

      .cls-20, .cls-8, .cls-21, .cls-22, .cls-16, .cls-23, .cls-10 {
        stroke-linecap: round;
        stroke-linejoin: round;
      }

      .cls-20, .cls-8, .cls-16, .cls-23, .cls-10 {
        stroke: #46505c;
      }

      .cls-8, .cls-23, .cls-10 {
        stroke-width: 4px;
      }

      .cls-24 {
        fill: #46505c;
      }

      .cls-5, .cls-25 {
        opacity: .1;
      }

      .cls-21 {
        stroke: #626c84;
      }

      .cls-9, .cls-12 {
        opacity: .17;
      }

      .cls-26 {
        fill: #e6f3ff;
      }

      .cls-27 {
        opacity: .72;
      }

      .cls-22 {
        stroke: #000;
      }

      .cls-28 {
        opacity: .06;
      }

      .cls-10 {
        opacity: .18;
      }

      .cls-12 {
        fill: #263238;
      }
    </style>
  </defs>
  <g id="Layer_1-2" data-name="Layer 1">
    <g>
      <path class="cls-18" d="m430.79,135.89l103-27.6c12.08-3.24,19.24-15.65,16.01-27.73h0c-3.24-12.08-15.65-19.24-27.73-16.01l-162.29,43.48c-12.08,3.24-24.49-3.93-27.73-16.01h0c-3.23-12.08,3.93-24.49,16.01-27.73l73.87-19.8c12.08-3.24,19.24-15.65,16.01-27.72t0,0h0c-3.24-12.08-15.65-19.24-27.73-16.01L34.93,101.33c-12.08,3.24-19.24,15.65-16.01,27.72h0c3.23,12.08,15.65,19.25,27.72,16.02,0,0,0,0,0,0l58.43-15.66c12.08-3.24,24.49,3.93,27.73,16.01h0c3.24,12.08-3.93,24.49-16.01,27.73h0l-100.02,26.8c-12.08,3.24-19.24,15.65-16.01,27.73h0c3.24,12.08,15.65,19.24,27.73,16.01h0l62.42-16.73c12.08-3.23,24.49,3.93,27.73,16.01h0c3.24,12.08-3.93,24.49-16.01,27.73h0l-4.43,1.19c-12.08,3.24-19.24,15.65-16.01,27.73,0,0,0,0,0,.01h0c3.24,12.08,15.65,19.24,27.73,16.01h0l4.2-1.12c12.08-3.24,24.49,3.93,27.73,16.01h0c3.24,12.08-3.93,24.49-16.01,27.73t0,0l-62.19,16.66c-12.08,3.24-19.24,15.65-16.01,27.73h0c3.24,12.08,15.65,19.24,27.73,16.01l113.64-30.45c12.08-3.24,24.49,3.93,27.73,16.01h0c3.24,12.08-3.93,24.49-16.01,27.73,0,0,0,0,0,0l-18.21,4.88c-12.08,3.24-19.24,15.65-16.01,27.73h0c3.24,12.08,15.65,19.24,27.72,16.01h0l289.35-77.53c12.08-3.24,19.24-15.65,16.01-27.73h0c-3.24-12.08-15.65-19.24-27.73-16.01h0l-8.51,2.28c-12.08,3.24-24.49-3.93-27.73-16h0c-3.23-12.08,3.93-24.49,16.01-27.73h0l55.97-15c12.08-3.24,19.24-15.65,16.01-27.73h0c-3.24-12.08-15.65-19.24-27.72-16.01h0l-79.36,21.26c-12.08,3.24-24.49-3.93-27.73-16.01h0c-3.23-12.08,3.93-24.49,16.01-27.72l56.2-15.06c12.08-3.23,19.24-15.65,16.01-27.72t0,0h0c-3.23-12.08-15.64-19.25-27.72-16.02,0,0,0,0,0,0l-6.78,1.82c-12.08,3.24-24.49-3.93-27.73-16.01h0c-3.24-12.08,3.93-24.49,16-27.73,0,0,0,0,0,0Z"/>
      <path class="cls-18" d="m519.57,158.92l5.96-1.6c12.08-3.24,24.49,3.93,27.73,16.01h0c3.24,12.08-3.93,24.5-16.01,27.74l-5.96,1.6c-12.08,3.24-24.49-3.93-27.73-16.01h0c-3.24-12.08,3.93-24.5,16.01-27.74Z"/>
    </g>
    <g class="cls-13">
      <path class="cls-22" d="m173.08,197.56h232c7.73,0,14,6.27,14,14v17.48c0,7.73-6.27,14-14,14h-232c-7.73,0-14-6.27-14-14v-17.48c0-7.73,6.27-14,14-14Z"/>
      <path class="cls-19" d="m173.08,197.56h232c7.73,0,14,6.27,14,14v17.48c0,7.73-6.27,14-14,14h-232c-7.73,0-14-6.27-14-14v-17.48c0-7.73,6.27-14,14-14Z"/>
      <path class="cls-9" d="m173.08,197.56h232c7.73,0,14,6.27,14,14v20.44c0,4.72-3.83,8.55-8.55,8.55h-242.9c-4.72,0-8.55-3.83-8.55-8.55h0v-20.44c0-7.73,6.27-14,14-14Z"/>
      <path class="cls-23" d="m173.08,197.56h232c7.73,0,14,6.27,14,14v17.48c0,7.73-6.27,14-14,14h-232c-7.73,0-14-6.27-14-14v-17.48c0-7.73,6.27-14,14-14Z"/>
      <rect class="cls-19" x="177.08" y="202.68" width="224" height="34.94"/>
      <rect class="cls-20" x="177.08" y="202.68" width="224" height="34.94"/>
      <path class="cls-19" d="m173.08,243.03h232c7.73,0,14,6.27,14,14v144c0,7.73-6.27,14-14,14h-232c-7.73,0-14-6.27-14-14v-144c0-7.73,6.27-14,14-14Z"/>
      <path class="cls-15" d="m415.08,257.03v144c0,5.52-4.48,10-10,10h-232c-5.52,0-10-4.48-10-10v-144c0-5.52,4.48-10,10-10h232c5.52,0,10,4.48,10,10Z"/>
      <path class="cls-19" d="m273.03,407.21h32.1c2.21,0,4,1.79,4,4v3.82h-40.1v-3.82c0-2.21,1.79-4,4-4Z"/>
      <path class="cls-23" d="m173.08,243.03h232c7.73,0,14,6.27,14,14v144c0,7.73-6.27,14-14,14h-232c-7.73,0-14-6.27-14-14v-144c0-7.73,6.27-14,14-14Z"/>
      <path class="cls-19" d="m177.08,256.45h224c1.66,0,3,1.34,3,3v86c0,1.66-1.34,3-3,3h-224c-1.66,0-3-1.34-3-3v-86c0-1.66,1.34-3,3-3Z"/>
      <path class="cls-21" d="m206.17,325.95h12c.55,0,1,.45,1,1v12c0,.55-.45,1-1,1h-12c-.55,0-1-.45-1-1v-12c0-.55.45-1,1-1Z"/>
      <path class="cls-21" d="m184.53,325.95h12c.55,0,1,.45,1,1v12c0,.55-.45,1-1,1h-12c-.55,0-1-.45-1-1v-12c0-.55.45-1,1-1Z"/>
      <path class="cls-21" d="m227.81,325.95h98.55c.55,0,1,.45,1,1v12c0,.55-.45,1-1,1h-98.55c-.55,0-1-.45-1-1v-12c0-.55.45-1,1-1Z"/>
      <path class="cls-21" d="m336,325.95h12c.55,0,1,.45,1,1v12c0,.55-.45,1-1,1h-12c-.55,0-1-.45-1-1v-12c0-.55.45-1,1-1Z"/>
      <path class="cls-21" d="m371.64,333.83h8c.55,0,1,.45,1,1v4.12c0,.55-.45,1-1,1h-8c-.55,0-1-.45-1-1v-4.12c0-.55.45-1,1-1Z"/>
      <path class="cls-21" d="m371.64,325.95h8c.55,0,1,.45,1,1v4.12c0,.55-.45,1-1,1h-8c-.55,0-1-.45-1-1v-4.12c0-.55.45-1,1-1Z"/>
      <path class="cls-21" d="m385.64,333.83h8c.55,0,1,.45,1,1v4.12c0,.55-.45,1-1,1h-8c-.55,0-1-.45-1-1v-4.12c0-.55.45-1,1-1Z"/>
      <path class="cls-21" d="m357.64,333.83h8c.55,0,1,.45,1,1v4.12c0,.55-.45,1-1,1h-8c-.55,0-1-.45-1-1v-4.12c0-.55.45-1,1-1Z"/>
      <path class="cls-21" d="m184.53,306.03h31.64c.55,0,1,.45,1,1v12c0,.55-.45,1-1,1h-31.64c-.55,0-1-.45-1-1v-12c0-.55.45-1,1-1Z"/>
      <path class="cls-21" d="m225.99,306.03h12c.55,0,1,.45,1,1v12c0,.55-.45,1-1,1h-12c-.55,0-1-.45-1-1v-12c0-.55.45-1,1-1Z"/>
      <path class="cls-21" d="m247.63,306.03h12c.55,0,1,.45,1,1v12c0,.55-.45,1-1,1h-12c-.55,0-1-.45-1-1v-12c0-.55.45-1,1-1Z"/>
      <path class="cls-21" d="m269.26,306.03h12c.55,0,1,.45,1,1v12c0,.55-.45,1-1,1h-12c-.55,0-1-.45-1-1v-12c0-.55.45-1,1-1Z"/>
      <path class="cls-21" d="m290.9,306.03h12c.55,0,1,.45,1,1v12c0,.55-.45,1-1,1h-12c-.55,0-1-.45-1-1v-12c0-.55.45-1,1-1Z"/>
      <path class="cls-21" d="m312.54,306.03h12c.55,0,1,.45,1,1v12c0,.55-.45,1-1,1h-12c-.55,0-1-.45-1-1v-12c0-.55.45-1,1-1Z"/>
      <path class="cls-21" d="m334.18,306.03h12c.55,0,1,.45,1,1v12c0,.55-.45,1-1,1h-12c-.55,0-1-.45-1-1v-12c0-.55.45-1,1-1Z"/>
      <path class="cls-21" d="m357.64,306.03h36c.55,0,1,.45,1,1v12c0,.55-.45,1-1,1h-36c-.55,0-1-.45-1-1v-12c0-.55.45-1,1-1Z"/>
      <path class="cls-21" d="m218.17,285.55h12c.55,0,1,.45,1,1v12c0,.55-.45,1-1,1h-12c-.55,0-1-.45-1-1v-12c0-.55.45-1,1-1Z"/>
      <path class="cls-21" d="m184.53,285.55h24c.55,0,1,.45,1,1v12c0,.55-.45,1-1,1h-24c-.55,0-1-.45-1-1v-12c0-.55.45-1,1-1Z"/>
      <path class="cls-21" d="m239.81,285.55h12c.55,0,1,.45,1,1v12c0,.55-.45,1-1,1h-12c-.55,0-1-.45-1-1v-12c0-.55.45-1,1-1Z"/>
      <path class="cls-21" d="m261.45,285.55h12c.55,0,1,.45,1,1v12c0,.55-.45,1-1,1h-12c-.55,0-1-.45-1-1v-12c0-.55.45-1,1-1Z"/>
      <path class="cls-21" d="m283.08,285.55h12c.55,0,1,.45,1,1v12c0,.55-.45,1-1,1h-12c-.55,0-1-.45-1-1v-12c0-.55.45-1,1-1Z"/>
      <path class="cls-21" d="m304.72,285.55h12c.55,0,1,.45,1,1v12c0,.55-.45,1-1,1h-12c-.55,0-1-.45-1-1v-12c0-.55.45-1,1-1Z"/>
      <path class="cls-21" d="m326.36,285.55h12c.55,0,1,.45,1,1v12c0,.55-.45,1-1,1h-12c-.55,0-1-.45-1-1v-12c0-.55.45-1,1-1Z"/>
      <path class="cls-21" d="m348,285.55h12c.55,0,1,.45,1,1v12c0,.55-.45,1-1,1h-12c-.55,0-1-.45-1-1v-12c0-.55.45-1,1-1Z"/>
      <path class="cls-21" d="m369.64,285.55h24c.55,0,1,.45,1,1v12c0,.55-.45,1-1,1h-24c-.55,0-1-.45-1-1v-12c0-.55.45-1,1-1Z"/>
      <path class="cls-21" d="m206.43,265.95h12c.55,0,1,.45,1,1v12c0,.55-.45,1-1,1h-12c-.55,0-1-.45-1-1v-12c0-.55.45-1,1-1Z"/>
      <path class="cls-21" d="m184.53,265.95h12c.55,0,1,.45,1,1v12c0,.55-.45,1-1,1h-12c-.55,0-1-.45-1-1v-12c0-.55.45-1,1-1Z"/>
      <path class="cls-21" d="m228.33,265.95h12c.55,0,1,.45,1,1v12c0,.55-.45,1-1,1h-12c-.55,0-1-.45-1-1v-12c0-.55.45-1,1-1Z"/>
      <path class="cls-21" d="m250.23,265.95h12c.55,0,1,.45,1,1v12c0,.55-.45,1-1,1h-12c-.55,0-1-.45-1-1v-12c0-.55.45-1,1-1Z"/>
      <path class="cls-21" d="m272.13,265.95h12c.55,0,1,.45,1,1v12c0,.55-.45,1-1,1h-12c-.55,0-1-.45-1-1v-12c0-.55.45-1,1-1Z"/>
      <path class="cls-21" d="m294.03,265.95h12c.55,0,1,.45,1,1v12c0,.55-.45,1-1,1h-12c-.55,0-1-.45-1-1v-12c0-.55.45-1,1-1Z"/>
      <path class="cls-21" d="m315.94,265.95h12c.55,0,1,.45,1,1v12c0,.55-.45,1-1,1h-12c-.55,0-1-.45-1-1v-12c0-.55.45-1,1-1Z"/>
      <path class="cls-21" d="m337.84,265.95h12c.55,0,1,.45,1,1v12c0,.55-.45,1-1,1h-12c-.55,0-1-.45-1-1v-12c0-.55.45-1,1-1Z"/>
      <path class="cls-21" d="m359.74,265.95h12c.55,0,1,.45,1,1v12c0,.55-.45,1-1,1h-12c-.55,0-1-.45-1-1v-12c0-.55.45-1,1-1Z"/>
      <path class="cls-21" d="m381.64,265.95h12c.55,0,1,.45,1,1v12c0,.55-.45,1-1,1h-12c-.55,0-1-.45-1-1v-12c0-.55.45-1,1-1Z"/>
      <path class="cls-19" d="m206.17,325.95h12c.55,0,1,.45,1,1v12c0,.55-.45,1-1,1h-12c-.55,0-1-.45-1-1v-12c0-.55.45-1,1-1Z"/>
      <path class="cls-19" d="m184.53,325.95h12c.55,0,1,.45,1,1v12c0,.55-.45,1-1,1h-12c-.55,0-1-.45-1-1v-12c0-.55.45-1,1-1Z"/>
      <path class="cls-19" d="m227.81,325.95h98.55c.55,0,1,.45,1,1v12c0,.55-.45,1-1,1h-98.55c-.55,0-1-.45-1-1v-12c0-.55.45-1,1-1Z"/>
      <path class="cls-19" d="m336,325.95h12c.55,0,1,.45,1,1v12c0,.55-.45,1-1,1h-12c-.55,0-1-.45-1-1v-12c0-.55.45-1,1-1Z"/>
      <path class="cls-19" d="m371.64,333.83h8c.55,0,1,.45,1,1v4.12c0,.55-.45,1-1,1h-8c-.55,0-1-.45-1-1v-4.12c0-.55.45-1,1-1Z"/>
      <path class="cls-19" d="m371.64,325.95h8c.55,0,1,.45,1,1v4.12c0,.55-.45,1-1,1h-8c-.55,0-1-.45-1-1v-4.12c0-.55.45-1,1-1Z"/>
      <path class="cls-19" d="m385.64,333.83h8c.55,0,1,.45,1,1v4.12c0,.55-.45,1-1,1h-8c-.55,0-1-.45-1-1v-4.12c0-.55.45-1,1-1Z"/>
      <path class="cls-19" d="m357.64,333.83h8c.55,0,1,.45,1,1v4.12c0,.55-.45,1-1,1h-8c-.55,0-1-.45-1-1v-4.12c0-.55.45-1,1-1Z"/>
      <path class="cls-19" d="m184.53,306.03h31.64c.55,0,1,.45,1,1v12c0,.55-.45,1-1,1h-31.64c-.55,0-1-.45-1-1v-12c0-.55.45-1,1-1Z"/>
      <path class="cls-19" d="m225.99,306.03h12c.55,0,1,.45,1,1v12c0,.55-.45,1-1,1h-12c-.55,0-1-.45-1-1v-12c0-.55.45-1,1-1Z"/>
      <path class="cls-19" d="m247.63,306.03h12c.55,0,1,.45,1,1v12c0,.55-.45,1-1,1h-12c-.55,0-1-.45-1-1v-12c0-.55.45-1,1-1Z"/>
      <path class="cls-19" d="m269.26,306.03h12c.55,0,1,.45,1,1v12c0,.55-.45,1-1,1h-12c-.55,0-1-.45-1-1v-12c0-.55.45-1,1-1Z"/>
      <path class="cls-19" d="m290.9,306.03h12c.55,0,1,.45,1,1v12c0,.55-.45,1-1,1h-12c-.55,0-1-.45-1-1v-12c0-.55.45-1,1-1Z"/>
      <path class="cls-19" d="m312.54,306.03h12c.55,0,1,.45,1,1v12c0,.55-.45,1-1,1h-12c-.55,0-1-.45-1-1v-12c0-.55.45-1,1-1Z"/>
      <path class="cls-19" d="m334.18,306.03h12c.55,0,1,.45,1,1v12c0,.55-.45,1-1,1h-12c-.55,0-1-.45-1-1v-12c0-.55.45-1,1-1Z"/>
      <path class="cls-19" d="m357.64,306.03h36c.55,0,1,.45,1,1v12c0,.55-.45,1-1,1h-36c-.55,0-1-.45-1-1v-12c0-.55.45-1,1-1Z"/>
      <path class="cls-19" d="m218.17,285.55h12c.55,0,1,.45,1,1v12c0,.55-.45,1-1,1h-12c-.55,0-1-.45-1-1v-12c0-.55.45-1,1-1Z"/>
      <path class="cls-19" d="m184.53,285.55h24c.55,0,1,.45,1,1v12c0,.55-.45,1-1,1h-24c-.55,0-1-.45-1-1v-12c0-.55.45-1,1-1Z"/>
      <path class="cls-19" d="m239.81,285.55h12c.55,0,1,.45,1,1v12c0,.55-.45,1-1,1h-12c-.55,0-1-.45-1-1v-12c0-.55.45-1,1-1Z"/>
      <path class="cls-19" d="m261.45,285.55h12c.55,0,1,.45,1,1v12c0,.55-.45,1-1,1h-12c-.55,0-1-.45-1-1v-12c0-.55.45-1,1-1Z"/>
      <path class="cls-19" d="m283.08,285.55h12c.55,0,1,.45,1,1v12c0,.55-.45,1-1,1h-12c-.55,0-1-.45-1-1v-12c0-.55.45-1,1-1Z"/>
      <path class="cls-19" d="m304.72,285.55h12c.55,0,1,.45,1,1v12c0,.55-.45,1-1,1h-12c-.55,0-1-.45-1-1v-12c0-.55.45-1,1-1Z"/>
      <path class="cls-19" d="m326.36,285.55h12c.55,0,1,.45,1,1v12c0,.55-.45,1-1,1h-12c-.55,0-1-.45-1-1v-12c0-.55.45-1,1-1Z"/>
      <path class="cls-19" d="m348,285.55h12c.55,0,1,.45,1,1v12c0,.55-.45,1-1,1h-12c-.55,0-1-.45-1-1v-12c0-.55.45-1,1-1Z"/>
      <path class="cls-19" d="m369.64,285.55h24c.55,0,1,.45,1,1v12c0,.55-.45,1-1,1h-24c-.55,0-1-.45-1-1v-12c0-.55.45-1,1-1Z"/>
      <path class="cls-19" d="m206.43,265.95h12c.55,0,1,.45,1,1v12c0,.55-.45,1-1,1h-12c-.55,0-1-.45-1-1v-12c0-.55.45-1,1-1Z"/>
      <path class="cls-19" d="m184.53,265.95h12c.55,0,1,.45,1,1v12c0,.55-.45,1-1,1h-12c-.55,0-1-.45-1-1v-12c0-.55.45-1,1-1Z"/>
      <path class="cls-19" d="m228.33,265.95h12c.55,0,1,.45,1,1v12c0,.55-.45,1-1,1h-12c-.55,0-1-.45-1-1v-12c0-.55.45-1,1-1Z"/>
      <path class="cls-19" d="m250.23,265.95h12c.55,0,1,.45,1,1v12c0,.55-.45,1-1,1h-12c-.55,0-1-.45-1-1v-12c0-.55.45-1,1-1Z"/>
      <path class="cls-19" d="m272.13,265.95h12c.55,0,1,.45,1,1v12c0,.55-.45,1-1,1h-12c-.55,0-1-.45-1-1v-12c0-.55.45-1,1-1Z"/>
      <path class="cls-19" d="m294.03,265.95h12c.55,0,1,.45,1,1v12c0,.55-.45,1-1,1h-12c-.55,0-1-.45-1-1v-12c0-.55.45-1,1-1Z"/>
      <path class="cls-19" d="m315.94,265.95h12c.55,0,1,.45,1,1v12c0,.55-.45,1-1,1h-12c-.55,0-1-.45-1-1v-12c0-.55.45-1,1-1Z"/>
      <path class="cls-19" d="m337.84,265.95h12c.55,0,1,.45,1,1v12c0,.55-.45,1-1,1h-12c-.55,0-1-.45-1-1v-12c0-.55.45-1,1-1Z"/>
      <path class="cls-19" d="m359.74,265.95h12c.55,0,1,.45,1,1v12c0,.55-.45,1-1,1h-12c-.55,0-1-.45-1-1v-12c0-.55.45-1,1-1Z"/>
      <path class="cls-19" d="m381.64,265.95h12c.55,0,1,.45,1,1v12c0,.55-.45,1-1,1h-12c-.55,0-1-.45-1-1v-12c0-.55.45-1,1-1Z"/>
      <path class="cls-19" d="m204.08,234.05h170v13.45c0,2.21-1.79,4-4,4h-162c-2.21,0-4-1.79-4-4v-13.45h0Z"/>
      <path class="cls-11" d="m370.08,247.49h-162c-2.21,0-4-1.79-4-4v4c0,2.21,1.79,4,4,4h162c2.21,0,4-1.79,4-4v-4c0,2.21-1.79,4-4,4Z"/>
      <path class="cls-16" d="m204.08,234.05h170v13.45c0,2.21-1.79,4-4,4h-162c-2.21,0-4-1.79-4-4v-13.45h0Z"/>
      <path class="cls-19" d="m254.08,353.45h70c1.11,0,2,.89,2,2v47c0,1.11-.89,2-2,2h-70c-1.11,0-2-.89-2-2v-47c0-1.11.9-2,2-2Z"/>
      <path class="cls-21" d="m254.08,353.45h70c1.11,0,2,.89,2,2v47c0,1.11-.89,2-2,2h-70c-1.11,0-2-.89-2-2v-47c0-1.11.9-2,2-2Z"/>
    </g>
    <g class="cls-13">
      <path class="cls-23" d="m68.73,343.17l7.72-11.03c.22-.31.65-.39.96-.17l7.88,5.51c.31.22.39.65.17.96l-7.72,11.03c-1.58,2.26-4.7,2.81-6.96,1.23l-.82-.57c-2.26-1.58-2.81-4.7-1.23-6.96Z"/>
      <path class="cls-23" d="m68.73,343.17l7.72-11.03c.22-.31.65-.39.96-.17l7.88,5.51c.31.22.39.65.17.96l-7.72,11.03c-1.58,2.26-4.7,2.81-6.96,1.23l-.82-.57c-2.26-1.58-2.81-4.7-1.23-6.96Z"/>
      <circle class="cls-23" cx="98.22" cy="310.63" r="32.58"/>
      <circle class="cls-23" cx="98.22" cy="310.63" r="32.58"/>
      <circle class="cls-23" cx="98.22" cy="310.63" r="25.36"/>
      <circle class="cls-23" cx="98.22" cy="310.63" r="25.36"/>
      <path class="cls-8" d="m81.64,305.37c.34-.76.71-1.51,1.08-2.25,1.7-3.33,3.73-6.79,6.98-8.83,2.75-1.73,6.61-2.41,9.59-.88,2.59,1.33,4.15,4.07,6.51,5.77,1.59.98,3.25,1.85,4.95,2.61,1.72.77,3.09,2.18,3.81,3.92.8,2.44-.52,5.05-.53,7.62,0,1.42.39,2.81,1.14,4.02.47.56.77,1.25.88,1.98-.15.95-.81,1.74-1.71,2.06-2.63,1.24-5.69.79-8.58.48s-6.09-.38-8.37,1.42c-.93.86-1.8,1.8-2.59,2.79-1.25,1.87-3.78,2.38-5.65,1.13-.22-.14-.42-.31-.6-.49-2.07-1.73-3.86-3.77-5.33-6.04-1.54-1.92-2.62-4.16-3.17-6.56-.52-2.97.35-5.95,1.59-8.75Z"/>
      <circle class="cls-8" cx="103.35" cy="328.25" r="1.57"/>
      <circle class="cls-8" cx="99.25" cy="328.83" r="1.09"/>
      <circle class="cls-8" cx="107.06" cy="326.79" r=".99"/>
      <circle class="cls-8" cx="95.8" cy="329.24" r=".71"/>
      <circle class="cls-8" cx="110.19" cy="325.75" r=".43"/>
      <circle class="cls-8" cx="78.54" cy="304.64" r="1.01"/>
      <circle class="cls-8" cx="106.15" cy="292.84" r=".95"/>
      <circle class="cls-8" cx="112.35" cy="297.54" r=".86"/>
      <circle class="cls-8" cx="113.06" cy="299.99" r=".38"/>
    </g>
    <path class="cls-2" d="m61.51,334.99l7.72-11.03c.22-.31.65-.39.96-.17l7.88,5.51c.31.22.39.65.17.96l-7.72,11.03c-1.58,2.26-4.7,2.81-6.96,1.23l-.82-.57c-2.26-1.58-2.81-4.7-1.23-6.96Z"/>
    <path class="cls-10" d="m70.19,323.79c-.31-.22-.74-.14-.96.17l-3.48,4.97c1.33,1.27,2.76,2.44,4.27,3.49,1.51,1.05,3.09,2,4.74,2.82l3.48-4.97c.22-.31.14-.74-.17-.96,0,0,0,0,0,0l-7.88-5.51Z"/>
    <path class="cls-24" d="m66.41,345.43c-1.39,0-2.79-.41-4-1.26l-.82-.57c-3.16-2.21-3.93-6.59-1.72-9.75h0l7.72-11.03c.85-1.21,2.53-1.51,3.75-.66l7.88,5.52c1.22.85,1.51,2.54.66,3.75l-7.72,11.03c-1.36,1.94-3.54,2.98-5.75,2.98Zm-3.27-9.29c-.95,1.36-.62,3.23.74,4.18l.82.57c1.36.95,3.23.62,4.18-.74l6.97-9.96-5.74-4.01-6.97,9.96Zm13.46-7.02s0,0,0,0h0Z"/>
    <circle class="cls-2" cx="91" cy="302.46" r="32.58"/>
    <path class="cls-24" d="m91,337.03c-19.07,0-34.58-15.51-34.58-34.58s15.51-34.58,34.58-34.58,34.58,15.51,34.58,34.58-15.51,34.58-34.58,34.58Zm0-65.15c-16.86,0-30.58,13.72-30.58,30.58s13.72,30.58,30.58,30.58,30.58-13.72,30.58-30.58-13.72-30.58-30.58-30.58Z"/>
    <circle class="cls-14" cx="91" cy="302.46" r="25.36"/>
    <path class="cls-24" d="m91,328.81c-14.53,0-26.35-11.82-26.35-26.35s11.82-26.36,26.35-26.36,26.35,11.82,26.35,26.36-11.82,26.35-26.35,26.35Zm0-50.71c-13.43,0-24.35,10.93-24.35,24.36s10.93,24.35,24.35,24.35,24.35-10.93,24.35-24.35-10.93-24.36-24.35-24.36Z"/>
    <path class="cls-6" d="m74.42,297.19c.34-.76.71-1.51,1.08-2.25,1.7-3.33,3.73-6.79,6.98-8.83,2.76-1.73,6.61-2.41,9.59-.88,2.59,1.33,4.15,4.07,6.51,5.77,1.59.97,3.25,1.84,4.96,2.6,1.72.77,3.08,2.18,3.81,3.92.8,2.45-.52,5.05-.53,7.62,0,1.42.39,2.81,1.14,4.02.47.56.78,1.25.88,1.98-.15.95-.81,1.74-1.71,2.06-2.63,1.24-5.69.79-8.58.48s-6.08-.38-8.37,1.42c-.93.86-1.8,1.8-2.59,2.79-1.25,1.87-3.78,2.38-5.65,1.13-.22-.14-.42-.31-.6-.49-2.07-1.73-3.86-3.77-5.33-6.04-1.53-1.92-2.62-4.16-3.17-6.55-.53-2.97.34-5.95,1.59-8.75Z"/>
    <circle class="cls-6" cx="96.12" cy="320.08" r="1.57"/>
    <circle class="cls-6" cx="92.03" cy="320.66" r="1.09"/>
    <circle class="cls-6" cx="99.84" cy="318.61" r=".99"/>
    <circle class="cls-6" cx="88.58" cy="321.07" r=".71"/>
    <circle class="cls-6" cx="102.96" cy="317.57" r=".43"/>
    <circle class="cls-6" cx="71.32" cy="296.47" r="1.01"/>
    <circle class="cls-6" cx="98.93" cy="284.67" r=".95"/>
    <circle class="cls-6" cx="105.13" cy="289.37" r=".86"/>
    <circle class="cls-6" cx="105.84" cy="291.81" r=".38"/>
    <circle class="cls-14" cx="93.22" cy="304.55" r="2"/>
    <circle class="cls-14" cx="86.7" cy="296.87" r="3.5"/>
    <path d="m397.13,234.11h-232c-7.99,0-14.5-6.51-14.5-14.5V83.61c0-7.99,6.51-14.5,14.5-14.5h232c7.99,0,14.5,6.51,14.5,14.5v136c0,7.99-6.51,14.5-14.5,14.5ZM165.13,70.11c-7.44,0-13.5,6.06-13.5,13.5v136c0,7.44,6.06,13.5,13.5,13.5h232c7.44,0,13.5-6.06,13.5-13.5V83.61c0-7.44-6.06-13.5-13.5-13.5h-232Z"/>
    <path class="cls-17" d="m165.13,69.61h232c7.73,0,14,6.27,14,14v136c0,7.73-6.27,14-14,14h-232c-7.73,0-14-6.27-14-14V83.61c0-7.73,6.27-14,14-14Z"/>
    <path class="cls-17" d="m165.13,69.61h232c7.73,0,14,6.27,14,14v136c0,7.73-6.27,14-14,14h-232c-7.73,0-14-6.27-14-14V83.61c0-7.73,6.27-14,14-14Z"/>
    <path class="cls-12" d="m165.13,69.61h232c7.73,0,14,6.27,14,14v127.02c0,7.73-6.27,14-14,14h-232c-7.73,0-14-6.27-14-14v-127.02c0-7.73,6.27-14,14-14Z"/>
    <path class="cls-5" d="m165.13,73.61h232c7.73,0,14,6.27,14,14v132h0V83.61c0-7.73-6.27-14-14-14h-232c-7.73,0-14,6.27-14,14v4c0-7.73,6.27-14,14-14Z"/>
    <g class="cls-25">
      <polygon class="cls-1" points="230.36 233.61 246.43 233.61 365.58 69.61 349.51 69.61 230.36 233.61"/>
      <polygon class="cls-1" points="255.7 233.61 260.64 233.61 379.8 69.61 374.85 69.61 255.7 233.61"/>
    </g>
    <path class="cls-24" d="m397.13,235.61h-232c-8.82,0-16-7.18-16-16V83.61c0-8.82,7.18-16,16-16h232c8.82,0,16,7.18,16,16v136c0,8.82-7.18,16-16,16ZM165.13,71.61c-6.62,0-12,5.38-12,12v136c0,6.62,5.38,12,12,12h232c6.62,0,12-5.38,12-12V83.61c0-6.62-5.38-12-12-12h-232Z"/>
    <rect class="cls-18" x="169.13" y="88.09" width="224" height="126"/>
    <g class="cls-28">
      <polygon class="cls-1" points="245.54 214.09 261.61 214.09 353.16 88.09 337.09 88.09 245.54 214.09"/>
      <polygon class="cls-1" points="270.88 214.09 275.83 214.09 367.37 88.09 362.43 88.09 270.88 214.09"/>
    </g>
    <path class="cls-24" d="m393.13,214.59h-224c-.28,0-.5-.22-.5-.5v-126c0-.28.22-.5.5-.5h224c.28,0,.5.22.5.5v126c0,.28-.22.5-.5.5Zm-223.5-1h223v-125h-223v125Z"/>
    <path class="cls-26" d="m165.13,233.61h232c7.73,0,14,6.27,14,14v144c0,7.73-6.27,14-14,14h-232c-7.73,0-14-6.27-14-14v-144c0-7.73,6.27-14,14-14Z"/>
    <path class="cls-2" d="m407.13,247.61v144c0,5.52-4.48,10-10,10h-232c-5.52,0-10-4.48-10-10v-144c0-5.52,4.48-10,10-10h232c5.52,0,10,4.48,10,10Z"/>
    <path class="cls-26" d="m265.08,397.79h32.1c2.21,0,4,1.79,4,4v3.82h-40.1v-3.82c0-2.21,1.79-4,4-4Z"/>
    <path class="cls-24" d="m397.13,407.61h-232c-8.82,0-16-7.18-16-16v-144c0-8.82,7.18-16,16-16h232c8.82,0,16,7.18,16,16v144c0,8.82-7.18,16-16,16Zm-232-172c-6.62,0-12,5.38-12,12v144c0,6.62,5.38,12,12,12h232c6.62,0,12-5.38,12-12v-144c0-6.62-5.38-12-12-12h-232Z"/>
    <path class="cls-26" d="m169.13,247.03h224c1.66,0,3,1.34,3,3v86c0,1.66-1.34,3-3,3h-224c-1.66,0-3-1.34-3-3v-86c0-1.66,1.34-3,3-3Z"/>
    <path class="cls-17" d="m210.22,331.03h-12c-.83,0-1.5-.67-1.5-1.5v-12c0-.83.67-1.5,1.5-1.5h12c.83,0,1.5.67,1.5,1.5v12c0,.83-.67,1.5-1.5,1.5Zm-12-14c-.28,0-.5.23-.5.5v12c0,.27.22.5.5.5h12c.28,0,.5-.23.5-.5v-12c0-.27-.22-.5-.5-.5h-12Z"/>
    <path class="cls-17" d="m188.58,331.03h-12c-.83,0-1.5-.67-1.5-1.5v-12c0-.83.67-1.5,1.5-1.5h12c.83,0,1.5.67,1.5,1.5v12c0,.83-.67,1.5-1.5,1.5Zm-12-14c-.28,0-.5.23-.5.5v12c0,.27.22.5.5.5h12c.28,0,.5-.23.5-.5v-12c0-.27-.22-.5-.5-.5h-12Z"/>
    <path class="cls-17" d="m318.41,331.03h-98.55c-.83,0-1.5-.67-1.5-1.5v-12c0-.83.67-1.5,1.5-1.5h98.55c.83,0,1.5.67,1.5,1.5v12c0,.83-.67,1.5-1.5,1.5Zm-98.55-14c-.28,0-.5.23-.5.5v12c0,.27.22.5.5.5h98.55c.27,0,.5-.23.5-.5v-12c0-.27-.23-.5-.5-.5h-98.55Z"/>
    <path class="cls-17" d="m340.05,331.03h-12c-.83,0-1.5-.67-1.5-1.5v-12c0-.83.67-1.5,1.5-1.5h12c.83,0,1.5.67,1.5,1.5v12c0,.83-.67,1.5-1.5,1.5Zm-12-14c-.27,0-.5.23-.5.5v12c0,.27.23.5.5.5h12c.27,0,.5-.23.5-.5v-12c0-.27-.23-.5-.5-.5h-12Z"/>
    <path class="cls-17" d="m371.69,331.03h-8c-.83,0-1.5-.67-1.5-1.5v-4.12c0-.83.67-1.5,1.5-1.5h8c.83,0,1.5.67,1.5,1.5v4.12c0,.83-.67,1.5-1.5,1.5Zm-8-6.12c-.27,0-.5.23-.5.5v4.12c0,.27.23.5.5.5h8c.27,0,.5-.23.5-.5v-4.12c0-.27-.23-.5-.5-.5h-8Z"/>
    <path class="cls-17" d="m371.69,323.16h-8c-.83,0-1.5-.67-1.5-1.5v-4.12c0-.83.67-1.5,1.5-1.5h8c.83,0,1.5.67,1.5,1.5v4.12c0,.83-.67,1.5-1.5,1.5Zm-8-6.12c-.27,0-.5.23-.5.5v4.12c0,.27.23.5.5.5h8c.27,0,.5-.23.5-.5v-4.12c0-.27-.23-.5-.5-.5h-8Z"/>
    <path class="cls-17" d="m385.69,331.03h-8c-.83,0-1.5-.67-1.5-1.5v-4.12c0-.83.67-1.5,1.5-1.5h8c.83,0,1.5.67,1.5,1.5v4.12c0,.83-.67,1.5-1.5,1.5Zm-8-6.12c-.27,0-.5.23-.5.5v4.12c0,.27.23.5.5.5h8c.27,0,.5-.23.5-.5v-4.12c0-.27-.23-.5-.5-.5h-8Z"/>
    <path class="cls-17" d="m357.69,331.03h-8c-.83,0-1.5-.67-1.5-1.5v-4.12c0-.83.67-1.5,1.5-1.5h8c.83,0,1.5.67,1.5,1.5v4.12c0,.83-.67,1.5-1.5,1.5Zm-8-6.12c-.27,0-.5.23-.5.5v4.12c0,.27.23.5.5.5h8c.27,0,.5-.23.5-.5v-4.12c0-.27-.23-.5-.5-.5h-8Z"/>
    <path class="cls-17" d="m208.22,311.11h-31.64c-.83,0-1.5-.67-1.5-1.5v-12c0-.83.67-1.5,1.5-1.5h31.64c.83,0,1.5.67,1.5,1.5v12c0,.83-.67,1.5-1.5,1.5Zm-31.64-14c-.28,0-.5.23-.5.5v12c0,.27.22.5.5.5h31.64c.28,0,.5-.23.5-.5v-12c0-.27-.22-.5-.5-.5h-31.64Z"/>
    <path class="cls-17" d="m230.04,311.11h-12c-.83,0-1.5-.67-1.5-1.5v-12c0-.83.67-1.5,1.5-1.5h12c.83,0,1.5.67,1.5,1.5v12c0,.83-.67,1.5-1.5,1.5Zm-12-14c-.28,0-.5.23-.5.5v12c0,.27.22.5.5.5h12c.28,0,.5-.23.5-.5v-12c0-.27-.22-.5-.5-.5h-12Z"/>
    <path class="cls-17" d="m251.68,311.11h-12c-.83,0-1.5-.67-1.5-1.5v-12c0-.83.67-1.5,1.5-1.5h12c.83,0,1.5.67,1.5,1.5v12c0,.83-.67,1.5-1.5,1.5Zm-12-14c-.28,0-.5.23-.5.5v12c0,.27.22.5.5.5h12c.28,0,.5-.23.5-.5v-12c0-.27-.22-.5-.5-.5h-12Z"/>
    <path class="cls-17" d="m273.31,311.11h-12c-.83,0-1.5-.67-1.5-1.5v-12c0-.83.67-1.5,1.5-1.5h12c.83,0,1.5.67,1.5,1.5v12c0,.83-.67,1.5-1.5,1.5Zm-12-14c-.28,0-.5.23-.5.5v12c0,.27.22.5.5.5h12c.28,0,.5-.23.5-.5v-12c0-.27-.22-.5-.5-.5h-12Z"/>
    <path class="cls-17" d="m294.95,311.11h-12c-.83,0-1.5-.67-1.5-1.5v-12c0-.83.67-1.5,1.5-1.5h12c.83,0,1.5.67,1.5,1.5v12c0,.83-.67,1.5-1.5,1.5Zm-12-14c-.28,0-.5.23-.5.5v12c0,.27.23.5.5.5h12c.27,0,.5-.23.5-.5v-12c0-.27-.23-.5-.5-.5h-12Z"/>
    <path class="cls-17" d="m316.59,311.11h-12c-.83,0-1.5-.67-1.5-1.5v-12c0-.83.67-1.5,1.5-1.5h12c.83,0,1.5.67,1.5,1.5v12c0,.83-.67,1.5-1.5,1.5Zm-12-14c-.27,0-.5.23-.5.5v12c0,.27.23.5.5.5h12c.27,0,.5-.23.5-.5v-12c0-.27-.23-.5-.5-.5h-12Z"/>
    <path class="cls-17" d="m338.23,311.11h-12c-.83,0-1.5-.67-1.5-1.5v-12c0-.83.67-1.5,1.5-1.5h12c.83,0,1.5.67,1.5,1.5v12c0,.83-.67,1.5-1.5,1.5Zm-12-14c-.27,0-.5.23-.5.5v12c0,.27.23.5.5.5h12c.27,0,.5-.23.5-.5v-12c0-.27-.23-.5-.5-.5h-12Z"/>
    <path class="cls-17" d="m385.69,311.11h-36c-.83,0-1.5-.67-1.5-1.5v-12c0-.83.67-1.5,1.5-1.5h36c.83,0,1.5.67,1.5,1.5v12c0,.83-.67,1.5-1.5,1.5Zm-36-14c-.27,0-.5.23-.5.5v12c0,.27.23.5.5.5h36c.27,0,.5-.23.5-.5v-12c0-.27-.23-.5-.5-.5h-36Z"/>
    <path class="cls-17" d="m222.22,290.63h-12c-.83,0-1.5-.67-1.5-1.5v-12c0-.83.67-1.5,1.5-1.5h12c.83,0,1.5.67,1.5,1.5v12c0,.83-.67,1.5-1.5,1.5Zm-12-14c-.28,0-.5.23-.5.5v12c0,.27.22.5.5.5h12c.28,0,.5-.23.5-.5v-12c0-.27-.22-.5-.5-.5h-12Z"/>
    <path class="cls-17" d="m200.58,290.63h-24c-.83,0-1.5-.67-1.5-1.5v-12c0-.83.67-1.5,1.5-1.5h24c.83,0,1.5.67,1.5,1.5v12c0,.83-.67,1.5-1.5,1.5Zm-24-14c-.28,0-.5.23-.5.5v12c0,.27.22.5.5.5h24c.28,0,.5-.23.5-.5v-12c0-.27-.22-.5-.5-.5h-24Z"/>
    <path class="cls-17" d="m243.86,290.63h-12c-.83,0-1.5-.67-1.5-1.5v-12c0-.83.67-1.5,1.5-1.5h12c.83,0,1.5.67,1.5,1.5v12c0,.83-.67,1.5-1.5,1.5Zm-12-14c-.28,0-.5.23-.5.5v12c0,.27.22.5.5.5h12c.28,0,.5-.23.5-.5v-12c0-.27-.22-.5-.5-.5h-12Z"/>
    <path class="cls-17" d="m265.49,290.63h-12c-.83,0-1.5-.67-1.5-1.5v-12c0-.83.67-1.5,1.5-1.5h12c.83,0,1.5.67,1.5,1.5v12c0,.83-.67,1.5-1.5,1.5Zm-12-14c-.28,0-.5.23-.5.5v12c0,.27.22.5.5.5h12c.28,0,.5-.23.5-.5v-12c0-.27-.22-.5-.5-.5h-12Z"/>
    <path class="cls-17" d="m287.13,290.63h-12c-.83,0-1.5-.67-1.5-1.5v-12c0-.83.67-1.5,1.5-1.5h12c.83,0,1.5.67,1.5,1.5v12c0,.83-.67,1.5-1.5,1.5Zm-12-14c-.28,0-.5.23-.5.5v12c0,.27.22.5.5.5h12c.27,0,.5-.23.5-.5v-12c0-.27-.23-.5-.5-.5h-12Z"/>
    <path class="cls-17" d="m308.77,290.63h-12c-.83,0-1.5-.67-1.5-1.5v-12c0-.83.67-1.5,1.5-1.5h12c.83,0,1.5.67,1.5,1.5v12c0,.83-.67,1.5-1.5,1.5Zm-12-14c-.27,0-.5.23-.5.5v12c0,.27.23.5.5.5h12c.27,0,.5-.23.5-.5v-12c0-.27-.23-.5-.5-.5h-12Z"/>
    <path class="cls-17" d="m330.41,290.63h-12c-.83,0-1.5-.67-1.5-1.5v-12c0-.83.67-1.5,1.5-1.5h12c.83,0,1.5.67,1.5,1.5v12c0,.83-.67,1.5-1.5,1.5Zm-12-14c-.27,0-.5.23-.5.5v12c0,.27.23.5.5.5h12c.27,0,.5-.23.5-.5v-12c0-.27-.23-.5-.5-.5h-12Z"/>
    <path class="cls-17" d="m352.05,290.63h-12c-.83,0-1.5-.67-1.5-1.5v-12c0-.83.67-1.5,1.5-1.5h12c.83,0,1.5.67,1.5,1.5v12c0,.83-.67,1.5-1.5,1.5Zm-12-14c-.27,0-.5.23-.5.5v12c0,.27.23.5.5.5h12c.27,0,.5-.23.5-.5v-12c0-.27-.23-.5-.5-.5h-12Z"/>
    <path class="cls-17" d="m385.69,290.63h-24c-.83,0-1.5-.67-1.5-1.5v-12c0-.83.67-1.5,1.5-1.5h24c.83,0,1.5.67,1.5,1.5v12c0,.83-.67,1.5-1.5,1.5Zm-24-14c-.27,0-.5.23-.5.5v12c0,.27.23.5.5.5h24c.27,0,.5-.23.5-.5v-12c0-.27-.23-.5-.5-.5h-24Z"/>
    <path class="cls-17" d="m210.48,271.03h-12c-.83,0-1.5-.67-1.5-1.5v-12c0-.83.67-1.5,1.5-1.5h12c.83,0,1.5.67,1.5,1.5v12c0,.83-.67,1.5-1.5,1.5Zm-12-14c-.28,0-.5.23-.5.5v12c0,.27.22.5.5.5h12c.28,0,.5-.23.5-.5v-12c0-.27-.22-.5-.5-.5h-12Z"/>
    <path class="cls-17" d="m188.58,271.03h-12c-.83,0-1.5-.67-1.5-1.5v-12c0-.83.67-1.5,1.5-1.5h12c.83,0,1.5.67,1.5,1.5v12c0,.83-.67,1.5-1.5,1.5Zm-12-14c-.28,0-.5.23-.5.5v12c0,.27.22.5.5.5h12c.28,0,.5-.23.5-.5v-12c0-.27-.22-.5-.5-.5h-12Z"/>
    <path class="cls-17" d="m232.38,271.03h-12c-.83,0-1.5-.67-1.5-1.5v-12c0-.83.67-1.5,1.5-1.5h12c.83,0,1.5.67,1.5,1.5v12c0,.83-.67,1.5-1.5,1.5Zm-12-14c-.28,0-.5.23-.5.5v12c0,.27.22.5.5.5h12c.28,0,.5-.23.5-.5v-12c0-.27-.22-.5-.5-.5h-12Z"/>
    <path class="cls-17" d="m254.28,271.03h-12c-.83,0-1.5-.67-1.5-1.5v-12c0-.83.67-1.5,1.5-1.5h12c.83,0,1.5.67,1.5,1.5v12c0,.83-.67,1.5-1.5,1.5Zm-12-14c-.28,0-.5.23-.5.5v12c0,.27.22.5.5.5h12c.28,0,.5-.23.5-.5v-12c0-.27-.22-.5-.5-.5h-12Z"/>
    <path class="cls-17" d="m276.18,271.03h-12c-.83,0-1.5-.67-1.5-1.5v-12c0-.83.67-1.5,1.5-1.5h12c.83,0,1.5.67,1.5,1.5v12c0,.83-.67,1.5-1.5,1.5Zm-12-14c-.28,0-.5.23-.5.5v12c0,.27.22.5.5.5h12c.28,0,.5-.23.5-.5v-12c0-.27-.22-.5-.5-.5h-12Z"/>
    <path class="cls-17" d="m298.08,271.03h-12c-.83,0-1.5-.67-1.5-1.5v-12c0-.83.67-1.5,1.5-1.5h12c.83,0,1.5.67,1.5,1.5v12c0,.83-.67,1.5-1.5,1.5Zm-12-14c-.27,0-.5.23-.5.5v12c0,.27.23.5.5.5h12c.27,0,.5-.23.5-.5v-12c0-.27-.23-.5-.5-.5h-12Z"/>
    <path class="cls-17" d="m319.98,271.03h-12c-.83,0-1.5-.67-1.5-1.5v-12c0-.83.67-1.5,1.5-1.5h12c.83,0,1.5.67,1.5,1.5v12c0,.83-.67,1.5-1.5,1.5Zm-12-14c-.27,0-.5.23-.5.5v12c0,.27.23.5.5.5h12c.27,0,.5-.23.5-.5v-12c0-.27-.23-.5-.5-.5h-12Z"/>
    <path class="cls-17" d="m341.89,271.03h-12c-.83,0-1.5-.67-1.5-1.5v-12c0-.83.67-1.5,1.5-1.5h12c.83,0,1.5.67,1.5,1.5v12c0,.83-.67,1.5-1.5,1.5Zm-12-14c-.27,0-.5.23-.5.5v12c0,.27.23.5.5.5h12c.27,0,.5-.23.5-.5v-12c0-.27-.23-.5-.5-.5h-12Z"/>
    <path class="cls-17" d="m363.79,271.03h-12c-.83,0-1.5-.67-1.5-1.5v-12c0-.83.67-1.5,1.5-1.5h12c.83,0,1.5.67,1.5,1.5v12c0,.83-.67,1.5-1.5,1.5Zm-12-14c-.27,0-.5.23-.5.5v12c0,.27.23.5.5.5h12c.27,0,.5-.23.5-.5v-12c0-.27-.23-.5-.5-.5h-12Z"/>
    <path class="cls-17" d="m385.69,271.03h-12c-.83,0-1.5-.67-1.5-1.5v-12c0-.83.67-1.5,1.5-1.5h12c.83,0,1.5.67,1.5,1.5v12c0,.83-.67,1.5-1.5,1.5Zm-12-14c-.27,0-.5.23-.5.5v12c0,.27.23.5.5.5h12c.27,0,.5-.23.5-.5v-12c0-.27-.23-.5-.5-.5h-12Z"/>
    <path class="cls-17" d="m198.22,316.53h12c.55,0,1,.45,1,1v12c0,.55-.45,1-1,1h-12c-.55,0-1-.45-1-1v-12c0-.55.45-1,1-1Z"/>
    <path class="cls-17" d="m176.58,316.53h12c.55,0,1,.45,1,1v12c0,.55-.45,1-1,1h-12c-.55,0-1-.45-1-1v-12c0-.55.45-1,1-1Z"/>
    <path class="cls-17" d="m219.86,316.53h98.55c.55,0,1,.45,1,1v12c0,.55-.45,1-1,1h-98.55c-.55,0-1-.45-1-1v-12c0-.55.45-1,1-1Z"/>
    <path class="cls-17" d="m328.05,316.53h12c.55,0,1,.45,1,1v12c0,.55-.45,1-1,1h-12c-.55,0-1-.45-1-1v-12c0-.55.45-1,1-1Z"/>
    <path class="cls-17" d="m363.69,324.41h8c.55,0,1,.45,1,1v4.12c0,.55-.45,1-1,1h-8c-.55,0-1-.45-1-1v-4.12c0-.55.45-1,1-1Z"/>
    <path class="cls-17" d="m363.69,316.53h8c.55,0,1,.45,1,1v4.12c0,.55-.45,1-1,1h-8c-.55,0-1-.45-1-1v-4.12c0-.55.45-1,1-1Z"/>
    <path class="cls-17" d="m377.69,324.41h8c.55,0,1,.45,1,1v4.12c0,.55-.45,1-1,1h-8c-.55,0-1-.45-1-1v-4.12c0-.55.45-1,1-1Z"/>
    <path class="cls-17" d="m349.69,324.41h8c.55,0,1,.45,1,1v4.12c0,.55-.45,1-1,1h-8c-.55,0-1-.45-1-1v-4.12c0-.55.45-1,1-1Z"/>
    <path class="cls-17" d="m176.58,296.61h31.64c.55,0,1,.45,1,1v12c0,.55-.45,1-1,1h-31.64c-.55,0-1-.45-1-1v-12c0-.55.45-1,1-1Z"/>
    <path class="cls-17" d="m218.04,296.61h12c.55,0,1,.45,1,1v12c0,.55-.45,1-1,1h-12c-.55,0-1-.45-1-1v-12c0-.55.45-1,1-1Z"/>
    <path class="cls-17" d="m239.68,296.61h12c.55,0,1,.45,1,1v12c0,.55-.45,1-1,1h-12c-.55,0-1-.45-1-1v-12c0-.55.45-1,1-1Z"/>
    <path class="cls-17" d="m261.31,296.61h12c.55,0,1,.45,1,1v12c0,.55-.45,1-1,1h-12c-.55,0-1-.45-1-1v-12c0-.55.45-1,1-1Z"/>
    <path class="cls-17" d="m282.95,296.61h12c.55,0,1,.45,1,1v12c0,.55-.45,1-1,1h-12c-.55,0-1-.45-1-1v-12c0-.55.45-1,1-1Z"/>
    <path class="cls-17" d="m304.59,296.61h12c.55,0,1,.45,1,1v12c0,.55-.45,1-1,1h-12c-.55,0-1-.45-1-1v-12c0-.55.45-1,1-1Z"/>
    <path class="cls-17" d="m326.23,296.61h12c.55,0,1,.45,1,1v12c0,.55-.45,1-1,1h-12c-.55,0-1-.45-1-1v-12c0-.55.45-1,1-1Z"/>
    <path class="cls-17" d="m349.69,296.61h36c.55,0,1,.45,1,1v12c0,.55-.45,1-1,1h-36c-.55,0-1-.45-1-1v-12c0-.55.45-1,1-1Z"/>
    <path class="cls-17" d="m210.22,276.13h12c.55,0,1,.45,1,1v12c0,.55-.45,1-1,1h-12c-.55,0-1-.45-1-1v-12c0-.55.45-1,1-1Z"/>
    <path class="cls-17" d="m176.58,276.13h24c.55,0,1,.45,1,1v12c0,.55-.45,1-1,1h-24c-.55,0-1-.45-1-1v-12c0-.55.45-1,1-1Z"/>
    <path class="cls-17" d="m231.86,276.13h12c.55,0,1,.45,1,1v12c0,.55-.45,1-1,1h-12c-.55,0-1-.45-1-1v-12c0-.55.45-1,1-1Z"/>
    <path class="cls-17" d="m253.49,276.13h12c.55,0,1,.45,1,1v12c0,.55-.45,1-1,1h-12c-.55,0-1-.45-1-1v-12c0-.55.45-1,1-1Z"/>
    <path class="cls-17" d="m275.13,276.13h12c.55,0,1,.45,1,1v12c0,.55-.45,1-1,1h-12c-.55,0-1-.45-1-1v-12c0-.55.45-1,1-1Z"/>
    <path class="cls-17" d="m296.77,276.13h12c.55,0,1,.45,1,1v12c0,.55-.45,1-1,1h-12c-.55,0-1-.45-1-1v-12c0-.55.45-1,1-1Z"/>
    <path class="cls-17" d="m318.41,276.13h12c.55,0,1,.45,1,1v12c0,.55-.45,1-1,1h-12c-.55,0-1-.45-1-1v-12c0-.55.45-1,1-1Z"/>
    <path class="cls-17" d="m340.05,276.13h12c.55,0,1,.45,1,1v12c0,.55-.45,1-1,1h-12c-.55,0-1-.45-1-1v-12c0-.55.45-1,1-1Z"/>
    <path class="cls-17" d="m361.69,276.13h24c.55,0,1,.45,1,1v12c0,.55-.45,1-1,1h-24c-.55,0-1-.45-1-1v-12c0-.55.45-1,1-1Z"/>
    <path class="cls-17" d="m198.48,256.53h12c.55,0,1,.45,1,1v12c0,.55-.45,1-1,1h-12c-.55,0-1-.45-1-1v-12c0-.55.45-1,1-1Z"/>
    <path class="cls-17" d="m176.58,256.53h12c.55,0,1,.45,1,1v12c0,.55-.45,1-1,1h-12c-.55,0-1-.45-1-1v-12c0-.55.45-1,1-1Z"/>
    <path class="cls-17" d="m220.38,256.53h12c.55,0,1,.45,1,1v12c0,.55-.45,1-1,1h-12c-.55,0-1-.45-1-1v-12c0-.55.45-1,1-1Z"/>
    <path class="cls-17" d="m242.28,256.53h12c.55,0,1,.45,1,1v12c0,.55-.45,1-1,1h-12c-.55,0-1-.45-1-1v-12c0-.55.45-1,1-1Z"/>
    <path class="cls-17" d="m264.18,256.53h12c.55,0,1,.45,1,1v12c0,.55-.45,1-1,1h-12c-.55,0-1-.45-1-1v-12c0-.55.45-1,1-1Z"/>
    <path class="cls-17" d="m286.08,256.53h12c.55,0,1,.45,1,1v12c0,.55-.45,1-1,1h-12c-.55,0-1-.45-1-1v-12c0-.55.45-1,1-1Z"/>
    <path class="cls-17" d="m307.98,256.53h12c.55,0,1,.45,1,1v12c0,.55-.45,1-1,1h-12c-.55,0-1-.45-1-1v-12c0-.55.45-1,1-1Z"/>
    <path class="cls-17" d="m329.89,256.53h12c.55,0,1,.45,1,1v12c0,.55-.45,1-1,1h-12c-.55,0-1-.45-1-1v-12c0-.55.45-1,1-1Z"/>
    <path class="cls-17" d="m351.79,256.53h12c.55,0,1,.45,1,1v12c0,.55-.45,1-1,1h-12c-.55,0-1-.45-1-1v-12c0-.55.45-1,1-1Z"/>
    <path class="cls-17" d="m373.69,256.53h12c.55,0,1,.45,1,1v12c0,.55-.45,1-1,1h-12c-.55,0-1-.45-1-1v-12c0-.55.45-1,1-1Z"/>
    <path class="cls-17" d="m196.13,224.63h170v13.45c0,2.21-1.79,4-4,4h-162c-2.21,0-4-1.79-4-4v-13.45h0Z"/>
    <rect class="cls-3" x="196.13" y="224.63" width="170" height="2"/>
    <path class="cls-7" d="m362.13,238.08h-162c-2.21,0-4-1.79-4-4v4c0,2.21,1.79,4,4,4h162c2.21,0,4-1.79,4-4v-4c0,2.21-1.79,4-4,4Z"/>
    <path class="cls-24" d="m362.13,243.08h-162c-2.76,0-5-2.24-5-5v-13.45c0-.55.45-1,1-1h170c.55,0,1,.45,1,1v13.45c0,2.76-2.24,5-5,5Zm-165-17.45v12.45c0,1.65,1.35,3,3,3h162c1.65,0,3-1.35,3-3v-12.45h-168Z"/>
    <path class="cls-26" d="m246.13,344.03h70c1.11,0,2,.89,2,2v47c0,1.11-.89,2-2,2h-70c-1.11,0-2-.89-2-2v-47c0-1.11.89-2,2-2Z"/>
    <path class="cls-17" d="m316.13,395.53h-70c-1.38,0-2.5-1.12-2.5-2.5v-47c0-1.38,1.12-2.5,2.5-2.5h70c1.38,0,2.5,1.12,2.5,2.5v47c0,1.38-1.12,2.5-2.5,2.5Zm-70-51c-.83,0-1.5.67-1.5,1.5v47c0,.83.67,1.5,1.5,1.5h70c.83,0,1.5-.67,1.5-1.5v-47c0-.83-.67-1.5-1.5-1.5h-70Z"/>
    <circle class="cls-4" cx="281.13" cy="79.76" r="3"/>
    <path class="cls-24" d="m281.13,83.26c-1.93,0-3.5-1.57-3.5-3.5s1.57-3.5,3.5-3.5,3.5,1.57,3.5,3.5-1.57,3.5-3.5,3.5Zm0-6c-1.38,0-2.5,1.12-2.5,2.5s1.12,2.5,2.5,2.5,2.5-1.12,2.5-2.5-1.12-2.5-2.5-2.5Z"/>
    <path class="cls-1" d="m331.49,100.84h12c.55,0,1,.45,1,1h0c0,.55-.45,1-1,1h-12c-.55,0-1-.45-1-1h0c0-.55.45-1,1-1Z"/>
    <path class="cls-1" d="m357.47,100.84h12c.55,0,1,.45,1,1h0c0,.55-.45,1-1,1h-12c-.55,0-1-.45-1-1h0c0-.55.45-1,1-1Z"/>
    <path class="cls-1" d="m305.52,100.84h12c.55,0,1,.45,1,1h0c0,.55-.45,1-1,1h-12c-.55,0-1-.45-1-1h0c0-.55.45-1,1-1Z"/>
    <circle class="cls-1" cx="188.37" cy="102.36" r="4.84"/>
    <g class="cls-27">
      <rect class="cls-1" x="230.46" y="155.32" width="101.23" height="3.65"/>
      <rect class="cls-1" x="243.26" y="143.22" width="75.63" height="3.7"/>
    </g>
    <path class="cls-1" d="m298.54,195.12h-28.81c-3.3,0-5.98-2.68-5.98-5.98s2.68-5.98,5.98-5.98h28.81c3.3,0,5.98,2.68,5.98,5.98,0,3.3-2.68,5.98-5.98,5.98Zm-28.81-10.96c-2.75,0-4.98,2.23-4.98,4.98s2.23,4.98,4.98,4.98h28.81c2.75,0,4.98-2.23,4.98-4.98s-2.23-4.98-4.98-4.98h-28.81Z"/>
  </g>
</svg>