<svg width="404" height="315" viewBox="0 0 404 315" fill="none" xmlns="http://www.w3.org/2000/svg">
<path d="M331.205 34.2295H62.1648C51.7377 34.2295 43.2848 42.6824 43.2848 53.1095V218.436C43.2848 228.863 51.7377 237.316 62.1648 237.316H331.205C341.632 237.316 350.085 228.863 350.085 218.436V53.1095C350.085 42.6824 341.632 34.2295 331.205 34.2295Z" fill="#D9D9D9"/>
<path d="M341.48 37.2733C341.984 38.9957 342.24 40.7812 342.24 42.5758V207.901C342.24 212.909 340.251 217.711 336.71 221.252C333.169 224.792 328.367 226.781 323.36 226.781H54.3196C50.6718 226.786 47.1015 225.728 44.0447 223.737C45.1921 227.655 47.5779 231.095 50.8446 233.542C54.1112 235.989 58.083 237.312 62.1648 237.313H331.205C336.212 237.313 341.014 235.324 344.555 231.783C348.096 228.243 350.085 223.44 350.085 218.433V53.1094C350.086 49.9613 349.299 46.863 347.796 44.097C346.293 41.3309 344.122 38.9851 341.48 37.2733Z" fill="#00FF84"/>
<path d="M243.042 123.601C238.192 112.732 241.473 92.8239 241.473 92.8239C241.473 92.8239 252.435 91.2503 255.002 95.0541C259.237 101.33 257.306 123.601 243.042 123.601Z" fill="#FFDEC5"/>
<path d="M241.473 92.8239C241.473 92.8239 240.942 96.0444 240.623 100.601C240.623 100.601 249.525 95.1641 256.776 100.601C256.393 98.4955 255.87 96.3403 255.002 95.0541C252.435 91.2503 241.473 92.8239 241.473 92.8239Z" fill="#F9C0B2"/>
<path d="M243.042 125.017C242.768 125.017 242.501 124.938 242.271 124.789C242.042 124.64 241.86 124.428 241.749 124.178C236.783 113.048 239.939 93.4239 240.076 92.5941C240.125 92.2972 240.267 92.0235 240.482 91.8128C240.697 91.6022 240.973 91.4655 241.271 91.4226C243.274 91.1621 245.294 91.0533 247.313 91.0974C251.859 91.2187 254.841 92.2836 256.176 94.2598C257.674 96.4782 258.482 100.238 258.394 104.573C258.3 109.136 257.229 113.567 255.379 117.047C252.606 122.262 248.34 125.017 243.042 125.017ZM242.717 94.097C242.16 98.1505 240.448 113.067 243.971 122.149C247.772 121.851 250.765 119.692 252.876 115.72C255.725 110.36 256.724 100.136 253.828 95.8462C252.517 93.9035 246.873 93.6576 242.717 94.097Z" fill="#171819"/>
<path d="M273.954 237.313H119.416V220.491C119.416 206.492 128.972 193.958 143.407 189.022L196.685 170.808L249.963 189.028C264.398 193.963 273.954 206.498 273.954 220.497V237.313Z" fill="#FFABCD"/>
<path d="M126.174 220.965C126.174 206.966 135.729 194.431 150.165 189.496L200.754 172.197L196.685 170.808L143.407 189.028C128.972 193.963 119.416 206.498 119.416 220.497V237.313H126.174V220.965Z" fill="#FFCAE2"/>
<path d="M249.963 189.024L196.685 170.808L188.84 173.491L234.272 189.026C248.708 193.962 258.263 206.497 258.263 220.495V237.313H273.954V220.491C273.954 206.494 264.398 193.959 249.963 189.024Z" fill="#DD76A5"/>
<path d="M273.954 238.731H119.416C119.04 238.731 118.68 238.582 118.414 238.317C118.149 238.051 118 237.691 118 237.315V220.493C118 205.971 128.026 192.787 142.949 187.684L196.226 169.465C196.524 169.363 196.846 169.363 197.143 169.465L250.421 187.684C265.344 192.787 275.37 205.971 275.37 220.493V237.315C275.37 237.691 275.221 238.051 274.955 238.317C274.69 238.582 274.33 238.731 273.954 238.731ZM120.832 235.899H272.538V220.493C272.538 207.183 263.282 195.075 249.504 190.364L196.685 172.302L143.865 190.364C130.088 195.075 120.832 207.183 120.832 220.493V235.899Z" fill="#171819"/>
<path d="M174.004 156.923V175.254C174.004 187.78 184.159 193.215 196.685 193.215C209.211 193.215 219.365 187.78 219.365 175.254V156.923H174.004Z" fill="#FFDEC5"/>
<path d="M174.004 167.171C181.055 170.657 188.819 172.458 196.685 172.434C204.55 172.458 212.314 170.657 219.365 167.171V156.923H174.006L174.004 167.171Z" fill="#F9C0B2"/>
<path d="M196.685 194.631C181.596 194.631 172.588 187.387 172.588 175.254V156.923C172.588 156.547 172.737 156.187 173.003 155.922C173.269 155.656 173.629 155.507 174.004 155.507H219.363C219.739 155.507 220.099 155.656 220.365 155.922C220.63 156.187 220.779 156.547 220.779 156.923V175.254C220.781 187.387 211.773 194.631 196.685 194.631ZM175.42 158.339V175.254C175.42 180.228 177.492 191.799 196.685 191.799C215.877 191.799 217.949 180.228 217.949 175.254V158.339H175.42Z" fill="#171819"/>
<path d="M331.205 238.732H62.1648C56.7838 238.725 51.625 236.585 47.8201 232.78C44.0152 228.975 41.8749 223.816 41.8688 218.436V53.1095C41.8749 47.7285 44.0152 42.5697 47.8201 38.7648C51.625 34.9599 56.7838 32.8196 62.1648 32.8135H331.205C336.586 32.8196 341.745 34.9599 345.549 38.7648C349.354 42.5697 351.495 47.7285 351.501 53.1095V218.433C351.495 223.815 349.355 228.974 345.55 232.779C341.745 236.585 336.586 238.725 331.205 238.732ZM62.1648 35.6455C57.5346 35.6507 53.0957 37.4924 49.8217 40.7664C46.5477 44.0404 44.706 48.4793 44.7008 53.1095V218.433C44.706 223.063 46.5477 227.502 49.8217 230.776C53.0957 234.05 57.5346 235.892 62.1648 235.897H331.205C335.835 235.892 340.274 234.05 343.548 230.776C346.822 227.502 348.664 223.063 348.669 218.433V53.1095C348.664 48.4793 346.822 44.0404 343.548 40.7664C340.274 37.4924 335.835 35.6507 331.205 35.6455H62.1648Z" fill="#171819"/>
<path d="M378.437 91.1442H307.637C301.378 91.1442 295.375 93.6306 290.949 98.0564C286.523 102.482 284.037 108.485 284.037 114.744C284.037 121.003 286.523 127.006 290.949 131.432C295.375 135.858 301.378 138.344 307.637 138.344H320.821V149.601L332.078 138.344H378.437C384.696 138.344 390.699 135.858 395.125 131.432C399.55 127.006 402.037 121.003 402.037 114.744C402.037 108.485 399.55 102.482 395.125 98.0564C390.699 93.6306 384.696 91.1442 378.437 91.1442Z" fill="#00FF84"/>
<path d="M321.421 137.797C321.421 136.371 320.855 135.005 319.847 133.997C318.84 132.989 317.473 132.423 316.048 132.423H304.082C300.591 132.426 297.143 131.653 293.988 130.161C290.832 128.668 288.048 126.492 285.837 123.792C287.626 128.1 290.651 131.782 294.531 134.372C298.411 136.962 302.972 138.344 307.637 138.344H321.419L321.421 137.797Z" fill="#2A3F4E"/>
<path d="M396.682 99.7756C397.873 102.643 398.485 105.718 398.482 108.823C398.482 115.082 395.995 121.085 391.57 125.511C387.144 129.936 381.141 132.423 374.882 132.423H331.838C330.84 132.423 329.862 132.699 329.011 133.22C328.16 133.741 327.47 134.488 327.016 135.377L321.421 146.347L320.821 149.601L332.078 138.344H378.437C384.696 138.344 390.699 135.858 395.125 131.432C399.55 127.006 402.037 121.003 402.037 114.744C402.045 109.284 400.152 103.992 396.682 99.7756Z" fill="#2A3F4E"/>
<path d="M320.821 122.004C319.327 122.004 317.867 121.561 316.625 120.731C315.383 119.901 314.415 118.722 313.844 117.342C313.272 115.962 313.123 114.443 313.414 112.978C313.705 111.513 314.425 110.168 315.481 109.111C316.537 108.055 317.883 107.336 319.347 107.045C320.812 106.753 322.331 106.903 323.711 107.474C325.091 108.046 326.27 109.014 327.1 110.256C327.93 111.498 328.373 112.958 328.373 114.452C328.37 116.454 327.574 118.373 326.158 119.789C324.742 121.205 322.823 122.001 320.821 122.004ZM320.821 109.732C319.887 109.732 318.975 110.008 318.198 110.527C317.422 111.046 316.817 111.783 316.46 112.645C316.103 113.508 316.009 114.457 316.191 115.372C316.374 116.288 316.823 117.129 317.483 117.789C318.143 118.449 318.984 118.899 319.9 119.081C320.816 119.263 321.765 119.169 322.627 118.812C323.49 118.455 324.227 117.85 324.745 117.074C325.264 116.298 325.541 115.385 325.541 114.452C325.539 113.2 325.042 112 324.157 111.116C323.272 110.231 322.072 109.733 320.821 109.732Z" fill="white"/>
<path d="M343.036 122.004C341.543 122.004 340.083 121.561 338.841 120.731C337.599 119.901 336.631 118.722 336.059 117.342C335.488 115.962 335.338 114.443 335.629 112.978C335.921 111.513 336.64 110.168 337.696 109.111C338.752 108.055 340.098 107.336 341.563 107.045C343.028 106.753 344.546 106.903 345.926 107.474C347.306 108.046 348.486 109.014 349.316 110.256C350.145 111.498 350.588 112.958 350.588 114.452C350.586 116.454 349.79 118.373 348.374 119.789C346.958 121.205 345.039 122.001 343.036 122.004ZM343.036 109.732C342.103 109.732 341.19 110.008 340.414 110.527C339.638 111.046 339.033 111.783 338.676 112.645C338.318 113.508 338.225 114.457 338.407 115.372C338.589 116.288 339.039 117.129 339.699 117.789C340.359 118.449 341.2 118.899 342.116 119.081C343.031 119.263 343.98 119.169 344.843 118.812C345.705 118.455 346.442 117.85 346.961 117.074C347.48 116.298 347.756 115.385 347.756 114.452C347.755 113.2 347.257 112 346.372 111.116C345.487 110.231 344.288 109.733 343.036 109.732Z" fill="white"/>
<path d="M365.741 122.004C364.247 122.004 362.787 121.561 361.545 120.731C360.303 119.901 359.335 118.722 358.763 117.342C358.192 115.962 358.042 114.443 358.334 112.978C358.625 111.513 359.344 110.168 360.401 109.111C361.457 108.055 362.802 107.336 364.267 107.045C365.732 106.753 367.251 106.903 368.631 107.474C370.011 108.046 371.19 109.014 372.02 110.256C372.85 111.498 373.293 112.958 373.293 114.452C373.29 116.454 372.494 118.373 371.078 119.789C369.662 121.205 367.743 122.001 365.741 122.004ZM365.741 109.732C364.807 109.732 363.895 110.008 363.118 110.527C362.342 111.046 361.737 111.783 361.38 112.645C361.023 113.508 360.929 114.457 361.111 115.372C361.293 116.288 361.743 117.129 362.403 117.789C363.063 118.449 363.904 118.899 364.82 119.081C365.735 119.263 366.684 119.169 367.547 118.812C368.409 118.455 369.147 117.85 369.665 117.074C370.184 116.298 370.461 115.385 370.461 114.452C370.459 113.2 369.962 112 369.077 111.116C368.192 110.231 366.992 109.733 365.741 109.732Z" fill="white"/>
<path d="M320.821 151.017C320.445 151.017 320.085 150.868 319.819 150.602C319.554 150.337 319.405 149.976 319.405 149.601V139.76H307.637C301.002 139.76 294.639 137.125 289.948 132.433C285.256 127.742 282.621 121.379 282.621 114.744C282.621 108.109 285.256 101.747 289.948 97.0552C294.639 92.3638 301.002 89.7281 307.637 89.7281H378.437C385.072 89.7281 391.434 92.3638 396.126 97.0552C400.817 101.747 403.453 108.109 403.453 114.744C403.453 121.379 400.817 127.742 396.126 132.433C391.434 137.125 385.072 139.76 378.437 139.76H332.664L321.822 150.602C321.691 150.734 321.534 150.838 321.363 150.909C321.191 150.98 321.007 151.017 320.821 151.017ZM307.637 92.5601C301.753 92.5601 296.111 94.8974 291.95 99.0577C287.79 103.218 285.453 108.861 285.453 114.744C285.453 120.628 287.79 126.27 291.95 130.431C296.111 134.591 301.753 136.928 307.637 136.928H320.821C321.196 136.928 321.556 137.077 321.822 137.343C322.088 137.608 322.237 137.969 322.237 138.344V146.183L331.077 137.344C331.342 137.078 331.702 136.929 332.078 136.929H378.437C384.32 136.929 389.963 134.591 394.123 130.431C398.284 126.271 400.621 120.628 400.621 114.745C400.621 108.861 398.284 103.218 394.123 99.0582C389.963 94.8979 384.32 92.5606 378.437 92.5606L307.637 92.5601Z" fill="#171819"/>
<path d="M25.0155 5.00085H95.8155C102.075 5.00085 108.077 7.48727 112.503 11.9131C116.929 16.339 119.416 22.3417 119.416 28.6009C119.416 34.86 116.929 40.8627 112.503 45.2886C108.077 49.7144 102.075 52.2009 95.8155 52.2009H82.6316V63.4581L71.3749 52.2009H25.0155C18.7564 52.2009 12.7537 49.7144 8.32781 45.2886C3.90195 40.8627 1.41553 34.86 1.41553 28.6009C1.41553 22.3417 3.90195 16.339 8.32781 11.9131C12.7537 7.48727 18.7564 5.00085 25.0155 5.00085Z" fill="#2A3F4E"/>
<path d="M82.0317 51.6534C82.0317 50.9478 82.1707 50.249 82.4407 49.5971C82.7108 48.9452 83.1066 48.3529 83.6055 47.8539C84.1045 47.355 84.6968 46.9592 85.3487 46.6891C86.0006 46.4191 86.6994 46.2801 87.405 46.2801H99.3707C102.861 46.2833 106.309 45.5105 109.465 44.0176C112.62 42.5248 115.404 40.3491 117.616 37.6482C115.827 41.9567 112.801 45.6385 108.921 48.2286C105.041 50.8187 100.481 52.201 95.8156 52.2009H82.0331L82.0317 51.6534Z" fill="#00FF84"/>
<path d="M6.77087 13.6323C5.57957 16.4997 4.96774 19.5746 4.97066 22.6796C4.97066 28.9387 7.45708 34.9415 11.8829 39.3673C16.3088 43.7932 22.3115 46.2796 28.5707 46.2796H71.6142C72.6121 46.2796 73.5905 46.5554 74.4415 47.0766C75.2924 47.5978 75.9827 48.344 76.4362 49.2329L82.0317 60.2036L82.6316 63.4576L71.3749 52.2004H25.0156C18.7564 52.2004 12.7537 49.714 8.32783 45.2881C3.90197 40.8623 1.41555 34.8595 1.41555 28.6004C1.40749 23.1404 3.30102 17.848 6.77087 13.6323Z" fill="#00FF84"/>
<path d="M82.6317 35.8607C81.138 35.8607 79.6779 35.4178 78.436 34.588C77.1941 33.7582 76.2261 32.5787 75.6545 31.1987C75.0829 29.8188 74.9334 28.3003 75.2248 26.8354C75.5162 25.3705 76.2354 24.0248 77.2916 22.9686C78.3478 21.9125 79.6934 21.1932 81.1583 20.9018C82.6233 20.6104 84.1417 20.76 85.5217 21.3316C86.9016 21.9032 88.0811 22.8711 88.9109 24.113C89.7407 25.355 90.1837 26.8151 90.1837 28.3087C90.1813 30.3109 89.3849 32.2304 87.9691 33.6462C86.5533 35.0619 84.6338 35.8583 82.6317 35.8607ZM82.6317 23.5887C81.6981 23.5887 80.7856 23.8655 80.0094 24.3842C79.2332 24.9028 78.6282 25.64 78.2709 26.5024C77.9137 27.3649 77.8202 28.314 78.0024 29.2295C78.1845 30.1451 78.634 30.9862 79.2941 31.6463C79.9542 32.3064 80.7952 32.7559 81.7108 32.938C82.6264 33.1201 83.5755 33.0267 84.4379 32.6694C85.3004 32.3122 86.0376 31.7072 86.5562 30.931C87.0748 30.1548 87.3517 29.2422 87.3517 28.3087C87.3503 27.0573 86.8526 25.8576 85.9677 24.9727C85.0828 24.0878 83.8831 23.5901 82.6317 23.5887Z" fill="white"/>
<path d="M60.4183 35.8607C58.9247 35.8607 57.4646 35.4178 56.2227 34.588C54.9807 33.7582 54.0128 32.5787 53.4412 31.1987C52.8696 29.8188 52.7201 28.3003 53.0114 26.8354C53.3028 25.3705 54.0221 24.0248 55.0783 22.9686C56.1344 21.9125 57.4801 21.1932 58.945 20.9018C60.41 20.6104 61.9284 20.76 63.3084 21.3316C64.6883 21.9032 65.8678 22.8711 66.6976 24.113C67.5274 25.355 67.9703 26.8151 67.9703 28.3087C67.968 30.3109 67.1715 32.2304 65.7558 33.6462C64.34 35.0619 62.4205 35.8583 60.4183 35.8607ZM60.4183 23.5887C59.4848 23.5887 58.5722 23.8655 57.796 24.3842C57.0198 24.9028 56.4149 25.64 56.0576 26.5024C55.7004 27.3649 55.6069 28.314 55.789 29.2295C55.9711 30.1451 56.4207 30.9862 57.0808 31.6463C57.7409 32.3064 58.5819 32.7559 59.4975 32.938C60.4131 33.1201 61.3621 33.0267 62.2246 32.6694C63.0871 32.3122 63.8242 31.7072 64.3429 30.931C64.8615 30.1548 65.1383 29.2422 65.1383 28.3087C65.137 27.0573 64.6392 25.8576 63.7544 24.9727C62.8695 24.0878 61.6697 23.5901 60.4183 23.5887Z" fill="white"/>
<path d="M37.7118 35.8607C36.2182 35.8607 34.7581 35.4178 33.5162 34.588C32.2743 33.7582 31.3063 32.5787 30.7347 31.1987C30.1631 29.8188 30.0136 28.3003 30.305 26.8354C30.5964 25.3705 31.3156 24.0248 32.3718 22.9686C33.4279 21.9125 34.7736 21.1932 36.2385 20.9018C37.7035 20.6104 39.2219 20.76 40.6019 21.3316C41.9818 21.9032 43.1613 22.8711 43.9911 24.113C44.8209 25.355 45.2638 26.8151 45.2638 28.3087C45.2615 30.3109 44.4651 32.2304 43.0493 33.6462C41.6335 35.0619 39.714 35.8583 37.7118 35.8607ZM37.7118 23.5887C36.7783 23.5887 35.8658 23.8655 35.0896 24.3842C34.3134 24.9028 33.7084 25.64 33.3511 26.5024C32.9939 27.3649 32.9004 28.314 33.0825 29.2295C33.2647 30.1451 33.7142 30.9862 34.3743 31.6463C35.0344 32.3064 35.8754 32.7559 36.791 32.938C37.7066 33.1201 38.6557 33.0267 39.5181 32.6694C40.3806 32.3122 41.1177 31.7072 41.6364 30.931C42.155 30.1548 42.4318 29.2422 42.4318 28.3087C42.4305 27.0573 41.9328 25.8576 41.0479 24.9727C40.163 24.0878 38.9632 23.5901 37.7118 23.5887Z" fill="white"/>
<path d="M82.6321 64.874C82.4461 64.8741 82.2619 64.8374 82.09 64.7662C81.9182 64.6951 81.762 64.5907 81.6305 64.4592L70.7887 53.6168H25.016C21.7309 53.6168 18.4779 52.9698 15.4428 51.7126C12.4077 50.4554 9.64997 48.6128 7.32702 46.2898C5.00407 43.9669 3.1614 41.2091 1.90423 38.174C0.647058 35.139 0 31.886 0 28.6008C0 25.3157 0.647058 22.0627 1.90423 19.0276C3.1614 15.9925 5.00407 13.2348 7.32702 10.9119C9.64997 8.5889 12.4077 6.74624 15.4428 5.48907C18.4779 4.23189 21.7309 3.58484 25.016 3.58484H95.816C102.451 3.58484 108.814 6.22044 113.505 10.9119C118.196 15.6033 120.832 21.9662 120.832 28.6008C120.832 35.2355 118.196 41.5984 113.505 46.2898C108.814 50.9812 102.451 53.6168 95.816 53.6168H84.0476V63.458C84.0476 63.8336 83.8984 64.1937 83.6329 64.4593C83.3673 64.7249 83.0072 64.874 82.6316 64.874H82.6321ZM25.016 6.41684C22.1028 6.41684 19.218 6.99064 16.5266 8.10549C13.8351 9.22034 11.3895 10.8544 9.32954 12.9144C7.26957 14.9744 5.63551 17.4199 4.52066 20.1114C3.4058 22.8029 2.832 25.6876 2.832 28.6008C2.832 31.5141 3.4058 34.3988 4.52066 37.0903C5.63551 39.7818 7.26957 42.2273 9.32954 44.2873C11.3895 46.3473 13.8351 47.9813 16.5266 49.0962C19.218 50.211 22.1028 50.7848 25.016 50.7848H71.3749C71.7504 50.7849 72.1105 50.9342 72.376 51.1997L81.2156 60.0393V52.2008C81.2156 51.8253 81.3648 51.4651 81.6304 51.1996C81.8959 50.934 82.2561 50.7848 82.6316 50.7848H95.8184C101.702 50.7848 107.345 48.4476 111.505 44.2873C115.665 40.127 118.002 34.4844 118.002 28.6008C118.002 22.7173 115.665 17.0747 111.505 12.9144C107.345 8.75407 101.702 6.41684 95.8184 6.41684H25.016Z" fill="#171819"/>
<path d="M157.775 313.023C172.724 313.023 184.843 300.904 184.843 285.955C184.843 271.006 172.724 258.887 157.775 258.887C142.826 258.887 130.707 271.006 130.707 285.955C130.707 300.904 142.826 313.023 157.775 313.023Z" fill="#09C690"/>
<path d="M235.595 313.023C250.544 313.023 262.662 300.904 262.662 285.955C262.662 271.006 250.544 258.887 235.595 258.887C220.645 258.887 208.527 271.006 208.527 285.955C208.527 300.904 220.645 313.023 235.595 313.023Z" fill="#FF4F7C"/>
<path d="M235.595 314.438C229.962 314.438 224.454 312.768 219.77 309.638C215.086 306.508 211.435 302.06 209.279 296.855C207.123 291.65 206.559 285.923 207.658 280.398C208.757 274.872 211.47 269.797 215.453 265.813C219.437 261.83 224.512 259.117 230.038 258.018C235.563 256.919 241.29 257.483 246.495 259.639C251.7 261.794 256.148 265.445 259.278 270.129C262.408 274.814 264.078 280.321 264.078 285.954C264.07 293.506 261.066 300.746 255.726 306.086C250.387 311.426 243.147 314.429 235.595 314.438ZM235.595 260.302C230.522 260.302 225.562 261.807 221.344 264.625C217.125 267.444 213.837 271.45 211.896 276.137C209.954 280.825 209.446 285.982 210.436 290.958C211.425 295.934 213.868 300.505 217.456 304.093C221.043 307.68 225.614 310.123 230.59 311.113C235.566 312.103 240.724 311.595 245.411 309.653C250.098 307.712 254.105 304.424 256.923 300.206C259.742 295.987 261.246 291.028 261.246 285.954C261.239 279.154 258.533 272.634 253.725 267.825C248.916 263.016 242.396 260.311 235.595 260.303V260.302Z" fill="#171819"/>
<path d="M235.595 278.875C225.75 278.875 217.895 282.102 217.895 286.267V290.224C217.929 290.962 218.238 291.659 218.762 292.18C219.285 292.7 219.985 293.006 220.722 293.035H226.587C227.058 293.045 227.524 292.933 227.939 292.71C228.354 292.487 228.704 292.161 228.957 291.764C229.209 291.366 229.355 290.91 229.381 290.44C229.406 289.97 229.31 289.501 229.101 289.079C228.816 288.462 228.765 287.763 228.958 287.111C229.15 286.46 229.574 285.901 230.149 285.539C232.767 283.977 238.318 283.873 241.041 285.539C241.639 285.879 242.083 286.437 242.278 287.098C242.474 287.758 242.405 288.468 242.088 289.079C241.88 289.501 241.784 289.97 241.809 290.44C241.834 290.91 241.98 291.366 242.233 291.764C242.485 292.161 242.836 292.487 243.251 292.71C243.666 292.932 244.131 293.045 244.602 293.035H250.467C251.204 293.006 251.904 292.701 252.428 292.18C252.951 291.66 253.261 290.962 253.295 290.224V286.267C253.19 282.206 245.44 278.875 235.595 278.875Z" fill="white"/>
<path d="M159.636 276.515H145.473C144.541 276.518 143.649 276.889 142.99 277.548C142.331 278.206 141.96 279.099 141.957 280.031V291.878C141.96 292.809 142.331 293.702 142.99 294.361C143.649 295.019 144.541 295.391 145.473 295.394H159.638C160.569 295.391 161.462 295.02 162.121 294.361C162.779 293.702 163.151 292.809 163.153 291.878V280.029C163.155 279.567 163.065 279.109 162.889 278.682C162.712 278.255 162.453 277.867 162.126 277.54C161.799 277.213 161.411 276.954 160.984 276.778C160.556 276.603 160.098 276.513 159.636 276.515Z" fill="white"/>
<path d="M170.992 278.448C170.78 278.493 170.577 278.577 170.395 278.694L164.91 281.857V290.013L170.43 293.176C170.669 293.317 170.934 293.409 171.21 293.446C171.485 293.484 171.765 293.466 172.034 293.394C172.302 293.322 172.554 293.197 172.773 293.027C172.993 292.857 173.176 292.644 173.313 292.402C173.497 292.081 173.594 291.718 173.596 291.348V280.487C173.593 280.17 173.518 279.857 173.378 279.572C173.238 279.287 173.035 279.037 172.785 278.841C172.535 278.646 172.244 278.509 171.933 278.44C171.623 278.372 171.301 278.375 170.992 278.448Z" fill="white"/>
<path d="M157.775 314.438C152.141 314.438 146.634 312.767 141.95 309.637C137.266 306.508 133.615 302.059 131.459 296.854C129.303 291.649 128.739 285.922 129.839 280.397C130.938 274.872 133.651 269.796 137.634 265.813C141.618 261.83 146.693 259.117 152.218 258.018C157.744 256.919 163.471 257.483 168.675 259.639C173.88 261.795 178.329 265.445 181.458 270.13C184.588 274.814 186.259 280.321 186.259 285.954C186.25 293.506 183.247 300.746 177.907 306.086C172.567 311.426 165.326 314.43 157.775 314.438ZM157.775 260.302C152.701 260.303 147.742 261.807 143.523 264.626C139.305 267.445 136.017 271.451 134.076 276.138C132.134 280.825 131.626 285.983 132.616 290.959C133.606 295.935 136.049 300.506 139.637 304.093C143.224 307.68 147.795 310.123 152.771 311.113C157.747 312.103 162.904 311.595 167.592 309.653C172.279 307.712 176.285 304.424 179.104 300.206C181.922 295.987 183.427 291.028 183.427 285.954C183.419 279.153 180.714 272.633 175.905 267.824C171.096 263.015 164.575 260.31 157.775 260.303V260.302Z" fill="#171819"/>
<path d="M147.306 67.4337V118.051C147.306 145.323 169.414 166.298 196.685 166.298C223.956 166.298 246.064 145.323 246.064 118.051V67.4337H147.306Z" fill="#FFDEC5"/>
<path d="M196.685 159.213C169.414 159.213 147.306 138.237 147.306 110.966V118.051C147.306 145.323 169.414 166.298 196.685 166.298C223.956 166.298 246.064 145.323 246.064 118.051V110.966C246.064 138.237 223.956 159.213 196.685 159.213Z" fill="#F9C0B2"/>
<path d="M147.306 96.5802C178.596 96.7218 206.937 87.6476 223.846 73.7826C226.656 85.8266 239.363 95.5611 246.064 95.092V67.4337C234.783 67.4337 175.513 69.7328 147.306 67.4337V96.5802Z" fill="#F9C0B2"/>
<path d="M196.685 167.715C183.053 167.715 170.303 162.638 160.783 153.419C156.039 148.837 152.273 143.34 149.713 137.261C147.153 131.182 145.853 124.647 145.89 118.051V67.4337C145.89 67.0582 146.039 66.698 146.305 66.4324C146.57 66.1669 146.93 66.0177 147.306 66.0177H246.064C246.439 66.0177 246.799 66.1669 247.065 66.4324C247.33 66.698 247.48 67.0582 247.48 67.4337V118.051C247.517 124.647 246.216 131.182 243.656 137.261C241.096 143.34 237.33 148.837 232.586 153.419C223.066 162.638 210.316 167.715 196.685 167.715ZM148.722 68.8497V118.051C148.722 144.312 169.79 164.883 196.685 164.883C223.58 164.883 244.648 144.312 244.648 118.051V68.8497H148.722Z" fill="#171819"/>
<path d="M182.077 102.557C181.995 102.557 181.913 102.55 181.832 102.536C176.216 101.553 170.473 101.553 164.857 102.536C164.487 102.6 164.106 102.515 163.799 102.299C163.492 102.083 163.283 101.754 163.219 101.384C163.154 101.014 163.239 100.634 163.455 100.326C163.671 100.019 164 99.8104 164.37 99.7458C170.308 98.7074 176.381 98.7074 182.319 99.7458C182.668 99.8063 182.982 99.9957 183.198 100.276C183.415 100.557 183.518 100.909 183.488 101.262C183.457 101.615 183.296 101.944 183.035 102.184C182.773 102.424 182.432 102.557 182.077 102.557Z" fill="#171819"/>
<path d="M169.625 109.78C172.011 109.78 173.945 107.846 173.945 105.46C173.945 103.074 172.011 101.14 169.625 101.14C167.239 101.14 165.304 103.074 165.304 105.46C165.304 107.846 167.239 109.78 169.625 109.78Z" fill="#171819"/>
<path d="M225.128 102.557C225.045 102.557 224.963 102.55 224.882 102.536C219.266 101.553 213.523 101.553 207.907 102.536C207.537 102.6 207.157 102.515 206.849 102.299C206.542 102.083 206.333 101.754 206.269 101.384C206.204 101.014 206.289 100.634 206.505 100.326C206.721 100.019 207.05 99.8104 207.42 99.7458C213.358 98.707 219.431 98.707 225.369 99.7458C225.718 99.8063 226.032 99.9957 226.248 100.276C226.465 100.557 226.568 100.909 226.538 101.262C226.508 101.615 226.346 101.944 226.085 102.184C225.824 102.424 225.482 102.557 225.128 102.557Z" fill="#171819"/>
<path d="M212.674 109.78C215.06 109.78 216.994 107.846 216.994 105.46C216.994 103.074 215.06 101.14 212.674 101.14C210.288 101.14 208.354 103.074 208.354 105.46C208.354 107.846 210.288 109.78 212.674 109.78Z" fill="#171819"/>
<path d="M200.949 146.767C200.524 146.767 200.265 146.744 200.205 146.739C199.831 146.704 199.487 146.522 199.247 146.232C199.008 145.943 198.893 145.571 198.928 145.197C198.963 144.823 199.145 144.478 199.434 144.238C199.723 143.999 200.096 143.884 200.47 143.919C200.8 143.946 208.555 144.517 214.12 136.019C214.326 135.704 214.648 135.485 215.015 135.408C215.383 135.331 215.766 135.404 216.08 135.61C216.395 135.815 216.614 136.138 216.691 136.505C216.768 136.873 216.695 137.256 216.489 137.57C210.935 146.052 203.346 146.767 200.949 146.767Z" fill="#171819"/>
<path d="M196.071 131.375C191.779 131.375 188.099 128.89 187.319 125.467C187.24 125.102 187.308 124.721 187.508 124.406C187.708 124.091 188.025 123.868 188.389 123.785C188.753 123.702 189.134 123.766 189.451 123.963C189.768 124.16 189.994 124.475 190.081 124.838C190.562 126.95 193.137 128.543 196.071 128.543C199.006 128.543 201.581 126.95 202.062 124.838C202.1 124.654 202.174 124.478 202.281 124.323C202.387 124.167 202.524 124.034 202.682 123.932C202.841 123.83 203.018 123.76 203.204 123.727C203.39 123.695 203.58 123.699 203.764 123.741C203.948 123.783 204.121 123.861 204.275 123.971C204.428 124.081 204.558 124.22 204.656 124.381C204.755 124.542 204.821 124.721 204.849 124.907C204.878 125.093 204.869 125.284 204.823 125.467C204.044 128.89 200.364 131.375 196.071 131.375Z" fill="#171819"/>
<path d="M224.003 7.69592C220.006 16.7679 217.957 26.5777 217.989 36.4912C217.989 65.8638 235.405 90.6008 259.122 98.0566V63.8531C259.124 52.141 255.833 40.6643 249.623 30.7341C243.413 20.8038 234.535 12.8205 224.003 7.69592Z" fill="#637593"/>
<path d="M224.003 7.69592C223.34 9.18681 222.73 10.7114 222.17 12.2696C230.576 17.9933 237.454 25.6857 242.206 34.6765C246.957 43.6674 249.438 53.6838 249.432 63.8531V93.8586C252.51 95.5857 255.757 96.9933 259.122 98.0594V63.8531C259.124 52.141 255.833 40.6643 249.623 30.7341C243.413 20.8038 234.535 12.8205 224.003 7.69592Z" fill="#586B87"/>
<path d="M259.122 99.4731C258.978 99.4731 258.834 99.4509 258.697 99.4075C233.894 91.6105 216.572 65.7383 216.572 36.4899C216.527 26.3768 218.618 16.3683 222.708 7.11919C222.785 6.94548 222.897 6.78911 223.036 6.6594C223.175 6.52968 223.338 6.42928 223.517 6.36418C223.696 6.29908 223.885 6.27061 224.075 6.28047C224.265 6.29033 224.451 6.33832 224.622 6.42158C235.393 11.6622 244.472 19.8267 250.823 29.9823C257.174 40.1379 260.541 51.8751 260.538 63.8531V98.058C260.538 98.4336 260.389 98.7937 260.123 99.0593C259.858 99.3248 259.497 99.474 259.122 99.474V99.4731ZM224.709 9.63495C221.168 18.1442 219.365 27.2754 219.404 36.4917C219.404 63.7814 235.06 87.978 257.706 96.0879V63.8531C257.708 52.6587 254.631 41.6794 248.811 32.1168C242.991 22.5542 234.653 14.7768 224.709 9.63589V9.63495Z" fill="#171819"/>
<path d="M196.685 1.41504C188.485 1.41504 180.366 3.03005 172.791 6.16787C165.216 9.30568 158.333 13.9049 152.535 19.7028C146.737 25.5007 142.138 32.3838 139 39.9591C135.862 47.5345 134.248 55.6536 134.248 63.8531V90.0935C137.971 90.3276 141.741 90.447 145.558 90.4517C195.056 90.4517 237.445 70.3115 255.084 41.7309C250.591 29.8788 242.598 19.6743 232.167 12.4732C221.735 5.2721 209.36 1.41526 196.685 1.41504Z" fill="#637593"/>
<path d="M196.685 1.4151C186.132 1.39986 175.748 4.0721 166.514 9.17997C173.048 7.07058 179.873 5.99903 186.74 6.00436C200.085 6.00451 213.115 10.0652 224.098 17.6469C235.08 25.2287 243.496 35.9726 248.227 48.4513C245.932 52.1457 243.326 55.6369 240.435 58.8868C246.126 53.9102 251.062 48.1305 255.085 41.73C250.591 29.878 242.598 19.6737 232.167 12.4728C221.735 5.27191 209.36 1.41522 196.685 1.4151Z" fill="#586B87"/>
<path d="M145.558 91.8668C141.808 91.8668 137.973 91.7455 134.158 91.5057C133.799 91.483 133.462 91.3242 133.215 91.0617C132.969 90.7992 132.832 90.4526 132.832 90.0925V63.8531C132.832 28.6443 161.476 0 196.685 0C209.647 0.000248028 222.303 3.9444 232.971 11.3085C243.638 18.6726 251.813 29.1081 256.409 41.2287C256.486 41.4316 256.515 41.6495 256.494 41.8654C256.473 42.0814 256.403 42.2897 256.289 42.4743C247.356 56.9482 232.336 69.2674 212.853 78.0985C192.98 87.1057 169.71 91.8668 145.558 91.8668ZM135.664 88.7577C138.98 88.9418 142.302 89.0348 145.558 89.0348C169.31 89.0348 192.176 84.362 211.685 75.5186C230.385 67.0419 244.831 55.317 253.511 41.5818C248.32 28.3448 238.671 17.3355 226.228 10.4546C213.786 3.5737 199.331 1.2531 185.36 3.89342C171.389 6.53373 158.778 13.9693 149.705 24.9163C140.632 35.8633 135.666 49.6348 135.664 63.8531V88.7577Z" fill="#171819"/>
<path d="M179.898 67.5758C179.541 67.5756 179.197 67.4406 178.935 67.1977C178.673 66.9548 178.513 66.6221 178.486 66.266C178.46 65.91 178.568 65.557 178.791 65.2777C179.013 64.9984 179.333 64.8134 179.686 64.7598C195.847 62.2955 218.196 56.6693 232.887 43.8573C233.027 43.7351 233.19 43.6416 233.366 43.5823C233.543 43.523 233.729 43.499 233.914 43.5117C234.1 43.5244 234.281 43.5735 234.448 43.6562C234.614 43.7389 234.763 43.8536 234.885 43.9937C235.007 44.1339 235.101 44.2967 235.16 44.473C235.219 44.6492 235.243 44.8354 235.231 45.021C235.218 45.2065 235.169 45.3877 235.086 45.5543C235.004 45.7208 234.889 45.8695 234.749 45.9917C226.356 53.3077 210.066 62.9927 180.113 67.5593C180.042 67.5703 179.97 67.5758 179.898 67.5758Z" fill="#171819"/>
<path d="M149.888 69.907C148.46 69.907 147.664 69.8848 147.641 69.8843C147.265 69.8733 146.909 69.7134 146.652 69.4401C146.394 69.1667 146.255 68.8021 146.266 68.4266C146.278 68.051 146.437 67.6953 146.711 67.4375C146.984 67.1798 147.349 67.0413 147.724 67.0523C147.792 67.0523 154.573 67.2411 164.461 66.4859C164.835 66.4573 165.206 66.5787 165.491 66.8232C165.776 67.0678 165.952 67.4156 165.981 67.7901C166.009 68.1645 165.888 68.5351 165.643 68.8201C165.399 69.1051 165.051 69.2813 164.677 69.3099C158.003 69.8206 152.711 69.907 149.888 69.907Z" fill="#171819"/>
<path d="M219.21 184.084C212.139 187.918 204.796 188.373 196.685 192.442C188.573 188.373 181.231 187.917 174.159 184.084C173.802 183.89 164.509 183.59 164.504 183.589C165.157 183.55 163.684 189.82 164.803 196.55C165.697 203.278 169.182 210.474 174.549 212.167C174.871 212.241 175.198 212.292 175.528 212.319C182.26 212.989 192.945 196.991 196.685 193.192C200.423 196.991 211.112 212.989 217.842 212.319C218.171 212.292 218.498 212.242 218.82 212.167C224.186 210.471 227.672 203.278 228.567 196.55C229.687 189.817 228.214 183.55 228.866 183.589C228.859 183.59 219.567 183.89 219.21 184.084Z" fill="#DD76A5"/>
<path d="M174.249 178.478L196.685 193.215C196.685 193.215 184.864 209.883 179.096 208.781C171.598 207.347 165.304 181.536 165.304 181.536L174.249 178.478Z" fill="white"/>
<path d="M179.613 210.243C179.35 210.244 179.088 210.22 178.83 210.171C170.673 208.614 164.595 184.604 163.928 181.872C163.845 181.529 163.892 181.166 164.062 180.856C164.232 180.546 164.512 180.311 164.846 180.196L173.79 177.138C173.995 177.068 174.212 177.046 174.426 177.073C174.641 177.1 174.846 177.176 175.026 177.294L197.462 192.031C197.621 192.135 197.757 192.271 197.863 192.429C197.968 192.587 198.041 192.765 198.076 192.952C198.111 193.139 198.109 193.331 198.068 193.517C198.027 193.703 197.95 193.878 197.84 194.034C195.861 196.825 186.008 210.243 179.613 210.243ZM167.003 182.452C167.583 184.637 168.913 189.37 170.721 194.143C174.996 205.423 178.188 207.166 179.362 207.39C180.03 207.518 182.683 207.39 189.007 200.457C191.42 197.813 193.532 195.086 194.66 193.58L174.051 180.042L167.003 182.452Z" fill="#171819"/>
<path d="M219.121 178.478L196.685 193.215C196.685 193.215 208.506 209.883 214.273 208.781C221.772 207.347 228.066 181.536 228.066 181.536L219.121 178.478Z" fill="white"/>
<path d="M213.757 210.243C207.362 210.243 197.509 196.825 195.53 194.034C195.42 193.878 195.342 193.703 195.301 193.517C195.261 193.331 195.258 193.139 195.293 192.952C195.329 192.765 195.401 192.587 195.507 192.429C195.612 192.271 195.748 192.135 195.907 192.031L218.343 177.294C218.524 177.176 218.729 177.1 218.943 177.073C219.157 177.046 219.375 177.068 219.579 177.138L228.524 180.196C228.858 180.311 229.138 180.546 229.307 180.856C229.477 181.166 229.525 181.529 229.441 181.872C228.775 184.604 222.696 208.612 214.539 210.171C214.281 210.22 214.019 210.244 213.757 210.243ZM198.7 193.584C203.467 200.035 210.84 207.991 214.006 207.39C215.181 207.165 218.376 205.422 222.656 194.12C224.462 189.35 225.786 184.632 226.366 182.452L219.317 180.042L198.7 193.584Z" fill="#171819"/>
<path d="M196.685 224.628C196.309 224.628 195.949 224.479 195.684 224.213C195.418 223.948 195.269 223.588 195.269 223.212V193.215C195.269 192.839 195.418 192.479 195.684 192.213C195.949 191.948 196.309 191.799 196.685 191.799C197.06 191.799 197.421 191.948 197.686 192.213C197.952 192.479 198.101 192.839 198.101 193.215V223.212C198.101 223.588 197.952 223.948 197.686 224.213C197.421 224.479 197.06 224.628 196.685 224.628Z" fill="#171819"/>
</svg>
