<svg aria-hidden="true" style="position: absolute; width: 0; height: 0; overflow: hidden;" version="1.1" xmlns="http://www.w3.org/2000/svg" xmlns:xlink="http://www.w3.org/1999/xlink">
<defs>
<symbol viewBox="0 0 24 24" id="facebook"><path fill="none" stroke="currentColor" stroke-linecap="round" stroke-linejoin="round" stroke-width="1.5" d="M17 2h-3a5 5 0 0 0-5 5v3H6v4h3v8h4v-8h3l1-4h-4V7a1 1 0 0 1 1-1h3V2Z"></path></symbol>
<symbol viewBox="0 0 24 24" id="twitter"><path fill="none" stroke="currentColor" stroke-linecap="round" stroke-linejoin="round" stroke-width="1.5" d="M23 3.01s-2.018 1.192-3.14 1.53a4.48 4.48 0 0 0-7.86 3v1a10.66 10.66 0 0 1-9-4.53s-4 9 5 13a11.64 11.64 0 0 1-7 2c9 5 20 0 20-11.5c0-.278-.028-.556-.08-.83C21.94 5.674 23 3.01 23 3.01Z"></path></symbol>
<symbol viewBox="0 0 24 24" id="linkedin"><g fill="none" stroke="currentColor" stroke-linecap="round" stroke-linejoin="round" stroke-width="1.5"><path d="M21 8v8a5 5 0 0 1-5 5H8a5 5 0 0 1-5-5V8a5 5 0 0 1 5-5h8a5 5 0 0 1 5 5ZM7 17v-7"></path><path d="M11 17v-3.25M11 10v3.75m0 0c0-3.75 6-3.75 6 0V17M7 7.01l.01-.011"></path></g></symbol>
<symbol viewBox="0 0 24 24" id="github"><g fill="none" stroke="currentColor" stroke-linecap="round" stroke-linejoin="round" stroke-width="1.5"><path d="M16 22.027v-2.87a3.37 3.37 0 0 0-.94-2.61c3.14-.35 6.44-1.54 6.44-7a5.44 5.44 0 0 0-1.5-3.75a5.07 5.07 0 0 0-.09-3.77s-1.18-.35-3.91 1.48a13.38 13.38 0 0 0-7 0c-2.73-1.83-3.91-1.48-3.91-1.48A5.07 5.07 0 0 0 5 5.797a5.44 5.44 0 0 0-1.5 3.78c0 5.42 3.3 6.61 6.44 7a3.37 3.37 0 0 0-.94 2.58v2.87"></path><path d="M9 20.027c-3 .973-5.5 0-7-3"></path></g></symbol>
<symbol viewBox="0 0 24 24" id="dark-mode"><path fill="none" stroke="currentColor" stroke-linecap="round" stroke-linejoin="round" stroke-width="1.5" d="M12 21a9 9 0 0 0 8.997-9.252a7 7 0 0 1-10.371-8.643A9 9 0 0 0 12 21Z"></path></symbol>
<symbol viewBox="0 0 24 24" id="light-mode"><g fill="none" stroke="currentColor" stroke-width="2"><circle cx="12" cy="12" r="4" stroke-linejoin="round"></circle><path stroke-linecap="round" d="M20 12h1M3 12h1m8 8v1m0-18v1m5.657 13.657l.707.707M5.636 5.636l.707.707m0 11.314l-.707.707M18.364 5.636l-.707.707"></path></g></symbol>
<symbol viewBox="0 0 24 24" id="spinner"><rect width="10" height="10" x="1" y="1" fill="#888888" rx="1"><animate id="svgSpinnersBlocksShuffle20" fill="freeze" attributeName="x" begin="0;svgSpinnersBlocksShuffle27.end" dur="0.2s" values="1;13"></animate><animate id="svgSpinnersBlocksShuffle21" fill="freeze" attributeName="y" begin="svgSpinnersBlocksShuffle24.end" dur="0.2s" values="1;13"></animate><animate id="svgSpinnersBlocksShuffle22" fill="freeze" attributeName="x" begin="svgSpinnersBlocksShuffle25.end" dur="0.2s" values="13;1"></animate><animate id="svgSpinnersBlocksShuffle23" fill="freeze" attributeName="y" begin="svgSpinnersBlocksShuffle26.end" dur="0.2s" values="13;1"></animate></rect><rect width="10" height="10" x="1" y="13" fill="#888888" rx="1"><animate id="svgSpinnersBlocksShuffle24" fill="freeze" attributeName="y" begin="svgSpinnersBlocksShuffle20.end" dur="0.2s" values="13;1"></animate><animate id="svgSpinnersBlocksShuffle25" fill="freeze" attributeName="x" begin="svgSpinnersBlocksShuffle21.end" dur="0.2s" values="1;13"></animate><animate id="svgSpinnersBlocksShuffle26" fill="freeze" attributeName="y" begin="svgSpinnersBlocksShuffle22.end" dur="0.2s" values="1;13"></animate><animate id="svgSpinnersBlocksShuffle27" fill="freeze" attributeName="x" begin="svgSpinnersBlocksShuffle23.end" dur="0.2s" values="13;1"></animate></rect></symbol>
<symbol viewBox="0 0 24 24" id="external-link"><path fill="none" stroke="currentColor" stroke-linecap="round" stroke-linejoin="round" stroke-width="1.5" d="M11 4H4v14a2 2 0 0 0 2 2h12a2 2 0 0 0 2-2v-5M9 15L20 4m-5 0h5v5"></path></symbol>
<symbol viewBox="0 0 24 24" id="html5"><path fill="currentColor" d="M1.5 0h21l-1.91 21.563L11.977 24l-8.564-2.438L1.5 0zm7.031 9.75l-.232-2.718l10.059.003l.23-2.622L5.412 4.41l.698 8.01h9.126l-.326 3.426l-2.91.804l-2.955-.81l-.188-2.11H6.248l.33 4.171L12 19.351l5.379-1.443l.744-8.157H8.531z"></path></symbol>
<symbol viewBox="0 0 24 24" id="css3"><path fill="currentColor" d="M1.5 0h21l-1.91 21.563L11.977 24l-8.565-2.438L1.5 0zm17.09 4.413L5.41 4.41l.213 2.622l10.125.002l-.255 2.716h-6.64l.24 2.573h6.182l-.366 3.523l-2.91.804l-2.956-.81l-.188-2.11h-2.61l.29 3.855L12 19.288l5.373-1.53L18.59 4.414z"></path></symbol>
<symbol viewBox="0 0 24 24" id="tailwind"><path fill="currentColor" d="M12.001 4.8c-3.2 0-5.2 1.6-6 4.8c1.2-1.6 2.6-2.2 4.2-1.8c.913.228 1.565.89 2.288 1.624C13.666 10.618 15.027 12 18.001 12c3.2 0 5.2-1.6 6-4.8c-1.2 1.6-2.6 2.2-4.2 1.8c-.913-.228-1.565-.89-2.288-1.624C16.337 6.182 14.976 4.8 12.001 4.8zm-6 7.2c-3.2 0-5.2 1.6-6 4.8c1.2-1.6 2.6-2.2 4.2-1.8c.913.228 1.565.89 2.288 1.624c1.177 1.194 2.538 2.576 5.512 2.576c3.2 0 5.2-1.6 6-4.8c-1.2 1.6-2.6 2.2-4.2 1.8c-.913-.228-1.565-.89-2.288-1.624C10.337 13.382 8.976 12 6.001 12z"></path></symbol>
<symbol viewBox="0 0 24 24" id="react"><path fill="currentColor" d="M14.23 12.004a2.236 2.236 0 0 1-2.235 2.236a2.236 2.236 0 0 1-2.236-2.236a2.236 2.236 0 0 1 2.235-2.236a2.236 2.236 0 0 1 2.236 2.236zm2.648-10.69c-1.346 0-3.107.96-4.888 2.622c-1.78-1.653-3.542-2.602-4.887-2.602c-.41 0-.783.093-1.106.278c-1.375.793-1.683 3.264-.973 6.365C1.98 8.917 0 10.42 0 12.004c0 1.59 1.99 3.097 5.043 4.03c-.704 3.113-.39 5.588.988 6.38c.32.187.69.275 1.102.275c1.345 0 3.107-.96 4.888-2.624c1.78 1.654 3.542 2.603 4.887 2.603c.41 0 .783-.09 1.106-.275c1.374-.792 1.683-3.263.973-6.365C22.02 15.096 24 13.59 24 12.004c0-1.59-1.99-3.097-5.043-4.032c.704-3.11.39-5.587-.988-6.38a2.167 2.167 0 0 0-1.092-.278zm-.005 1.09v.006c.225 0 .406.044.558.127c.666.382.955 1.835.73 3.704c-.054.46-.142.945-.25 1.44a23.476 23.476 0 0 0-3.107-.534A23.892 23.892 0 0 0 12.769 4.7c1.592-1.48 3.087-2.292 4.105-2.295zm-9.77.02c1.012 0 2.514.808 4.11 2.28c-.686.72-1.37 1.537-2.02 2.442a22.73 22.73 0 0 0-3.113.538a15.02 15.02 0 0 1-.254-1.42c-.23-1.868.054-3.32.714-3.707c.19-.09.4-.127.563-.132zm4.882 3.05c.455.468.91.992 1.36 1.564c-.44-.02-.89-.034-1.345-.034c-.46 0-.915.01-1.36.034c.44-.572.895-1.096 1.345-1.565zM12 8.1c.74 0 1.477.034 2.202.093c.406.582.802 1.203 1.183 1.86c.372.64.71 1.29 1.018 1.946c-.308.655-.646 1.31-1.013 1.95c-.38.66-.773 1.288-1.18 1.87a25.64 25.64 0 0 1-4.412.005a26.64 26.64 0 0 1-1.183-1.86c-.372-.64-.71-1.29-1.018-1.946a25.17 25.17 0 0 1 1.013-1.954c.38-.66.773-1.286 1.18-1.868A25.245 25.245 0 0 1 12 8.098zm-3.635.254c-.24.377-.48.763-.704 1.16c-.225.39-.435.782-.635 1.174c-.265-.656-.49-1.31-.676-1.947c.64-.15 1.315-.283 2.015-.386zm7.26 0c.695.103 1.365.23 2.006.387c-.18.632-.405 1.282-.66 1.933a25.952 25.952 0 0 0-1.345-2.32zm3.063.675c.484.15.944.317 1.375.498c1.732.74 2.852 1.708 2.852 2.476c-.005.768-1.125 1.74-2.857 2.475c-.42.18-.88.342-1.355.493a23.966 23.966 0 0 0-1.1-2.98c.45-1.017.81-2.01 1.085-2.964zm-13.395.004c.278.96.645 1.957 1.1 2.98a23.142 23.142 0 0 0-1.086 2.964c-.484-.15-.944-.318-1.37-.5c-1.732-.737-2.852-1.706-2.852-2.474c0-.768 1.12-1.742 2.852-2.476c.42-.18.88-.342 1.356-.494zm11.678 4.28c.265.657.49 1.312.676 1.948c-.64.157-1.316.29-2.016.39a25.819 25.819 0 0 0 1.341-2.338zm-9.945.02c.2.392.41.783.64 1.175c.23.39.465.772.705 1.143a22.005 22.005 0 0 1-2.006-.386c.18-.63.406-1.282.66-1.933zM17.92 16.32c.112.493.2.968.254 1.423c.23 1.868-.054 3.32-.714 3.708c-.147.09-.338.128-.563.128c-1.012 0-2.514-.807-4.11-2.28c.686-.72 1.37-1.536 2.02-2.44c1.107-.118 2.154-.3 3.113-.54zm-11.83.01c.96.234 2.006.415 3.107.532c.66.905 1.345 1.727 2.035 2.446c-1.595 1.483-3.092 2.295-4.11 2.295a1.185 1.185 0 0 1-.553-.132c-.666-.38-.955-1.834-.73-3.703c.054-.46.142-.944.25-1.438zm4.56.64c.44.02.89.034 1.345.034c.46 0 .915-.01 1.36-.034c-.44.572-.895 1.095-1.345 1.565c-.455-.47-.91-.993-1.36-1.565z"></path></symbol>
<symbol viewBox="0 0 24 24" id="javascript"><path fill="currentColor" d="M0 0h24v24H0V0zm22.034 18.276c-.175-1.095-.888-2.015-3.003-2.873c-.736-.345-1.554-.585-1.797-1.14c-.091-.33-.105-.51-.046-.705c.15-.646.915-.84 1.515-.66c.39.12.75.42.976.9c1.034-.676 1.034-.676 1.755-1.125c-.27-.42-.404-.601-.586-.78c-.63-.705-1.469-1.065-2.834-1.034l-.705.089c-.676.165-1.32.525-1.71 1.005c-1.14 1.291-.811 3.541.569 4.471c1.365 1.02 3.361 1.244 3.616 2.205c.24 1.17-.87 1.545-1.966 1.41c-.811-.18-1.26-.586-1.755-1.336l-1.83 1.051c.21.48.45.689.81 1.109c1.74 1.756 6.09 1.666 6.871-1.004c.029-.09.24-.705.074-1.65l.046.067zm-8.983-7.245h-2.248c0 1.938-.009 3.864-.009 5.805c0 1.232.063 2.363-.138 2.711c-.33.689-1.18.601-1.566.48c-.396-.196-.597-.466-.83-.855c-.063-.105-.11-.196-.127-.196l-1.825 1.125c.305.63.75 1.172 1.324 1.517c.855.51 2.004.675 3.207.405c.783-.226 1.458-.691 1.811-1.411c.51-.93.402-2.07.397-3.346c.012-2.054 0-4.109 0-6.179l.004-.056z"></path></symbol>
<symbol viewBox="0 0 24 24" id="redux"><path fill="currentColor" d="M16.634 16.504c.87-.075 1.543-.84 1.5-1.754c-.047-.914-.796-1.648-1.709-1.648h-.061a1.71 1.71 0 0 0-1.648 1.769c.03.479.226.869.494 1.153c-1.048 2.038-2.621 3.536-5.005 4.795c-1.603.838-3.296 1.154-4.944.93c-1.378-.195-2.456-.81-3.116-1.799c-.988-1.499-1.078-3.116-.255-4.734c.6-1.17 1.499-2.023 2.099-2.443a9.96 9.96 0 0 1-.42-1.543C-.868 14.408-.416 18.752.932 20.805c1.004 1.498 3.057 2.456 5.304 2.456c.6 0 1.23-.044 1.843-.194c3.897-.749 6.848-3.086 8.541-6.532zm5.348-3.746c-2.32-2.728-5.738-4.226-9.634-4.226h-.51c-.253-.554-.837-.899-1.498-.899h-.045c-.943 0-1.678.81-1.647 1.753c.03.898.794 1.648 1.708 1.648h.074a1.69 1.69 0 0 0 1.499-1.049h.555c2.309 0 4.495.674 6.488 1.992c1.527 1.005 2.622 2.323 3.237 3.897c.538 1.288.509 2.547-.045 3.597c-.855 1.647-2.294 2.517-4.196 2.517c-1.199 0-2.367-.375-2.967-.644c-.36.298-.96.793-1.394 1.093c1.318.598 2.652.943 3.94.943c2.922 0 5.094-1.647 5.919-3.236c.898-1.798.824-4.824-1.47-7.416zM6.49 17.042c.03.899.793 1.648 1.708 1.648h.06a1.688 1.688 0 0 0 1.648-1.768c0-.9-.779-1.647-1.693-1.647h-.06c-.06 0-.15 0-.226.029c-1.243-2.098-1.768-4.347-1.572-6.772c.12-1.828.72-3.417 1.797-4.735c.9-1.124 2.593-1.68 3.747-1.708c3.236-.061 4.585 3.971 4.689 5.574l1.498.45C17.741 3.197 14.686.62 11.764.62C9.02.62 6.49 2.613 5.47 5.535C4.077 9.43 4.991 13.177 6.7 16.174c-.15.195-.24.539-.21.868z"></path></symbol>
<symbol viewBox="0 0 24 24" id="react-query"><path fill="currentColor" d="M6.93 13.688a.343.343 0 0 1 .468.132l.063.106c.48.851.98 1.66 1.5 2.426a35.65 35.65 0 0 0 2.074 2.742a.345.345 0 0 1-.039.484l-.074.066c-2.543 2.223-4.191 2.665-4.953 1.333c-.746-1.305-.477-3.672.808-7.11a.344.344 0 0 1 .153-.18ZM17.75 16.3a.34.34 0 0 1 .395.27l.02.1c.628 3.286.187 4.93-1.325 4.93c-1.48 0-3.36-1.402-5.649-4.203a.327.327 0 0 1-.074-.222c0-.188.156-.34.344-.34h.121a32.984 32.984 0 0 0 2.809-.098c1.07-.086 2.191-.23 3.359-.437zm.871-6.977a.353.353 0 0 1 .445-.21l.102.034c3.262 1.11 4.504 2.332 3.719 3.664c-.766 1.305-2.993 2.254-6.684 2.848a.362.362 0 0 1-.238-.047a.343.343 0 0 1-.125-.476l.062-.106a34.07 34.07 0 0 0 1.367-2.523c.477-.989.93-2.051 1.352-3.184zM7.797 8.34a.362.362 0 0 1 .238.047a.343.343 0 0 1 .125.476l-.062.106a34.088 34.088 0 0 0-1.367 2.523c-.477.988-.93 2.051-1.352 3.184a.353.353 0 0 1-.445.21l-.102-.034C1.57 13.742.328 12.52 1.113 11.188C1.88 9.883 4.106 8.934 7.797 8.34Zm5.281-3.984c2.543-2.223 4.192-2.664 4.953-1.332c.746 1.304.477 3.671-.808 7.109a.344.344 0 0 1-.153.18a.343.343 0 0 1-.468-.133l-.063-.106a34.64 34.64 0 0 0-1.5-2.426a35.65 35.65 0 0 0-2.074-2.742a.345.345 0 0 1 .039-.484ZM7.285 2.274c1.48 0 3.364 1.402 5.649 4.203a.349.349 0 0 1 .078.218a.348.348 0 0 1-.348.344l-.117-.004a34.584 34.584 0 0 0-2.809.102a35.54 35.54 0 0 0-3.363.437a.343.343 0 0 1-.394-.273l-.02-.098c-.629-3.285-.188-4.93 1.324-4.93Zm2.871 5.812h3.688a.638.638 0 0 1 .55.316l1.848 3.22a.644.644 0 0 1 0 .628l-1.847 3.223a.638.638 0 0 1-.551.316h-3.688a.627.627 0 0 1-.547-.316L7.758 12.25a.644.644 0 0 1 0-.629L9.61 8.402a.627.627 0 0 1 .546-.316Zm3.23.793a.638.638 0 0 1 .552.316l1.39 2.426a.644.644 0 0 1 0 .629l-1.39 2.43a.638.638 0 0 1-.551.316h-2.774a.627.627 0 0 1-.546-.316l-1.395-2.43a.644.644 0 0 1 0-.629l1.395-2.426a.627.627 0 0 1 .546-.316Zm-.491.867h-1.79a.624.624 0 0 0-.546.316l-.899 1.56a.644.644 0 0 0 0 .628l.899 1.563a.632.632 0 0 0 .547.316h1.789a.632.632 0 0 0 .547-.316l.898-1.563a.644.644 0 0 0 0-.629l-.898-1.558a.624.624 0 0 0-.547-.317Zm-.477.828c.227 0 .438.121.547.317l.422.73a.625.625 0 0 1 0 .629l-.422.734a.627.627 0 0 1-.547.317h-.836a.632.632 0 0 1-.547-.317l-.422-.734a.625.625 0 0 1 0-.629l.422-.73a.632.632 0 0 1 .547-.317zm-.418.817a.548.548 0 0 0-.473.273a.547.547 0 0 0 0 .547a.544.544 0 0 0 .473.27a.544.544 0 0 0 .473-.27a.547.547 0 0 0 0-.547a.548.548 0 0 0-.473-.273Zm-4.422.546h.98M18.98 7.75c.391-1.895.477-3.344.223-4.398c-.148-.63-.422-1.137-.84-1.508c-.441-.39-1-.582-1.625-.582c-1.035 0-2.12.472-3.281 1.367a14.9 14.9 0 0 0-1.473 1.316a1.206 1.206 0 0 0-.136-.144c-1.446-1.285-2.66-2.082-3.7-2.39c-.617-.184-1.195-.2-1.722-.024c-.559.187-1.004.574-1.317 1.117c-.515.894-.652 2.074-.46 3.527c.078.59.214 1.235.402 1.934a1.119 1.119 0 0 0-.215.047C3.008 8.62 1.71 9.269.926 10.015c-.465.442-.77.938-.883 1.481c-.113.578 0 1.156.312 1.7c.516.894 1.465 1.597 2.817 2.155a15.21 15.21 0 0 0 1.844.61a1.023 1.023 0 0 0-.07.226c-.391 1.891-.477 3.344-.223 4.395c.148.629.425 1.14.84 1.508c.44.39 1 .582 1.625.582c1.035 0 2.12-.473 3.28-1.364c.477-.37.973-.816 1.489-1.336a1.2 1.2 0 0 0 .195.227c1.446 1.285 2.66 2.082 3.7 2.39c.617.184 1.195.2 1.722.024c.559-.187 1.004-.574 1.317-1.117c.515-.894.652-2.074.46-3.527a14.941 14.941 0 0 0-.425-2.012a1.225 1.225 0 0 0 .238-.047c1.828-.61 3.125-1.258 3.91-2.004c.465-.441.77-.937.883-1.48c.113-.578 0-1.157-.313-1.7c-.515-.894-1.464-1.597-2.816-2.156a14.576 14.576 0 0 0-1.906-.625a.865.865 0 0 0 .059-.195z"></path></symbol>
<symbol viewBox="0 0 24 24" id="react-router"><path fill="currentColor" d="M12.118 5.466a2.306 2.306 0 0 0-.623.08c-.278.067-.702.332-.953.583c-.41.423-.49.609-.662 1.469c-.08.423.41 1.43.847 1.734c.45.317 1.085.502 2.065.608c1.429.16 1.84.636 1.84 2.197c0 1.377-.385 1.747-1.96 1.906c-1.707.172-2.58.834-2.765 2.117c-.106.781.41 1.76 1.125 2.091c1.627.768 3.15-.198 3.467-2.196c.211-1.284.622-1.642 1.998-1.747c1.588-.133 2.409-.675 2.713-1.787c.278-1.02-.304-2.157-1.297-2.554c-.264-.106-.873-.238-1.35-.291c-1.495-.16-1.879-.424-2.038-1.39c-.225-1.337-.317-1.562-.794-2.09a2.174 2.174 0 0 0-1.613-.73zm-4.785 4.36a2.145 2.145 0 0 0-.497.048c-1.469.318-2.17 2.051-1.35 3.295c1.178 1.774 3.944.953 3.97-1.177c.012-1.193-.98-2.143-2.123-2.166zM2.089 14.19a2.22 2.22 0 0 0-.427.052c-2.158.476-2.237 3.626-.106 4.182c.53.145.582.145 1.111.013c1.191-.318 1.866-1.456 1.549-2.607c-.278-1.02-1.144-1.664-2.127-1.64zm19.824.008c-.233.002-.477.058-.784.162c-1.39.477-1.866 2.092-.98 3.336c.557.794 1.96 1.058 2.82.516c1.416-.874 1.363-3.057-.093-3.746c-.38-.186-.663-.271-.963-.268z"></path></symbol>
<symbol viewBox="0 0 24 24" id="framer-motion"><g fill="none" stroke="currentColor" stroke-linecap="round" stroke-linejoin="round" stroke-width="2"><path d="M12 12L4 4v16L20 4v16l-4-4"></path><path d="m20 12l-8 8l-4-4"></path></g></symbol>
<symbol viewBox="0 0 24 24" id="typescript"><path fill="currentColor" d="M1.125 0C.502 0 0 .502 0 1.125v21.75C0 23.498.502 24 1.125 24h21.75c.623 0 1.125-.502 1.125-1.125V1.125C24 .502 23.498 0 22.875 0zm17.363 9.75c.612 0 1.154.037 1.627.111a6.38 6.38 0 0 1 1.306.34v2.458a3.95 3.95 0 0 0-.643-.361a5.093 5.093 0 0 0-.717-.26a5.453 5.453 0 0 0-1.426-.2c-.3 0-.573.028-.819.086a2.1 2.1 0 0 0-.623.242c-.17.104-.3.229-.393.374a.888.888 0 0 0-.14.49c0 .196.053.373.156.529c.104.156.252.304.443.444s.423.276.696.41c.273.135.582.274.926.416c.47.197.892.407 1.266.628c.374.222.695.473.963.753c.268.279.472.598.614.957c.142.359.214.776.214 1.253c0 .657-.125 1.21-.373 1.656a3.033 3.033 0 0 1-1.012 1.085a4.38 4.38 0 0 1-1.487.596c-.566.12-1.163.18-1.79.18a9.916 9.916 0 0 1-1.84-.164a5.544 5.544 0 0 1-1.512-.493v-2.63a5.033 5.033 0 0 0 3.237 1.2c.333 0 .624-.03.872-.09c.249-.06.456-.144.623-.25c.166-.108.29-.234.373-.38a1.023 1.023 0 0 0-.074-1.089a2.12 2.12 0 0 0-.537-.5a5.597 5.597 0 0 0-.807-.444a27.72 27.72 0 0 0-1.007-.436c-.918-.383-1.602-.852-2.053-1.405c-.45-.553-.676-1.222-.676-2.005c0-.614.123-1.141.369-1.582c.246-.441.58-.804 1.004-1.089a4.494 4.494 0 0 1 1.47-.629a7.536 7.536 0 0 1 1.77-.201zm-15.113.188h9.563v2.166H9.506v9.646H6.789v-9.646H3.375z"></path></symbol>
<symbol viewBox="0 0 24 24" id="next"><path fill="currentColor" d="M11.572 0c-.176 0-.31.001-.358.007a19.76 19.76 0 0 1-.364.033c-3.407.306-6.6 2.145-8.622 4.972a11.875 11.875 0 0 0-2.119 5.243c-.096.659-.108.854-.108 1.747s.012 1.089.108 1.748c.652 4.506 3.86 8.292 8.209 9.695c.779.25 1.6.422 2.534.525c.363.04 1.935.04 2.299 0c1.611-.178 2.977-.577 4.323-1.264c.207-.106.247-.134.219-.158c-.02-.013-.9-1.193-1.955-2.62l-1.919-2.592l-2.404-3.558a338.739 338.739 0 0 0-2.422-3.556c-.009-.002-.018 1.579-.023 3.51c-.007 3.38-.01 3.515-.052 3.595a.426.426 0 0 1-.206.214c-.075.037-.14.044-.495.044H7.81l-.108-.068a.438.438 0 0 1-.157-.171l-.05-.106l.006-4.703l.007-4.705l.072-.092a.645.645 0 0 1 .174-.143c.096-.047.134-.051.54-.051c.478 0 .558.018.682.154a466.83 466.83 0 0 1 2.895 4.361a10760.433 10760.433 0 0 0 4.735 7.17l1.9 2.879l.096-.063a12.317 12.317 0 0 0 2.466-2.163a11.944 11.944 0 0 0 2.824-6.134c.096-.66.108-.854.108-1.748c0-.893-.012-1.088-.108-1.747c-.652-4.506-3.859-8.292-8.208-9.695a12.597 12.597 0 0 0-2.499-.523A33.119 33.119 0 0 0 11.573 0zm4.069 7.217c.347 0 .408.005.486.047a.473.473 0 0 1 .237.277c.018.06.023 1.365.018 4.304l-.006 4.218l-.744-1.14l-.746-1.14v-3.066c0-1.982.01-3.097.023-3.15a.478.478 0 0 1 .233-.296c.096-.05.13-.054.5-.054z"></path></symbol>
<symbol viewBox="0 0 24 24" id="firebase"><path fill="currentColor" d="M3.89 15.672L6.255.461A.542.542 0 0 1 7.27.288l2.543 4.771zm16.794 3.692l-2.25-14a.54.54 0 0 0-.919-.295L3.316 19.365l7.856 4.427a1.621 1.621 0 0 0 1.588 0zM14.3 7.147l-1.82-3.482a.542.542 0 0 0-.96 0L3.53 17.984z"></path></symbol> 
<symbol viewBox="0 0 24 24" id="d3"><path fill="currentColor" d="M13.312 12C13.312 5.718 8.22.625 1.937.625H0v5h1.938a6.375 6.375 0 1 1 0 12.75H0v5h1.938c6.281 0 11.374-5.093 11.374-11.375zM24 7.563A6.938 6.938 0 0 0 17.062.625h-8a13.415 13.415 0 0 1 4.686 5h3.314a1.94 1.94 0 0 1 0 3.876h-1.938a13.43 13.43 0 0 1 0 5h1.938a1.94 1.94 0 0 1 0 3.876h-3.314a13.415 13.415 0 0 1-4.686 5h8a6.939 6.939 0 0 0 5.333-11.375A6.946 6.946 0 0 0 24 7.563z"></path></symbol>
<symbol viewBox="0 0 128 128" id="astro"><path fill="currentColor" d="M81.504 9.465c.973 1.207 1.469 2.836 2.457 6.09l21.656 71.136a90.079 90.079 0 0 0-25.89-8.765L65.629 30.28a1.833 1.833 0 0 0-3.52.004L48.18 77.902a90.104 90.104 0 0 0-26.003 8.778l21.758-71.14c.996-3.25 1.492-4.876 2.464-6.083a8.023 8.023 0 0 1 3.243-2.398c1.433-.575 3.136-.575 6.535-.575H71.72c3.402 0 5.105 0 6.543.579a7.988 7.988 0 0 1 3.242 2.402Zm2.59 80.61c-3.57 3.054-10.696 5.136-18.903 5.136c-10.07 0-18.515-3.137-20.754-7.356c-.8 2.418-.98 5.184-.98 6.954c0 0-.527 8.675 5.508 14.71a5.671 5.671 0 0 1 5.672-5.671c5.37 0 5.367 4.683 5.363 8.488v.336c0 5.773 3.527 10.719 8.543 12.805a11.62 11.62 0 0 1-1.172-5.098c0-5.508 3.23-7.555 6.988-9.938c2.989-1.894 6.309-4 8.594-8.222a15.513 15.513 0 0 0 1.875-7.41a15.55 15.55 0 0 0-.734-4.735Zm0 0"></path></symbol>
</defs>
</svg>


