<svg width="351" height="215" viewBox="0 0 351 215" fill="none" xmlns="http://www.w3.org/2000/svg">
<path d="M18.8985 120.975H91.5766" stroke="#00FF84" stroke-width="8" stroke-linecap="round" stroke-linejoin="round"/>
<path d="M57.3939 112.749H52.962C51.9305 112.749 51.0943 113.585 51.0943 114.617V127.937C51.0943 128.968 51.9305 129.804 52.962 129.804H57.3939C58.4254 129.804 59.2615 128.968 59.2615 127.937V114.617C59.2615 113.585 58.4254 112.749 57.3939 112.749Z" fill="#CB0000" stroke="#00FF84" stroke-width="8" stroke-linecap="round" stroke-linejoin="round"/>
<path d="M99.8268 197.541L104.427 210.181" stroke="#00FF84" stroke-width="8" stroke-linecap="round" stroke-linejoin="round"/>
<path d="M95.2726 168.172L87.1465 171.13L52.311 75.4209L64.9518 70.8198L87.6857 133.28L95.2726 168.172Z" fill="#CB0000" stroke="#00FF84" stroke-width="8" stroke-linecap="round" stroke-linejoin="round"/>
<path d="M97.0156 181.389L91.5981 183.361L96.8562 197.808L102.274 195.836L97.0156 181.389Z" fill="#CB0000" stroke="#00FF84" stroke-width="8" stroke-linecap="round" stroke-linejoin="round"/>
<path d="M93.7453 183.861C98.5214 183.861 102.393 179.989 102.393 175.213C102.393 170.437 98.5214 166.565 93.7453 166.565C88.9692 166.565 85.0975 170.437 85.0975 175.213C85.0975 179.989 88.9692 183.861 93.7453 183.861Z" fill="#00FF84" stroke="#00FF84" stroke-width="8" stroke-linecap="round" stroke-linejoin="round"/>
<path d="M15.2274 168.172L23.3539 171.13L58.189 75.4209L45.5482 70.8198L22.8148 133.28L15.2274 168.172Z" fill="#00FF84" stroke="#00FF84" stroke-width="8" stroke-linecap="round" stroke-linejoin="round"/>
<path d="M8.22651 195.836L13.644 197.808L18.9022 183.361L13.4847 181.389L8.22651 195.836Z" fill="#00FF84" stroke="#00FF84" stroke-width="8" stroke-linecap="round" stroke-linejoin="round"/>
<path d="M10.6736 197.541L6.07257 210.181" stroke="#00FF84" stroke-width="8" stroke-linecap="round" stroke-linejoin="round"/>
<path d="M16.7551 183.861C21.5311 183.861 25.4029 179.989 25.4029 175.213C25.4029 170.437 21.5311 166.565 16.7551 166.565C11.979 166.565 8.10724 170.437 8.10724 175.213C8.10724 179.989 11.979 183.861 16.7551 183.861Z" fill="#00FF84" stroke="#00FF84" stroke-width="8" stroke-linecap="round" stroke-linejoin="round"/>
<path d="M61.9681 97.6157H48.5318C47.4292 97.5866 46.3657 97.2004 45.5014 96.515C44.6371 95.8297 44.0187 94.8823 43.739 93.8153C41.3457 83.7726 39.6975 73.5598 39.8788 63.5075C39.9495 60.9411 42.4209 58.7004 44.9786 58.7004H65.5239C68.0829 58.7004 70.5552 60.9407 70.6237 63.5075C70.8037 73.5611 69.1555 83.7726 66.7635 93.8153C66.4838 94.8827 65.865 95.8305 65.0001 96.5159C64.1353 97.2013 63.0712 97.5872 61.9681 97.6157Z" fill="#00FF84" stroke="#00FF84" stroke-width="8" stroke-linecap="round" stroke-linejoin="round"/>
<path d="M62.7848 17.8638H47.411V51.9745H62.7848V17.8638Z" fill="#00FF84" stroke="#00FF84" stroke-width="8" stroke-linecap="round" stroke-linejoin="round"/>
<path d="M59.1814 51.9745H51.0142V58.7004H59.1814V51.9745Z" fill="#CB0000" stroke="#00FF84" stroke-width="8" stroke-linecap="round" stroke-linejoin="round"/>
<path d="M211.156 65.1938H130.35C127.296 65.1821 124.322 66.1667 121.878 67.9983C119.434 69.8299 117.654 72.4086 116.808 75.3432C114.668 82.8723 114.668 90.8486 116.808 98.3777C117.654 101.312 119.434 103.891 121.878 105.723C124.322 107.554 127.296 108.539 130.35 108.527H211.156C212.854 108.532 214.49 107.892 215.734 106.736C216.978 105.58 217.736 103.995 217.855 102.301C218.552 92.0186 218.552 81.701 217.855 71.4188C217.736 69.7252 216.977 68.1403 215.733 66.9847C214.49 65.8291 212.853 65.1889 211.156 65.1938Z" fill="#CB0000" stroke="#00FF84" stroke-width="8" stroke-linecap="round" stroke-linejoin="round"/>
<path d="M160.012 100.495C158.294 91.4866 158.294 82.2342 160.012 73.2255H267.313C267.313 79.483 265.914 89.6519 262.19 96.7843C261.601 97.9059 260.715 98.8448 259.63 99.499C258.545 100.153 257.302 100.498 256.035 100.495H160.012Z" fill="#CB0000" stroke="#00FF84" stroke-width="8" stroke-linecap="round" stroke-linejoin="round"/>
<path d="M226.301 104.915V96.7898H218.542V104.915H226.301Z" fill="#CB0000" stroke="#00FF84" stroke-width="8" stroke-linecap="round" stroke-linejoin="round"/>
<path d="M226.301 79.2214V71.0958H218.542V79.2214H226.301Z" fill="#CB0000" stroke="#00FF84" stroke-width="8" stroke-linecap="round" stroke-linejoin="round"/>
<path d="M87.2393 120.541H14.5612C14.1011 120.541 13.6598 120.358 13.3344 120.033C13.0091 119.708 12.8263 119.266 12.8263 118.806C12.8263 118.346 13.0091 117.905 13.3344 117.579C13.6598 117.254 14.1011 117.071 14.5612 117.071H87.2393C87.6995 117.071 88.1408 117.254 88.4661 117.579C88.7915 117.905 88.9743 118.346 88.9743 118.806C88.9743 119.266 88.7915 119.708 88.4661 120.033C88.1408 120.358 87.6995 120.541 87.2393 120.541Z" fill="#2A3F4E"/>
<path d="M53.0566 110.58H48.6247C47.5932 110.58 46.757 111.417 46.757 112.448V125.768C46.757 126.8 47.5932 127.636 48.6247 127.636H53.0566C54.0881 127.636 54.9243 126.8 54.9243 125.768V112.448C54.9243 111.417 54.0881 110.58 53.0566 110.58Z" fill="#BFBFBF"/>
<path d="M47.5815 110.899C47.3276 111.07 47.1196 111.3 46.9758 111.57C46.8321 111.841 46.7571 112.142 46.7574 112.448V125.768C46.7571 126.074 46.8321 126.376 46.9758 126.646C47.1196 126.916 47.3276 127.147 47.5815 127.317C48.9872 126.063 49.9887 122.866 49.9887 119.108C49.9887 115.351 48.9872 112.153 47.5815 110.899Z" fill="white"/>
<path d="M53.0565 128.937H48.6242C47.7844 128.936 46.9795 128.601 46.386 128.007C45.7925 127.413 45.4587 126.608 45.4579 125.768V112.448C45.4587 111.608 45.7925 110.803 46.386 110.209C46.9795 109.615 47.7844 109.281 48.6242 109.279H53.0565C53.8967 109.28 54.7021 109.614 55.2962 110.208C55.8903 110.803 56.2245 111.608 56.2254 112.448V125.768C56.2245 126.608 55.8903 127.414 55.2962 128.008C54.7021 128.602 53.8967 128.936 53.0565 128.937ZM48.6242 111.882C48.4744 111.883 48.3311 111.943 48.2254 112.049C48.1198 112.155 48.0604 112.298 48.0603 112.448V125.768C48.0604 125.918 48.1198 126.062 48.2254 126.168C48.3311 126.274 48.4744 126.334 48.6242 126.335H53.0565C53.2067 126.334 53.3506 126.275 53.4568 126.169C53.563 126.062 53.6227 125.918 53.623 125.768V112.448C53.6227 112.298 53.563 112.154 53.4568 112.048C53.3506 111.942 53.2067 111.882 53.0565 111.882H48.6242Z" fill="#2A3F4E"/>
<path d="M90.9352 166.004L82.8091 168.961L47.9736 73.2523L60.6144 68.6512L83.3483 131.111L90.9352 166.004Z" fill="white"/>
<path d="M83.3482 131.111L60.6144 68.6512L57.1675 69.906L79.4446 131.111L87.0315 166.004L82.3524 167.707L82.8091 168.961L90.9351 166.004L83.3482 131.111Z" fill="#BFBFBF"/>
<path d="M61.0481 68.2175L48.4073 72.8199L58.2198 99.7788C60.3684 99.7189 62.4384 98.9575 64.1138 97.6108C65.7892 96.2641 66.9778 94.4062 67.4982 92.3207C67.8166 90.9848 68.112 89.6792 68.3909 88.3932L61.0481 68.2175Z" fill="#BFBFBF"/>
<path d="M100.089 209.75C99.7325 209.75 99.3849 209.641 99.0932 209.437C98.8014 209.232 98.5796 208.943 98.4579 208.608L93.8572 195.968C93.6999 195.535 93.7207 195.058 93.9152 194.641C94.1097 194.224 94.4619 193.901 94.8943 193.744C95.3267 193.586 95.8039 193.607 96.221 193.802C96.638 193.996 96.9607 194.348 97.1181 194.781L101.719 207.422C101.814 207.684 101.845 207.965 101.809 208.241C101.772 208.518 101.67 208.782 101.51 209.01C101.35 209.239 101.137 209.425 100.89 209.554C100.642 209.683 100.368 209.75 100.089 209.75Z" fill="#2A3F4E"/>
<path d="M92.6783 179.22L87.2607 181.192L92.5189 195.639L97.9364 193.667L92.6783 179.22Z" fill="#BFBFBF"/>
<path d="M82.8091 170.696C82.453 170.696 82.1056 170.587 81.8139 170.383C81.5222 170.178 81.3004 169.889 81.1787 169.555L46.3432 73.8456C46.2652 73.6315 46.2302 73.4041 46.2402 73.1765C46.2501 72.9489 46.3048 72.7254 46.4011 72.5189C46.4974 72.3124 46.6334 72.1269 46.8014 71.973C46.9694 71.8191 47.1661 71.6998 47.3802 71.6218L60.021 67.0208C60.2351 66.9428 60.4625 66.9078 60.6901 66.9178C60.9178 66.9277 61.1412 66.9824 61.3477 67.0787C61.5542 67.175 61.7397 67.311 61.8936 67.479C62.0476 67.647 62.1669 67.8437 62.2448 68.0578L84.9782 130.516C85.0051 130.589 85.0268 130.664 85.0433 130.741L92.6306 165.633C92.7198 166.043 92.6573 166.472 92.4546 166.84C92.252 167.207 91.9229 167.489 91.5285 167.632L83.4024 170.59C83.2124 170.66 83.0115 170.696 82.8091 170.696ZM50.1973 74.2889L83.8461 166.738L88.9178 164.892L81.6779 131.595L59.5777 70.8749L50.1973 74.2889Z" fill="#2A3F4E"/>
<path d="M92.5192 197.374C92.163 197.374 91.8154 197.265 91.5236 197.061C91.2319 196.856 91.0101 196.567 90.8883 196.232L85.6301 181.786C85.5522 181.572 85.5172 181.344 85.5272 181.117C85.5371 180.889 85.5918 180.666 85.6881 180.459C85.7844 180.253 85.9204 180.067 86.0884 179.913C86.2564 179.759 86.4531 179.64 86.6672 179.562L92.085 177.59C92.5174 177.433 92.9945 177.454 93.4116 177.648C93.8286 177.843 94.1513 178.195 94.3088 178.627L99.5683 193.074C99.7257 193.506 99.7049 193.983 99.5105 194.4C99.3161 194.818 98.964 195.14 98.5316 195.298L93.1138 197.269C92.9233 197.339 92.722 197.374 92.5192 197.374ZM89.483 182.229L93.5545 193.415L95.711 192.63L91.64 181.444L89.483 182.229Z" fill="#2A3F4E"/>
<path d="M89.408 181.692C94.184 181.692 98.0558 177.821 98.0558 173.045C98.0558 168.268 94.184 164.397 89.408 164.397C84.6319 164.397 80.7601 168.268 80.7601 173.045C80.7601 177.821 84.6319 181.692 89.408 181.692Z" fill="white"/>
<path d="M91.643 169.485C90.5758 169.874 89.5956 170.469 88.7582 171.236C87.9209 172.003 87.2429 172.928 86.7629 173.957C86.283 174.986 86.0104 176.1 85.9609 177.234C85.9113 178.369 86.0857 179.502 86.4742 180.569C86.5609 180.811 86.6646 181.043 86.7713 181.272C88.311 181.768 89.9592 181.822 91.5281 181.428C93.0969 181.033 94.5235 180.206 95.6452 179.04C96.7669 177.874 97.5386 176.417 97.8726 174.834C98.2065 173.251 98.0892 171.606 97.534 170.087C97.4473 169.845 97.344 169.613 97.2373 169.384C95.4135 168.793 93.4443 168.829 91.643 169.485Z" fill="#BFBFBF"/>
<path d="M89.4015 183.433C86.7976 183.436 84.287 182.464 82.3649 180.707C80.4428 178.95 79.2489 176.537 79.0186 173.943C78.7884 171.35 79.5386 168.764 81.1212 166.696C82.7038 164.628 85.0039 163.229 87.5676 162.774C90.1314 162.318 92.7727 162.841 94.9705 164.237C97.1682 165.634 98.7627 167.803 99.4395 170.317C100.116 172.832 99.8261 175.509 98.6262 177.82C97.4264 180.131 95.404 181.908 92.9581 182.801C91.8188 183.219 90.6149 183.432 89.4015 183.433ZM89.4123 166.127C87.7058 166.123 86.0582 166.75 84.7855 167.887C83.5128 169.024 82.7046 170.59 82.5161 172.286C82.3275 173.983 82.7719 175.688 83.7639 177.077C84.7558 178.466 86.2256 179.439 87.8912 179.811C89.5567 180.182 91.3008 179.925 92.7888 179.09C94.2769 178.255 95.404 176.899 95.9541 175.284C96.5042 173.668 96.4384 171.907 95.7695 170.337C95.1005 168.767 93.8754 167.499 92.3292 166.777C91.4159 166.351 90.4203 166.129 89.4123 166.128V166.127Z" fill="#2A3F4E"/>
<path d="M10.8901 166.004L19.0166 168.961L53.8516 73.2523L41.2108 68.6512L18.4774 131.111L10.8901 166.004Z" fill="white"/>
<path d="M10.8901 166.004L19.0166 168.961L53.8516 73.2523L41.2108 68.6512L18.4774 131.111L10.8901 166.004Z" fill="white"/>
<path d="M41.2108 68.6512L40.7541 69.906L49.948 73.2523L15.5692 167.707L19.0165 168.961L53.8516 73.2523L41.2108 68.6512Z" fill="#BFBFBF"/>
<path d="M42.0783 68.2175L34.7355 88.391C35.0175 89.6888 35.3154 91.0069 35.6368 92.3554C36.162 94.4338 37.3518 96.2837 39.0253 97.6235C40.6987 98.9633 42.7641 99.7197 44.9071 99.7775L54.7199 72.8199L42.0783 68.2175Z" fill="#BFBFBF"/>
<path d="M19.0166 170.696C18.8142 170.696 18.6134 170.661 18.4232 170.592L10.2967 167.634C9.90227 167.491 9.57323 167.209 9.37058 166.842C9.16792 166.474 9.1054 166.045 9.1946 165.635L16.7819 130.743C16.7984 130.667 16.8201 130.591 16.847 130.518L39.5804 68.0599C39.6583 67.8458 39.7776 67.6491 39.9316 67.4811C40.0855 67.3131 40.271 67.1771 40.4775 67.0808C40.684 66.9845 40.9074 66.9298 41.1351 66.9199C41.3627 66.9099 41.5901 66.9449 41.8042 67.0228L54.445 71.6239C54.6591 71.7018 54.8558 71.8211 55.0238 71.9751C55.1918 72.129 55.3278 72.3145 55.4241 72.521C55.5204 72.7275 55.5751 72.9509 55.585 73.1786C55.595 73.4062 55.56 73.6336 55.482 73.8477L20.647 169.555C20.5252 169.889 20.3034 170.178 20.0117 170.382C19.7201 170.587 19.3726 170.696 19.0166 170.696ZM12.9078 164.891L17.9799 166.737L51.6283 74.2888L42.2483 70.8748L20.1477 131.594L12.9078 164.891Z" fill="#2A3F4E"/>
<path d="M3.88905 193.668L9.30658 195.639L14.5647 181.193L9.14719 179.221L3.88905 193.668Z" fill="#BFBFBF"/>
<path d="M9.30781 197.374C9.10541 197.374 8.90461 197.339 8.71446 197.269L3.29709 195.298C3.08298 195.22 2.88631 195.1 2.71831 194.947C2.55031 194.793 2.41428 194.607 2.31797 194.401C2.22167 194.194 2.16699 193.971 2.15705 193.743C2.14711 193.515 2.1821 193.288 2.26003 193.074L7.51821 178.627C7.67565 178.195 7.99838 177.843 8.41541 177.648C8.83244 177.454 9.30962 177.433 9.74198 177.59L15.1593 179.562C15.3735 179.64 15.5701 179.759 15.7381 179.913C15.9061 180.067 16.0422 180.253 16.1385 180.459C16.2348 180.666 16.2894 180.889 16.2994 181.117C16.3093 181.344 16.2743 181.572 16.1964 181.786L10.9382 196.232C10.8165 196.567 10.5948 196.856 10.3031 197.06C10.0114 197.265 9.66392 197.374 9.30781 197.374ZM6.11421 192.63L8.27074 193.415L12.3422 182.229L10.1853 181.444L6.11421 192.63Z" fill="#2A3F4E"/>
<path d="M1.73519 209.75C1.45622 209.75 1.18136 209.683 0.933904 209.554C0.686451 209.426 0.473709 209.239 0.313711 209.01C0.153714 208.782 0.0511811 208.518 0.0148095 208.242C-0.021562 207.965 0.00929856 207.684 0.104775 207.422L4.70585 194.781C4.78377 194.567 4.9031 194.37 5.05702 194.202C5.21094 194.034 5.39645 193.898 5.60295 193.802C5.80944 193.705 6.03288 193.651 6.26051 193.641C6.48814 193.631 6.7155 193.666 6.92961 193.744C7.14372 193.822 7.34038 193.941 7.50838 194.095C7.67637 194.249 7.8124 194.434 7.9087 194.641C8.005 194.847 8.05968 195.071 8.06963 195.298C8.07958 195.526 8.0446 195.753 7.96668 195.968L3.3656 208.606C3.24426 208.941 3.02266 209.231 2.73095 209.436C2.43924 209.64 2.09157 209.75 1.73519 209.75Z" fill="#2A3F4E"/>
<path d="M12.4177 181.692C17.1937 181.692 21.0655 177.821 21.0655 173.045C21.0655 168.268 17.1937 164.397 12.4177 164.397C7.6416 164.397 3.76984 168.268 3.76984 173.045C3.76984 177.821 7.6416 181.692 12.4177 181.692Z" fill="white"/>
<path d="M12.4177 181.692C17.1937 181.692 21.0655 177.821 21.0655 173.045C21.0655 168.268 17.1937 164.397 12.4177 164.397C7.6416 164.397 3.76984 168.268 3.76984 173.045C3.76984 177.821 7.6416 181.692 12.4177 181.692Z" fill="white"/>
<path d="M20.5437 176.002C20.9338 174.935 21.109 173.802 21.0594 172.667C21.0097 171.532 20.7362 170.418 20.2544 169.389C18.6536 168.872 16.9369 168.834 15.3149 169.28C13.6929 169.725 12.2362 170.634 11.1233 171.895C10.0105 173.156 9.29002 174.715 9.05027 176.38C8.81051 178.045 9.06191 179.743 9.77363 181.267C11.9012 181.953 14.2119 181.788 16.2202 180.806C18.2286 179.824 19.7782 178.103 20.5437 176.002Z" fill="#BFBFBF"/>
<path d="M12.4237 183.432C9.86064 183.438 7.38585 182.496 5.4741 180.789C3.56236 179.082 2.34829 176.729 2.06481 174.182C1.78133 171.634 2.4484 169.072 3.93805 166.986C5.4277 164.901 7.63502 163.438 10.1365 162.88C12.6381 162.322 15.2577 162.707 17.4927 163.961C19.7278 165.216 21.421 167.251 22.2474 169.678C23.0739 172.104 22.9754 174.75 21.9709 177.108C20.9664 179.466 19.1266 181.37 16.8044 182.455C15.4329 183.096 13.9378 183.43 12.4237 183.432ZM12.4129 166.126C10.6791 166.124 9.00754 166.772 7.72782 167.941C6.44809 169.111 5.65318 170.718 5.49989 172.445C5.34661 174.171 5.84609 175.893 6.89979 177.27C7.9535 178.647 9.48491 179.579 11.1919 179.882C12.8989 180.185 14.6575 179.837 16.1209 178.908C17.5842 177.978 18.6459 176.533 19.0966 174.859C19.5473 173.185 19.3543 171.403 18.5555 169.864C17.7568 168.325 16.4104 167.142 14.7819 166.547C14.0229 166.27 13.221 166.128 12.4129 166.128V166.126Z" fill="#2A3F4E"/>
<path d="M57.6307 95.447H44.1945C43.0918 95.4179 42.0284 95.0317 41.1641 94.3463C40.2998 93.661 39.6813 92.7136 39.4017 91.6466C37.0083 81.6039 35.3601 71.3911 35.5414 61.3388C35.6121 58.7724 38.0836 56.5317 40.6413 56.5317H61.1865C63.7456 56.5317 66.2179 58.772 66.2864 61.3388C66.4664 71.3924 64.8182 81.6039 62.4261 91.6466C62.1464 92.714 61.5276 93.6618 60.6628 94.3472C59.7979 95.0326 58.7339 95.4185 57.6307 95.447Z" fill="#BFBFBF"/>
<path d="M39.2356 91.6466C36.8422 81.6039 35.1944 71.3911 35.3753 61.3388C35.4456 58.772 37.917 56.5317 40.4747 56.5317H55.135C56.3626 62.1299 56.2639 67.9376 54.847 73.4908C52.635 82.2388 49.7745 94.2091 40.8425 94.2091C40.0552 93.5413 39.4938 92.6462 39.2356 91.6466Z" fill="white"/>
<path d="M57.6307 97.1814H44.1945C42.7052 97.148 41.2673 96.6303 40.0986 95.7065C38.9299 94.7828 38.094 93.5034 37.7175 92.0621C34.8848 80.1777 33.6404 70.4091 33.8056 61.3076C33.9011 57.8316 37.0942 54.7968 40.6396 54.7968H61.1852C64.7306 54.7968 67.9242 57.8329 68.0192 61.2911C68.1827 70.4091 66.9405 80.1773 64.1112 92.0486C63.7364 93.4927 62.9009 94.7751 61.7314 95.7014C60.5619 96.6277 59.1222 97.1473 57.6307 97.1814ZM40.64 58.2666C38.9849 58.2666 37.318 59.8121 37.2747 61.3865C37.1176 70.1718 38.3295 79.6646 41.0894 91.2445C41.2758 91.9333 41.6778 92.5443 42.2365 92.9882C42.7952 93.4321 43.4814 93.6856 44.1945 93.7115H57.6307C58.346 93.6851 59.0339 93.4299 59.5934 92.9835C60.1528 92.5371 60.5543 91.923 60.7389 91.2315C63.4957 79.6641 64.708 70.1714 64.5501 61.37C64.5068 59.812 62.8403 58.2666 61.1856 58.2666H40.64Z" fill="#2A3F4E"/>
<path d="M58.4475 15.6951H43.0737V49.8058H58.4475V15.6951Z" fill="#BFBFBF"/>
<g style="mix-blend-mode:screen">
<path d="M47.4111 15.6951H43.0737V49.8058H47.4111V15.6951Z" fill="#BFBFBF"/>
</g>
<g style="mix-blend-mode:multiply">
<path d="M58.447 15.6951H53.0427V49.8058H58.447V15.6951Z" fill="#BFBFBF"/>
</g>
<path d="M58.4475 51.5408H43.0737C42.6136 51.5408 42.1723 51.358 41.8469 51.0327C41.5215 50.7073 41.3387 50.266 41.3387 49.8059V15.6969C41.3387 15.2367 41.5215 14.7954 41.8469 14.4701C42.1723 14.1447 42.6136 13.9619 43.0737 13.9619H58.4475C58.9076 13.9619 59.3489 14.1447 59.6742 14.4701C59.9996 14.7954 60.1824 15.2367 60.1824 15.6969V49.8059C60.1824 50.266 59.9996 50.7073 59.6742 51.0327C59.3489 51.358 58.9076 51.5408 58.4475 51.5408ZM44.8086 48.0709H56.7125V17.4318H44.8086V48.0709Z" fill="#2A3F4E"/>
<path d="M54.844 49.8057H46.6768V56.5316H54.844V49.8057Z" fill="#606060"/>
<path d="M54.844 58.2667H46.6767C46.2166 58.2667 45.7753 58.084 45.4499 57.7586C45.1246 57.4332 44.9418 56.9919 44.9418 56.5318V49.8059C44.9418 49.3457 45.1246 48.9044 45.4499 48.5791C45.7753 48.2537 46.2166 48.0709 46.6767 48.0709H54.844C55.3041 48.0709 55.7454 48.2537 56.0708 48.5791C56.3961 48.9044 56.5789 49.3457 56.5789 49.8059V56.5318C56.5789 56.9919 56.3961 57.4332 56.0708 57.7586C55.7454 58.084 55.3041 58.2667 54.844 58.2667ZM48.4117 54.7969H53.109V51.5408H48.4117V54.7969Z" fill="#2A3F4E"/>
<path d="M47.9736 42.7792C47.6285 42.7792 47.2975 42.6421 47.0535 42.3981C46.8095 42.1541 46.6724 41.8231 46.6724 41.478V21.7803C46.6724 21.4352 46.8095 21.1043 47.0535 20.8602C47.2975 20.6162 47.6285 20.4791 47.9736 20.4791C48.3187 20.4791 48.6496 20.6162 48.8937 20.8602C49.1377 21.1043 49.2748 21.4352 49.2748 21.7803V41.478C49.2748 41.8231 49.1377 42.1541 48.8937 42.3981C48.6496 42.6421 48.3187 42.7792 47.9736 42.7792Z" fill="#2A3F4E"/>
<path d="M51.5511 80.4318C54.0663 80.4318 56.1053 78.3928 56.1053 75.8776C56.1053 73.3624 54.0663 71.3234 51.5511 71.3234C49.0358 71.3234 46.9968 73.3624 46.9968 75.8776C46.9968 78.3928 49.0358 80.4318 51.5511 80.4318Z" fill="#606060"/>
<path d="M51.5536 82.167C50.3098 82.167 49.0938 81.7981 48.0596 81.1071C47.0253 80.416 46.2192 79.4338 45.7432 78.2846C45.2672 77.1354 45.1426 75.8708 45.3853 74.6508C45.628 73.4309 46.227 72.3102 47.1065 71.4307C47.9861 70.5511 49.1067 69.9521 50.3267 69.7095C51.5467 69.4668 52.8112 69.5913 53.9604 70.0674C55.1096 70.5434 56.0918 71.3495 56.7829 72.3837C57.474 73.418 57.8428 74.6339 57.8428 75.8778C57.841 77.5452 57.1778 79.1438 55.9987 80.3229C54.8197 81.5019 53.2211 82.1651 51.5536 82.167ZM51.5536 73.0585C50.996 73.0585 50.451 73.2239 49.9873 73.5336C49.5237 73.8434 49.1623 74.2837 48.949 74.7989C48.7356 75.3141 48.6797 75.8809 48.7885 76.4278C48.8973 76.9747 49.1658 77.477 49.5601 77.8713C49.9544 78.2656 50.4567 78.5341 51.0036 78.6429C51.5505 78.7517 52.1174 78.6959 52.6325 78.4825C53.1477 78.2691 53.588 77.9077 53.8978 77.4441C54.2076 76.9805 54.3729 76.4354 54.3729 75.8778C54.372 75.1304 54.0747 74.4138 53.5462 73.8853C53.0176 73.3568 52.3011 73.0594 51.5536 73.0585Z" fill="#2A3F4E"/>
<path d="M208.987 59.989H128.182C125.128 59.9772 122.153 60.9618 119.709 62.7934C117.265 64.6251 115.485 67.2037 114.639 70.1384C112.499 77.6675 112.499 85.6437 114.639 93.1728C115.485 96.1075 117.265 98.6862 119.709 100.518C122.153 102.349 125.128 103.334 128.182 103.322H208.987C210.685 103.327 212.321 102.687 213.565 101.531C214.809 100.375 215.567 98.7898 215.687 97.096C216.383 86.8138 216.383 76.4962 215.687 66.214C215.567 64.5204 214.809 62.9355 213.565 61.7799C212.321 60.6242 210.685 59.9841 208.987 59.989Z" fill="#1D4928"/>
<path d="M208.987 105.057H128.182C124.752 105.061 121.414 103.95 118.67 101.891C115.926 99.833 113.926 96.9386 112.971 93.6444C110.754 85.8053 110.754 77.5053 112.971 69.6662C113.926 66.3719 115.927 63.4775 118.671 61.4191C121.414 59.3607 124.753 58.2499 128.183 58.2542H208.988C211.124 58.2556 213.18 59.065 214.743 60.5197C216.307 61.9745 217.262 63.9669 217.418 66.097C218.117 76.4571 218.117 86.8526 217.418 97.2128C217.263 99.3433 216.307 101.336 214.743 102.791C213.179 104.246 211.123 105.056 208.987 105.057ZM128.182 61.724C125.507 61.7182 122.903 62.5817 120.762 64.1844C118.621 65.7871 117.059 68.0422 116.31 70.61C114.268 77.832 114.268 85.4786 116.31 92.7006C117.059 95.2688 118.621 97.5242 120.763 99.1271C122.904 100.73 125.509 101.593 128.184 101.587H208.989C210.246 101.588 211.456 101.113 212.377 100.259C213.299 99.4038 213.862 98.2322 213.955 96.979C214.644 86.7751 214.644 76.5364 213.955 66.3325C213.862 65.0789 213.298 63.9069 212.377 63.0521C211.455 62.1973 210.244 61.723 208.987 61.7245L128.182 61.724Z" fill="#340600"/>
<path d="M208.987 105.057H128.182C124.752 105.061 121.414 103.95 118.67 101.891C115.926 99.833 113.926 96.9386 112.971 93.6444C110.754 85.8053 110.754 77.5053 112.971 69.6662C113.926 66.3719 115.927 63.4775 118.671 61.4191C121.414 59.3607 124.753 58.2499 128.183 58.2542H208.988C211.124 58.2556 213.18 59.065 214.743 60.5197C216.307 61.9745 217.262 63.9669 217.418 66.097C218.117 76.4571 218.117 86.8526 217.418 97.2128C217.263 99.3433 216.307 101.336 214.743 102.791C213.179 104.246 211.123 105.056 208.987 105.057ZM128.182 61.724C125.507 61.7182 122.903 62.5817 120.762 64.1844C118.621 65.7871 117.059 68.0422 116.31 70.61C114.268 77.832 114.268 85.4786 116.31 92.7006C117.059 95.2688 118.621 97.5242 120.763 99.1271C122.904 100.73 125.509 101.593 128.184 101.587H208.989C210.246 101.588 211.456 101.113 212.377 100.259C213.299 99.4038 213.862 98.2322 213.955 96.979C214.644 86.7751 214.644 76.5364 213.955 66.3325C213.862 65.0789 213.298 63.9069 212.377 63.0521C211.455 62.1973 210.244 61.723 208.987 61.7245L128.182 61.724Z" fill="#2A3F4E"/>
<path d="M157.844 95.2904C156.125 86.2816 156.125 77.0292 157.844 68.0205H265.144C265.144 74.278 263.745 84.447 260.021 91.5793C259.432 92.701 258.547 93.6399 257.462 94.2941C256.377 94.9483 255.133 95.2928 253.866 95.2904H157.844Z" fill="#C4C4C4"/>
<g style="mix-blend-mode:multiply" opacity="0.77">
<path d="M262.349 68.0205C261.933 74.1518 260.448 82.1603 257.355 88.0821C256.766 89.2038 255.881 90.1428 254.796 90.797C253.711 91.4512 252.468 91.7957 251.201 91.7931H157.266C157.43 92.9622 157.623 94.1279 157.844 95.2904H253.866C255.133 95.2928 256.377 94.9483 257.462 94.2941C258.547 93.6399 259.432 92.701 260.021 91.5793C263.745 84.447 265.144 74.278 265.144 68.0205H262.349Z" fill="#C4C4C4"/>
</g>
<path d="M253.866 97.0254H157.844C157.44 97.0255 157.049 96.8847 156.738 96.6274C156.427 96.3701 156.215 96.0123 156.139 95.6157C154.373 86.3928 154.373 76.9183 156.139 67.6953C156.215 67.2987 156.427 66.9409 156.738 66.6836C157.049 66.4263 157.44 66.2855 157.844 66.2856H265.144C265.604 66.2856 266.045 66.4684 266.371 66.7938C266.696 67.1192 266.879 67.5605 266.879 68.0206C266.879 75.0753 265.234 85.344 261.559 92.3827C260.826 93.7874 259.72 94.9634 258.363 95.7822C257.007 96.601 255.451 97.0311 253.866 97.0254ZM159.293 93.5555H253.866C254.817 93.56 255.75 93.3032 256.564 92.8131C257.378 92.323 258.042 91.6185 258.483 90.7765C261.599 84.8083 263.139 76.2464 263.376 69.7555H159.294C157.948 77.6318 157.948 85.6792 159.293 93.5555Z" fill="#2A3F4E"/>
<path d="M264.796 73.9883C265.016 72.0065 265.132 70.0145 265.143 68.0205H157.844C157.466 69.9995 157.173 71.9888 156.965 73.9883H264.796Z" fill="white"/>
<path d="M264.796 75.7233H156.965C156.722 75.7233 156.481 75.6722 156.259 75.5732C156.037 75.4742 155.838 75.3296 155.675 75.1487C155.512 74.9678 155.389 74.7548 155.314 74.5233C155.239 74.2919 155.214 74.0473 155.24 73.8053C155.459 71.7277 155.762 69.6723 156.139 67.6957C156.215 67.299 156.426 66.9412 156.738 66.6838C157.049 66.4264 157.44 66.2856 157.844 66.2856H265.144C265.604 66.2856 266.045 66.4684 266.371 66.7938C266.696 67.1192 266.879 67.5605 266.879 68.0206C266.867 70.0764 266.748 72.1302 266.522 74.1736C266.476 74.5993 266.275 74.993 265.956 75.2791C265.638 75.5652 265.225 75.7234 264.796 75.7233ZM158.919 72.2534H263.219C263.29 71.3951 263.342 70.5566 263.373 69.7555H159.294C159.155 70.5779 159.031 71.4105 158.919 72.2534Z" fill="#2A3F4E"/>
<path d="M155.007 97.0257C154.737 97.0258 154.471 96.963 154.23 96.8423C153.989 96.7216 153.779 96.5462 153.617 96.3302C153.456 96.1142 153.346 95.8635 153.299 95.598C153.251 95.3324 153.266 95.0594 153.342 94.8006L159.36 74.3556C159.422 74.1343 159.527 73.9276 159.67 73.7474C159.812 73.5671 159.989 73.417 160.19 73.3056C160.391 73.1943 160.612 73.124 160.841 73.0988C161.069 73.0736 161.3 73.0941 161.521 73.1589C161.741 73.2238 161.946 73.3318 162.125 73.4766C162.303 73.6215 162.451 73.8003 162.559 74.0028C162.668 74.2052 162.735 74.4272 162.758 74.6559C162.78 74.8846 162.756 75.1154 162.689 75.335L156.67 95.7804C156.565 96.1397 156.346 96.4552 156.046 96.6796C155.746 96.9041 155.382 97.0255 155.007 97.0257Z" fill="#340600"/>
<path d="M166.356 97.0257C166.086 97.0258 165.82 96.963 165.579 96.8423C165.338 96.7216 165.128 96.5462 164.966 96.3302C164.805 96.1142 164.696 95.8635 164.648 95.598C164.6 95.3324 164.615 95.0594 164.691 94.8006L170.709 74.3556C170.771 74.1343 170.876 73.9276 171.019 73.7474C171.161 73.5671 171.338 73.417 171.539 73.3056C171.74 73.1943 171.961 73.124 172.19 73.0988C172.418 73.0736 172.649 73.0941 172.87 73.1589C173.09 73.2238 173.295 73.3318 173.474 73.4766C173.652 73.6215 173.8 73.8003 173.908 74.0028C174.017 74.2052 174.085 74.4272 174.107 74.6559C174.129 74.8846 174.105 75.1154 174.038 75.335L168.02 95.7804C167.914 96.1397 167.695 96.4552 167.395 96.6796C167.095 96.9041 166.731 97.0255 166.356 97.0257Z" fill="#2A3F4E"/>
<path d="M177.705 97.0257C177.436 97.0258 177.169 96.963 176.928 96.8423C176.687 96.7216 176.477 96.5462 176.315 96.3302C176.154 96.1142 176.045 95.8635 175.997 95.598C175.949 95.3324 175.964 95.0594 176.04 94.8006L182.058 74.3556C182.12 74.1343 182.226 73.9276 182.368 73.7474C182.511 73.5671 182.687 73.417 182.888 73.3056C183.089 73.1943 183.311 73.124 183.539 73.0988C183.767 73.0736 183.998 73.0941 184.219 73.1589C184.439 73.2238 184.645 73.3318 184.823 73.4766C185.001 73.6215 185.149 73.8003 185.258 74.0028C185.366 74.2052 185.434 74.4272 185.456 74.6559C185.478 74.8846 185.455 75.1154 185.387 75.335L179.369 95.7804C179.263 96.1397 179.044 96.4552 178.744 96.6796C178.444 96.9041 178.08 97.0255 177.705 97.0257Z" fill="#2A3F4E"/>
<path d="M189.054 97.0257C188.785 97.0258 188.519 96.963 188.277 96.8423C188.036 96.7216 187.826 96.5462 187.665 96.3302C187.503 96.1142 187.394 95.8635 187.346 95.598C187.298 95.3324 187.313 95.0594 187.389 94.8006L193.407 74.3556C193.469 74.1343 193.575 73.9276 193.717 73.7474C193.86 73.5671 194.036 73.417 194.237 73.3056C194.438 73.1943 194.66 73.124 194.888 73.0988C195.116 73.0736 195.347 73.0941 195.568 73.1589C195.788 73.2238 195.994 73.3318 196.172 73.4766C196.35 73.6215 196.498 73.8003 196.607 74.0028C196.715 74.2052 196.783 74.4272 196.805 74.6559C196.827 74.8846 196.804 75.1154 196.736 75.335L190.718 95.7804C190.612 96.1397 190.393 96.4552 190.093 96.6796C189.793 96.9041 189.429 97.0255 189.054 97.0257Z" fill="#2A3F4E"/>
<path d="M200.403 97.0257C200.133 97.0258 199.867 96.963 199.626 96.8423C199.385 96.7216 199.175 96.5462 199.013 96.3302C198.852 96.1142 198.743 95.8635 198.695 95.598C198.647 95.3324 198.662 95.0594 198.738 94.8006L204.756 74.3556C204.818 74.1343 204.923 73.9276 205.066 73.7474C205.208 73.5671 205.385 73.417 205.586 73.3056C205.787 73.1943 206.008 73.124 206.237 73.0988C206.465 73.0736 206.696 73.0941 206.917 73.1589C207.137 73.2238 207.342 73.3318 207.521 73.4766C207.699 73.6215 207.847 73.8003 207.956 74.0028C208.064 74.2052 208.132 74.4272 208.154 74.6559C208.176 74.8846 208.152 75.1154 208.085 75.335L202.067 95.7804C201.961 96.1397 201.742 96.4552 201.442 96.6796C201.142 96.9041 200.778 97.0255 200.403 97.0257Z" fill="#2A3F4E"/>
<path d="M211.752 97.0257C211.482 97.0258 211.216 96.963 210.975 96.8423C210.734 96.7216 210.524 96.5462 210.362 96.3302C210.201 96.1142 210.092 95.8635 210.044 95.598C209.996 95.3324 210.011 95.0594 210.087 94.8006L216.105 74.3556C216.167 74.1343 216.272 73.9276 216.415 73.7474C216.557 73.5671 216.734 73.417 216.935 73.3056C217.136 73.1943 217.357 73.124 217.586 73.0988C217.814 73.0736 218.045 73.0941 218.266 73.1589C218.486 73.2238 218.691 73.3318 218.87 73.4766C219.048 73.6215 219.196 73.8003 219.305 74.0028C219.413 74.2052 219.481 74.4272 219.503 74.6559C219.525 74.8846 219.501 75.1154 219.434 75.335L213.416 95.7804C213.31 96.1397 213.091 96.4552 212.791 96.6796C212.491 96.9041 212.127 97.0255 211.752 97.0257Z" fill="#2A3F4E"/>
<path d="M223.102 97.0257C222.832 97.0258 222.566 96.963 222.324 96.8423C222.083 96.7216 221.873 96.5462 221.712 96.3302C221.55 96.1142 221.441 95.8635 221.393 95.598C221.345 95.3324 221.36 95.0594 221.436 94.8006L227.454 74.3556C227.516 74.1343 227.622 73.9276 227.764 73.7474C227.907 73.5671 228.084 73.417 228.285 73.3056C228.486 73.1943 228.707 73.124 228.935 73.0988C229.163 73.0736 229.395 73.0941 229.615 73.1589C229.835 73.2238 230.041 73.3318 230.219 73.4766C230.397 73.6215 230.545 73.8003 230.654 74.0028C230.763 74.2052 230.83 74.4272 230.852 74.6559C230.874 74.8846 230.851 75.1154 230.783 75.335L224.765 95.7804C224.659 96.1397 224.44 96.4552 224.14 96.6796C223.84 96.9041 223.476 97.0255 223.102 97.0257Z" fill="#2A3F4E"/>
<path d="M234.451 97.0257C234.181 97.0258 233.915 96.963 233.673 96.8423C233.432 96.7216 233.222 96.5462 233.061 96.3302C232.899 96.1142 232.79 95.8635 232.742 95.598C232.694 95.3324 232.709 95.0594 232.785 94.8006L238.804 74.3556C238.865 74.1343 238.971 73.9276 239.113 73.7474C239.256 73.5671 239.433 73.417 239.634 73.3056C239.835 73.1943 240.056 73.124 240.284 73.0988C240.512 73.0736 240.744 73.0941 240.964 73.1589C241.184 73.2238 241.39 73.3318 241.568 73.4766C241.746 73.6215 241.894 73.8003 242.003 74.0028C242.112 74.2052 242.179 74.4272 242.201 74.6559C242.223 74.8846 242.2 75.1154 242.132 75.335L236.114 95.7804C236.008 96.1397 235.789 96.4552 235.489 96.6796C235.189 96.9041 234.825 97.0255 234.451 97.0257Z" fill="#2A3F4E"/>
<path d="M245.8 97.0257C245.53 97.0258 245.264 96.963 245.022 96.8423C244.781 96.7216 244.571 96.5462 244.41 96.3302C244.248 96.1142 244.139 95.8635 244.091 95.598C244.043 95.3324 244.058 95.0594 244.135 94.8006L250.153 74.3556C250.215 74.1343 250.32 73.9276 250.462 73.7474C250.605 73.5671 250.782 73.417 250.983 73.3056C251.184 73.1943 251.405 73.124 251.633 73.0988C251.861 73.0736 252.093 73.0941 252.313 73.1589C252.533 73.2238 252.739 73.3318 252.917 73.4766C253.095 73.6215 253.243 73.8003 253.352 74.0028C253.461 74.2052 253.528 74.4272 253.55 74.6559C253.572 74.8846 253.549 75.1154 253.481 75.335L247.463 95.7804C247.357 96.1397 247.138 96.4552 246.838 96.6796C246.539 96.9041 246.174 97.0255 245.8 97.0257Z" fill="#2A3F4E"/>
<path d="M216.102 74.8455C216.015 71.9669 215.877 69.0898 215.687 66.2141C215.567 64.5204 214.809 62.9353 213.565 61.7794C212.321 60.6236 210.685 59.9834 208.987 59.9883H128.182C125.128 59.9765 122.153 60.9611 119.709 62.7927C117.265 64.6243 115.485 67.203 114.639 70.1377C114.203 71.6859 113.854 73.2575 113.595 74.845L216.102 74.8455Z" fill="#47A942"/>
<path d="M129.69 66.2309C153.185 66.2309 186.997 66.2309 210.495 66.2309C211.522 66.2299 212.535 66.4645 213.458 66.9168C214.38 67.369 215.186 68.0267 215.815 68.8394C215.771 68.1094 215.738 67.3785 215.689 66.6486C215.569 64.9548 214.811 63.3697 213.567 62.2139C212.323 61.0581 210.687 60.4178 208.989 60.4227H128.184C125.129 60.411 122.155 61.3955 119.711 63.2272C117.267 65.0588 115.487 67.6375 114.641 70.5721C114.204 72.1203 113.856 73.6919 113.597 75.2795H116.508C117.526 72.6109 119.333 70.3157 121.688 68.6992C124.042 67.0828 126.833 66.2218 129.69 66.2309Z" fill="#81C347"/>
<path d="M215.687 66.6486C215.567 64.9548 214.809 63.3697 213.565 62.2139C212.321 61.0581 210.685 60.4178 208.987 60.4227H128.182C125.128 60.411 122.153 61.3955 119.709 63.2272C117.265 65.0588 115.485 67.6375 114.639 70.5721C114.203 72.1203 113.854 73.6919 113.595 75.2795H113.675C113.8 74.759 113.932 74.242 114.078 73.7258C114.924 70.7912 116.704 68.2125 119.148 66.3808C121.592 64.5492 124.566 63.5646 127.621 63.5764H208.426C209.739 63.575 211.024 63.9592 212.122 64.6814C213.219 65.4037 214.08 66.4321 214.598 67.6392C215.052 67.9864 215.461 68.3898 215.813 68.8398C215.771 68.1094 215.736 67.3785 215.687 66.6486Z" fill="#CADB2A"/>
<path d="M216.101 76.5804H113.597C113.346 76.5802 113.097 76.5253 112.869 76.4196C112.641 76.3138 112.438 76.1597 112.276 75.9679C112.113 75.7762 111.994 75.5513 111.927 75.309C111.859 75.0666 111.846 74.8125 111.886 74.5644C112.156 72.9126 112.518 71.2773 112.971 69.6662C113.926 66.3719 115.927 63.4775 118.671 61.4191C121.415 59.3607 124.753 58.2499 128.183 58.2542H208.988C211.124 58.2556 213.18 59.065 214.744 60.5197C216.307 61.9745 217.263 63.9669 217.418 66.097C217.606 68.8837 217.747 71.8097 217.836 74.7934C217.842 75.0255 217.803 75.2567 217.719 75.4732C217.634 75.6897 217.508 75.8871 217.346 76.0537C217.184 76.2203 216.991 76.3527 216.777 76.4431C216.563 76.5335 216.333 76.58 216.101 76.5799L216.101 76.5804ZM115.692 73.1105H214.308C214.221 70.79 214.104 68.5172 213.955 66.3321C213.862 65.0785 213.298 63.9065 212.377 63.0517C211.455 62.1969 210.244 61.7226 208.987 61.724H128.182C125.507 61.7182 122.903 62.5817 120.762 64.1844C118.621 65.7871 117.059 68.0422 116.31 70.61C116.08 71.4259 115.872 72.2617 115.691 73.1105H115.692Z" fill="#2A3F4E"/>
<path d="M215.687 97.0957C215.899 93.9629 216.044 90.8275 216.12 87.6892L213.781 86.1946L207.323 90.3211L200.864 86.1946L194.407 90.3211L187.948 86.1946L181.487 90.3211L175.028 86.1946L168.569 90.3211L162.108 86.1946L155.646 90.3211L149.188 86.1946L142.727 90.3211L136.264 86.1946L129.805 90.3211L123.345 86.1946L116.882 90.3211L113.553 88.1958C113.815 89.8751 114.177 91.5373 114.637 93.1734C115.483 96.1081 117.263 98.6868 119.707 100.518C122.151 102.35 125.126 103.335 128.18 103.323H208.985C210.684 103.328 212.321 102.688 213.565 101.532C214.809 100.376 215.567 98.7899 215.687 97.0957Z" fill="#47A942"/>
<path d="M215.747 87.4502C215.673 89.0984 215.581 90.7473 215.471 92.397C215.352 94.0907 214.593 95.6758 213.349 96.8316C212.106 97.9874 210.469 98.6277 208.771 98.6228H127.966C124.977 98.6321 122.062 97.6868 119.647 95.9244C117.232 94.162 115.443 91.6747 114.54 88.8247L113.555 88.1954C113.817 89.8746 114.179 91.5368 114.639 93.1729C115.485 96.1076 117.265 98.6863 119.709 100.518C122.153 102.349 125.128 103.334 128.182 103.322H208.987C210.685 103.327 212.321 102.687 213.565 101.531C214.809 100.375 215.567 98.7899 215.687 97.0961C215.899 93.9633 216.044 90.8278 216.12 87.6896L215.747 87.4502Z" fill="#26863F"/>
<path d="M208.987 105.057H128.182C124.752 105.061 121.414 103.95 118.67 101.891C115.926 99.8328 113.926 96.9385 112.971 93.6443C112.493 91.9416 112.116 90.212 111.843 88.4647C111.791 88.1349 111.836 87.7972 111.971 87.4921C112.107 87.187 112.328 86.9275 112.607 86.7447C112.886 86.5618 113.212 86.4635 113.546 86.4614C113.88 86.4593 114.207 86.5535 114.489 86.7327L116.884 88.2625L122.413 84.7319C122.692 84.5538 123.016 84.4592 123.347 84.4592C123.678 84.4592 124.002 84.5538 124.281 84.7319L129.807 88.2625L135.332 84.7324C135.611 84.5541 135.935 84.4595 136.266 84.4595C136.597 84.4595 136.921 84.5541 137.2 84.7324L142.725 88.2608L148.252 84.7302C148.531 84.552 148.855 84.4573 149.186 84.4573C149.517 84.4573 149.841 84.552 150.12 84.7302L155.65 88.2608L161.177 84.7302C161.456 84.5521 161.78 84.4574 162.111 84.4574C162.442 84.4574 162.766 84.5521 163.045 84.7302L168.572 88.2608L174.097 84.7306C174.376 84.5525 174.7 84.4579 175.031 84.4579C175.362 84.4579 175.686 84.5525 175.965 84.7306L181.491 88.2608L187.017 84.7302C187.296 84.552 187.62 84.4573 187.951 84.4573C188.282 84.4573 188.606 84.552 188.885 84.7302L194.41 88.2604L199.933 84.7302C200.212 84.5519 200.536 84.4572 200.867 84.4572C201.198 84.4572 201.523 84.5519 201.802 84.7302L207.326 88.2604L212.85 84.7302C213.129 84.552 213.453 84.4573 213.784 84.4573C214.115 84.4573 214.439 84.552 214.718 84.7302L217.058 86.2253C217.31 86.3863 217.516 86.6097 217.656 86.8739C217.796 87.138 217.866 87.434 217.858 87.7329C217.771 91.0163 217.623 94.2051 217.42 97.2109C217.265 99.3421 216.31 101.336 214.745 102.791C213.181 104.247 211.124 105.056 208.987 105.057ZM116.083 91.8608C116.156 92.143 116.231 92.4231 116.31 92.701C117.058 95.2692 118.621 97.5246 120.762 99.1274C122.904 100.73 125.509 101.594 128.184 101.587H208.989C210.245 101.588 211.456 101.114 212.377 100.259C213.299 99.4041 213.862 98.2323 213.955 96.9789C214.136 94.3197 214.272 91.5138 214.36 88.623L213.782 88.2543L208.259 91.784C207.98 91.9622 207.656 92.0569 207.325 92.0569C206.994 92.0569 206.669 91.9622 206.39 91.784L200.866 88.2543L195.342 91.784C195.063 91.9623 194.739 92.0571 194.408 92.0571C194.077 92.0571 193.753 91.9623 193.474 91.784L187.948 88.2539L182.422 91.7845C182.143 91.9627 181.819 92.0574 181.488 92.0574C181.157 92.0574 180.833 91.9627 180.554 91.7845L175.029 88.2543L169.503 91.7845C169.224 91.9627 168.9 92.0574 168.569 92.0574C168.238 92.0574 167.914 91.9627 167.635 91.7845L162.109 88.2539L156.582 91.7845C156.303 91.9627 155.979 92.0574 155.648 92.0574C155.317 92.0574 154.993 91.9627 154.714 91.7845L149.188 88.253L143.661 91.7836C143.382 91.9618 143.058 92.0565 142.727 92.0565C142.396 92.0565 142.072 91.9618 141.793 91.7836L136.266 88.253L130.741 91.7832C130.462 91.9614 130.138 92.0561 129.807 92.0561C129.476 92.0561 129.152 91.9614 128.873 91.7832L123.347 88.2526L117.818 91.7832C117.561 91.9474 117.265 92.0411 116.961 92.0547C116.656 92.0683 116.353 92.0014 116.083 91.8608Z" fill="#2A3F4E"/>
<path d="M160.423 93.193C166.596 93.193 171.6 88.1889 171.6 82.016C171.6 75.8432 166.596 70.8391 160.423 70.8391C154.25 70.8391 149.246 75.8432 149.246 82.016C149.246 88.1889 154.25 93.193 160.423 93.193Z" fill="#CCCC00"/>
<path d="M160.421 94.9283C157.868 94.9283 155.371 94.171 153.248 92.7521C151.124 91.3333 149.469 89.3166 148.492 86.9572C147.515 84.5978 147.259 82.0015 147.757 79.4967C148.255 76.992 149.485 74.6912 151.291 72.8854C153.097 71.0796 155.398 69.8499 157.903 69.3517C160.407 68.8535 163.004 69.1093 165.363 70.0867C167.722 71.064 169.739 72.7191 171.158 74.8426C172.577 76.966 173.334 79.4626 173.334 82.0164C173.33 85.4398 171.969 88.722 169.548 91.1427C167.127 93.5634 163.845 94.9248 160.421 94.9283ZM160.421 72.574C158.554 72.574 156.728 73.1277 155.175 74.1653C153.623 75.2028 152.412 76.6776 151.698 78.4029C150.983 80.1283 150.796 82.0269 151.16 83.8585C151.525 85.6902 152.424 87.3727 153.745 88.6932C155.065 90.0137 156.748 90.9131 158.579 91.2774C160.411 91.6417 162.309 91.4547 164.035 90.7401C165.76 90.0254 167.235 88.8151 168.272 87.2623C169.31 85.7095 169.864 83.8839 169.864 82.0164C169.861 79.513 168.865 77.1128 167.095 75.3426C165.325 73.5724 162.925 72.5767 160.421 72.574Z" fill="#2A3F4E"/>
<path d="M224.132 99.7107V91.5851H216.373V99.7107H224.132Z" fill="#245B34"/>
<path d="M224.132 101.446H216.373C215.913 101.446 215.472 101.264 215.146 100.938C214.821 100.613 214.638 100.172 214.638 99.7114V91.5854C214.638 91.1253 214.821 90.684 215.146 90.3586C215.472 90.0333 215.913 89.8505 216.373 89.8505H224.132C224.592 89.8505 225.033 90.0333 225.359 90.3586C225.684 90.684 225.867 91.1253 225.867 91.5854V99.7114C225.867 100.172 225.684 100.613 225.359 100.938C225.034 101.263 224.592 101.446 224.132 101.446ZM218.108 97.9765H222.397V93.3204H218.108V97.9765Z" fill="#2A3F4E"/>
<path d="M224.132 74.4503V66.3247H216.374V74.4503H224.132Z" fill="#245B34"/>
<path d="M224.132 76.1852H216.373C215.913 76.1852 215.472 76.0024 215.146 75.6771C214.821 75.3517 214.638 74.9104 214.638 74.4503V66.3247C214.638 65.8645 214.821 65.4232 215.146 65.0979C215.472 64.7725 215.913 64.5897 216.373 64.5897H224.132C224.592 64.5897 225.033 64.7725 225.359 65.0979C225.684 65.4232 225.867 65.8645 225.867 66.3247V74.4503C225.867 74.9103 225.684 75.3516 225.359 75.6769C225.034 76.0023 224.592 76.1851 224.132 76.1852ZM218.109 72.7153H222.397V68.0596H218.108L218.109 72.7153Z" fill="#2A3F4E"/>
<path d="M149.673 86.1529C149.295 86.1533 148.927 86.0302 148.626 85.8025C148.324 85.5748 148.105 85.2548 148.002 84.8911C147.899 84.5275 147.917 84.1402 148.055 83.7881C148.192 83.4359 148.44 83.1382 148.762 82.9402L166.393 72.0903C166.784 71.852 167.255 71.7785 167.7 71.8859C168.146 71.9933 168.531 72.2727 168.772 72.6633C169.012 73.0538 169.088 73.5236 168.983 73.9699C168.878 74.4163 168.6 74.8029 168.211 75.0453L150.581 85.8952C150.308 86.0639 149.994 86.1531 149.673 86.1529Z" fill="#2A3F4E"/>
<path d="M153.956 92.2281C153.578 92.2287 153.21 92.1057 152.908 91.878C152.607 91.6502 152.388 91.3301 152.284 90.9664C152.181 90.6026 152.2 90.2152 152.337 89.8629C152.475 89.5107 152.723 89.2129 153.045 89.015L170.676 78.1651C171.068 77.9268 171.538 77.8533 171.984 77.9607C172.429 78.0681 172.814 78.3476 173.055 78.7381C173.295 79.1286 173.371 79.5984 173.266 80.0448C173.161 80.4911 172.884 80.8777 172.494 81.1201L154.864 91.9705C154.591 92.139 154.277 92.2282 153.956 92.2281Z" fill="#2A3F4E"/>
<path d="M339.666 7.30969H122.629C118.628 7.30969 115.385 10.5531 115.385 14.5539V36.8831C115.385 40.884 118.628 44.1274 122.629 44.1274H339.666C343.667 44.1274 346.91 40.884 346.91 36.8831V14.5539C346.91 10.5531 343.667 7.30969 339.666 7.30969Z" fill="#00FF84" stroke="#00FF84" stroke-width="8" stroke-linecap="round" stroke-linejoin="round"/>
<path d="M334.3 1.73401H117.263C113.262 1.73401 110.019 4.97737 110.019 8.97826V31.3074C110.019 35.3083 113.262 38.5517 117.263 38.5517H334.3C338.301 38.5517 341.544 35.3083 341.544 31.3074V8.97826C341.544 4.97737 338.301 1.73401 334.3 1.73401Z" fill="#D9D9D9"/>
<path d="M334.301 40.2871H117.265C114.884 40.2841 112.602 39.3373 110.919 37.6541C109.236 35.971 108.289 33.6891 108.286 31.3088V8.97833C108.289 6.59805 109.236 4.3161 110.919 2.63299C112.602 0.949868 114.884 0.00298411 117.265 0H334.302C336.682 0.00286959 338.964 0.949724 340.647 2.63287C342.33 4.31601 343.277 6.59801 343.28 8.97833V31.3079C343.278 33.6886 342.331 35.9711 340.647 37.6544C338.964 39.3378 336.681 40.2846 334.301 40.2871ZM117.265 3.46902C115.804 3.47086 114.404 4.0518 113.372 5.08444C112.339 6.11707 111.758 7.51711 111.756 8.97747V31.3071C111.758 32.7674 112.339 34.1675 113.372 35.2001C114.404 36.2327 115.804 36.8137 117.265 36.8155H334.302C335.762 36.8138 337.162 36.2329 338.195 35.2002C339.228 34.1676 339.809 32.7675 339.81 31.3071V8.97833C339.809 7.51793 339.228 6.11784 338.195 5.08518C337.162 4.05252 335.762 3.4716 334.302 3.46988L117.265 3.46902Z" fill="#2A3F4E"/>
<path d="M326.706 22.7984H122.256C121.681 22.7984 121.129 22.5699 120.722 22.1632C120.316 21.7565 120.087 21.2049 120.087 20.6297C120.087 20.0546 120.316 19.5029 120.722 19.0962C121.129 18.6895 121.681 18.4611 122.256 18.4611H326.706C327.281 18.4611 327.833 18.6895 328.239 19.0962C328.646 19.5029 328.875 20.0546 328.875 20.6297C328.875 21.2049 328.646 21.7565 328.239 22.1632C327.833 22.5699 327.281 22.7984 326.706 22.7984Z" fill="#2A3F4E"/>
<path d="M327.035 1.73401H325.734V9.14048H327.035V1.73401Z" fill="#2A3F4E"/>
<path d="M306.914 1.73401H305.613V9.14048H306.914V1.73401Z" fill="#2A3F4E"/>
<path d="M312.206 1.73401H310.905V5.60119H312.206V1.73401Z" fill="#2A3F4E"/>
<path d="M321.893 1.73401H320.592V5.60119H321.893V1.73401Z" fill="#2A3F4E"/>
<path d="M317.049 1.73401H315.748V7.11016H317.049V1.73401Z" fill="#2A3F4E"/>
<path d="M286.794 1.73401H285.493V9.14048H286.794V1.73401Z" fill="#2A3F4E"/>
<path d="M292.085 1.73401H290.784V5.60119H292.085V1.73401Z" fill="#2A3F4E"/>
<path d="M301.773 1.73401H300.472V5.60119H301.773V1.73401Z" fill="#2A3F4E"/>
<path d="M296.929 1.73401H295.628V7.11016H296.929V1.73401Z" fill="#2A3F4E"/>
<path d="M266.674 1.73401H265.373V9.14048H266.674V1.73401Z" fill="#2A3F4E"/>
<path d="M271.964 1.73401H270.663V5.60119H271.964V1.73401Z" fill="#2A3F4E"/>
<path d="M281.652 1.73401H280.351V5.60119H281.652V1.73401Z" fill="#2A3F4E"/>
<path d="M276.808 1.73401H275.507V7.11016H276.808V1.73401Z" fill="#2A3F4E"/>
<path d="M246.553 1.73401H245.251V9.14048H246.553V1.73401Z" fill="#2A3F4E"/>
<path d="M251.844 1.73401H250.543V5.60119H251.844V1.73401Z" fill="#2A3F4E"/>
<path d="M261.532 1.73401H260.231V5.60119H261.532V1.73401Z" fill="#2A3F4E"/>
<path d="M256.688 1.73401H255.387V7.11016H256.688V1.73401Z" fill="#2A3F4E"/>
<path d="M226.433 1.73401H225.131V9.14048H226.433V1.73401Z" fill="#2A3F4E"/>
<path d="M231.723 1.73401H230.422V5.60119H231.723V1.73401Z" fill="#2A3F4E"/>
<path d="M241.411 1.73401H240.11V5.60119H241.411V1.73401Z" fill="#2A3F4E"/>
<path d="M236.567 1.73401H235.266V7.11016H236.567V1.73401Z" fill="#2A3F4E"/>
<path d="M206.312 1.73401H205.011V9.14048H206.312V1.73401Z" fill="#2A3F4E"/>
<path d="M211.603 1.73401H210.302V5.60119H211.603V1.73401Z" fill="#2A3F4E"/>
<path d="M221.291 1.73401H219.989V5.60119H221.291V1.73401Z" fill="#2A3F4E"/>
<path d="M216.447 1.73401H215.145V7.11016H216.447V1.73401Z" fill="#2A3F4E"/>
<path d="M186.191 1.73401H184.89V9.14048H186.191V1.73401Z" fill="#2A3F4E"/>
<path d="M191.482 1.73401H190.181V5.60119H191.482V1.73401Z" fill="#2A3F4E"/>
<path d="M201.17 1.73401H199.869V5.60119H201.17V1.73401Z" fill="#2A3F4E"/>
<path d="M196.327 1.73401H195.025V7.11016H196.327V1.73401Z" fill="#2A3F4E"/>
<path d="M166.071 1.73401H164.77V9.14048H166.071V1.73401Z" fill="#2A3F4E"/>
<path d="M171.362 1.73401H170.061V5.60119H171.362V1.73401Z" fill="#2A3F4E"/>
<path d="M181.049 1.73401H179.748V5.60119H181.049V1.73401Z" fill="#2A3F4E"/>
<path d="M176.205 1.73401H174.904V7.11016H176.205V1.73401Z" fill="#2A3F4E"/>
<path d="M145.95 1.73401H144.649V9.14048H145.95V1.73401Z" fill="#2A3F4E"/>
<path d="M151.241 1.73401H149.94V5.60119H151.241V1.73401Z" fill="#2A3F4E"/>
<path d="M160.929 1.73401H159.628V5.60119H160.929V1.73401Z" fill="#2A3F4E"/>
<path d="M156.085 1.73401H154.784V7.11016H156.085V1.73401Z" fill="#2A3F4E"/>
<path d="M125.83 1.73401H124.529V9.14048H125.83V1.73401Z" fill="#2A3F4E"/>
<path d="M131.121 1.73401H129.82V5.60119H131.121V1.73401Z" fill="#2A3F4E"/>
<path d="M140.808 1.73401H139.507V5.60119H140.808V1.73401Z" fill="#2A3F4E"/>
<path d="M135.964 1.73401H134.663V7.11016H135.964V1.73401Z" fill="#2A3F4E"/>
<path d="M342.865 92.5249L190.255 198.447C189.79 198.756 189.437 199.207 189.248 199.733C189.059 200.259 189.045 200.831 189.206 201.366C189.368 201.901 189.698 202.369 190.146 202.702C190.595 203.035 191.139 203.215 191.697 203.215H345.175C345.635 203.215 346.076 203.032 346.402 202.707C346.727 202.382 346.91 201.94 346.91 201.48V94.691C346.91 94.2201 346.782 93.758 346.54 93.3541C346.298 92.9501 345.951 92.6193 345.536 92.397C345.121 92.1747 344.653 92.0692 344.183 92.0917C343.713 92.1142 343.257 92.2639 342.865 92.5249ZM254.332 181.601L325.296 130.273V181.601H254.332Z" fill="#00FF84" stroke="#00FF84" stroke-width="8" stroke-linecap="round" stroke-linejoin="round"/>
<path d="M338.094 87.3201L185.484 193.242C185.019 193.551 184.666 194.003 184.477 194.528C184.288 195.054 184.274 195.627 184.435 196.161C184.597 196.696 184.927 197.164 185.375 197.497C185.824 197.83 186.368 198.01 186.926 198.01H340.404C340.864 198.01 341.305 197.828 341.631 197.502C341.956 197.177 342.139 196.736 342.139 196.275V89.4861C342.139 89.0152 342.011 88.5532 341.769 88.1492C341.527 87.7453 341.18 87.4145 340.765 87.1922C340.35 86.9699 339.882 86.8644 339.412 86.8869C338.942 86.9094 338.486 87.0591 338.094 87.3201ZM249.561 176.396L320.525 125.068V176.396H249.561Z" fill="#D9D9D9"/>
<path d="M340.404 199.745H186.926C185.995 199.745 185.089 199.445 184.341 198.89C183.593 198.335 183.044 197.555 182.775 196.663C182.505 195.772 182.53 194.818 182.845 193.941C183.159 193.065 183.748 192.313 184.523 191.797L337.105 85.8948C337.114 85.8883 337.124 85.8818 337.133 85.8757C337.786 85.4407 338.545 85.1912 339.329 85.1536C340.113 85.1161 340.893 85.292 341.584 85.6625C342.276 86.0331 342.855 86.5844 343.258 87.2578C343.661 87.9311 343.874 88.7013 343.874 89.4861V196.275C343.873 197.195 343.507 198.077 342.856 198.728C342.206 199.378 341.324 199.744 340.404 199.745ZM339.067 88.757L186.473 194.667C186.306 194.764 186.177 194.915 186.108 195.096C186.04 195.276 186.035 195.475 186.096 195.659C186.143 195.84 186.252 196.001 186.403 196.113C186.554 196.225 186.738 196.282 186.926 196.275H340.404V89.4861C340.404 89.3303 340.362 89.1773 340.282 89.0433C340.203 88.9094 340.089 88.7993 339.952 88.7247C339.815 88.6501 339.661 88.6137 339.505 88.6194C339.349 88.6251 339.198 88.6726 339.067 88.757ZM320.525 178.131H249.561C249.194 178.131 248.837 178.015 248.54 177.799C248.243 177.583 248.023 177.279 247.91 176.93C247.797 176.582 247.797 176.206 247.911 175.857C248.025 175.509 248.246 175.205 248.544 174.99L319.509 123.662C319.768 123.475 320.073 123.363 320.392 123.339C320.711 123.314 321.03 123.378 321.314 123.524C321.599 123.669 321.838 123.89 322.005 124.163C322.172 124.435 322.26 124.749 322.26 125.068V176.396C322.26 176.856 322.077 177.297 321.752 177.623C321.426 177.948 320.985 178.131 320.525 178.131ZM254.92 174.661H318.79V128.464L254.92 174.661Z" fill="#2A3F4E"/>
<path d="M333.646 190.745H332.344V197.93H333.646V190.745Z" fill="#340600"/>
<path d="M314.127 190.745H312.826V197.93H314.127V190.745Z" fill="#340600"/>
<path d="M319.26 194.179H317.959V197.93H319.26V194.179Z" fill="#340600"/>
<path d="M328.658 194.179H327.356V197.93H328.658V194.179Z" fill="#340600"/>
<path d="M323.959 192.715H322.657V197.93H323.959V192.715Z" fill="#340600"/>
<path d="M294.609 190.745H293.308V197.93H294.609V190.745Z" fill="#340600"/>
<path d="M299.742 194.179H298.44V197.93H299.742V194.179Z" fill="#340600"/>
<path d="M309.139 194.179H307.838V197.93H309.139V194.179Z" fill="#340600"/>
<path d="M304.44 192.715H303.139V197.93H304.44V192.715Z" fill="#340600"/>
<path d="M275.091 190.745H273.79V197.93H275.091V190.745Z" fill="#340600"/>
<path d="M280.224 194.179H278.922V197.93H280.224V194.179Z" fill="#340600"/>
<path d="M289.621 194.179H288.32V197.93H289.621V194.179Z" fill="#340600"/>
<path d="M284.922 192.715H283.621V197.93H284.922V192.715Z" fill="#340600"/>
<path d="M255.573 190.745H254.272V197.93H255.573V190.745Z" fill="#340600"/>
<path d="M260.706 194.179H259.404V197.93H260.706V194.179Z" fill="#340600"/>
<path d="M270.103 194.179H268.802V197.93H270.103V194.179Z" fill="#340600"/>
<path d="M265.404 192.715H264.103V197.93H265.404V192.715Z" fill="#340600"/>
<path d="M236.055 190.745H234.754V197.93H236.055V190.745Z" fill="#340600"/>
<path d="M241.187 194.179H239.886V197.93H241.187V194.179Z" fill="#340600"/>
<path d="M250.585 194.179H249.284V197.93H250.585V194.179Z" fill="#340600"/>
<path d="M245.886 192.715H244.585V197.93H245.886V192.715Z" fill="#340600"/>
<path d="M216.537 190.745H215.236V197.93H216.537V190.745Z" fill="#340600"/>
<path d="M221.669 194.179H220.368V197.93H221.669V194.179Z" fill="#340600"/>
<path d="M231.067 194.179H229.766V197.93H231.067V194.179Z" fill="#340600"/>
<path d="M226.368 192.715H225.067V197.93H226.368V192.715Z" fill="#340600"/>
<path d="M197.019 190.745H195.717V197.93H197.019V190.745Z" fill="#340600"/>
<path d="M202.151 194.179H200.85V197.93H202.151V194.179Z" fill="#340600"/>
<path d="M211.549 194.179H210.248V197.93H211.549V194.179Z" fill="#340600"/>
<path d="M206.85 192.715H205.549V197.93H206.85V192.715Z" fill="#340600"/>
<path d="M341.751 110.407H334.566V111.708H341.751V110.407Z" fill="#340600"/>
<path d="M341.751 105.275H338V106.576H341.751V105.275Z" fill="#340600"/>
<path d="M341.751 95.8768H338V97.178H341.751V95.8768Z" fill="#340600"/>
<path d="M341.751 100.576H336.536V101.877H341.751V100.576Z" fill="#340600"/>
<path d="M341.751 129.925H334.566V131.226H341.751V129.925Z" fill="#340600"/>
<path d="M341.751 124.793H338V126.094H341.751V124.793Z" fill="#340600"/>
<path d="M341.751 115.395H338V116.696H341.751V115.395Z" fill="#340600"/>
<path d="M341.751 120.094H336.536V121.395H341.751V120.094Z" fill="#340600"/>
<path d="M341.751 149.443H334.566V150.744H341.751V149.443Z" fill="#340600"/>
<path d="M341.751 144.311H338V145.612H341.751V144.311Z" fill="#340600"/>
<path d="M341.751 134.913H338V136.214H341.751V134.913Z" fill="#340600"/>
<path d="M341.751 139.612H336.536V140.913H341.751V139.612Z" fill="#340600"/>
<path d="M341.751 168.961H334.566V170.263H341.751V168.961Z" fill="#340600"/>
<path d="M341.751 163.829H338V165.13H341.751V163.829Z" fill="#340600"/>
<path d="M341.751 154.431H338V155.732H341.751V154.431Z" fill="#340600"/>
<path d="M341.751 159.13H336.536V160.431H341.751V159.13Z" fill="#340600"/>
<path d="M341.751 188.479H334.566V189.781H341.751V188.479Z" fill="#340600"/>
<path d="M341.751 183.347H338V184.648H341.751V183.347Z" fill="#340600"/>
<path d="M341.751 173.949H338V175.25H341.751V173.949Z" fill="#340600"/>
<path d="M341.751 178.648H336.536V179.949H341.751V178.648Z" fill="#340600"/>
<path d="M184.507 132.861H123.275C120.712 132.861 118.634 134.939 118.634 137.502V161.611C118.634 164.174 120.712 166.252 123.275 166.252H184.507C187.07 166.252 189.147 164.174 189.147 161.611V137.502C189.147 134.939 187.07 132.861 184.507 132.861Z" fill="#CB0000" stroke="#00FF84" stroke-width="8" stroke-linecap="round" stroke-linejoin="round"/>
<path d="M170.797 129.636H129.724C128.407 129.636 127.34 130.703 127.34 132.019V166.578C127.34 167.894 128.407 168.961 129.724 168.961H170.797C172.114 168.961 173.181 167.894 173.181 166.578V132.019C173.181 130.703 172.114 129.636 170.797 129.636Z" fill="#CB0000" stroke="#00FF84" stroke-width="8" stroke-linecap="round" stroke-linejoin="round"/>
<path d="M180.603 128.524H119.371C116.808 128.524 114.731 130.601 114.731 133.164V157.274C114.731 159.837 116.808 161.914 119.371 161.914H180.603C183.166 161.914 185.244 159.837 185.244 157.274V133.164C185.244 130.601 183.166 128.524 180.603 128.524Z" fill="white"/>
<path d="M168.974 128.524H123.845C121.282 128.524 119.204 130.601 119.204 133.164V157.274C119.204 159.837 121.282 161.914 123.845 161.914H168.974C171.537 161.914 173.614 159.837 173.614 157.274V133.164C173.614 130.601 171.537 128.524 168.974 128.524Z" fill="#BFBFBF"/>
<path d="M180.604 163.649H119.371C117.681 163.647 116.06 162.975 114.865 161.78C113.669 160.584 112.997 158.964 112.995 157.273V133.164C112.997 131.473 113.669 129.853 114.865 128.657C116.06 127.462 117.681 126.79 119.371 126.788H180.604C182.294 126.79 183.915 127.462 185.11 128.657C186.305 129.853 186.978 131.473 186.979 133.164V157.274C186.978 158.964 186.305 160.585 185.11 161.78C183.915 162.975 182.294 163.647 180.604 163.649ZM119.371 130.259C118.601 130.259 117.862 130.566 117.317 131.11C116.772 131.655 116.466 132.394 116.465 133.165V157.275C116.466 158.045 116.772 158.784 117.317 159.329C117.862 159.874 118.601 160.18 119.371 160.181H180.604C181.374 160.18 182.113 159.874 182.658 159.329C183.203 158.784 183.509 158.045 183.51 157.275V133.164C183.509 132.393 183.203 131.655 182.658 131.11C182.113 130.565 181.374 130.259 180.604 130.258L119.371 130.259Z" fill="#2A3F4E"/>
<path d="M166.894 125.299H125.82C124.504 125.299 123.437 126.366 123.437 127.682V162.241C123.437 163.557 124.504 164.624 125.82 164.624H166.894C168.21 164.624 169.277 163.557 169.277 162.241V127.682C169.277 126.366 168.21 125.299 166.894 125.299Z" fill="#2A3F4E"/>
<g style="mix-blend-mode:multiply" opacity="0.27">
<path d="M166.894 159.278H125.82C124.504 159.278 123.437 160.345 123.437 161.661V162.241C123.437 163.557 124.504 164.624 125.82 164.624H166.894C168.21 164.624 169.277 163.557 169.277 162.241V161.661C169.277 160.345 168.21 159.278 166.894 159.278Z" fill="#06A0FF"/>
</g>
<g style="mix-blend-mode:screen" opacity="0.38">
<path d="M166.894 125.851H125.82C124.504 125.851 123.437 126.918 123.437 128.234V128.813C123.437 130.13 124.504 131.197 125.82 131.197H166.894C168.21 131.197 169.277 130.13 169.277 128.813V128.234C169.277 126.918 168.21 125.851 166.894 125.851Z" fill="#06A0FF"/>
</g>
<path d="M166.893 166.359H125.818C124.726 166.358 123.678 165.924 122.906 165.151C122.133 164.379 121.699 163.331 121.698 162.238V127.682C121.699 126.589 122.133 125.542 122.906 124.769C123.678 123.996 124.726 123.562 125.818 123.561H166.893C167.985 123.563 169.033 123.997 169.805 124.77C170.577 125.542 171.011 126.59 171.011 127.682V162.241C171.01 163.332 170.576 164.379 169.804 165.151C169.032 165.923 167.985 166.358 166.893 166.359ZM125.818 127.033C125.646 127.033 125.48 127.102 125.358 127.224C125.236 127.346 125.168 127.511 125.168 127.684V162.243C125.168 162.415 125.236 162.581 125.358 162.703C125.48 162.825 125.646 162.893 125.818 162.893H166.893C167.065 162.893 167.23 162.824 167.352 162.702C167.473 162.58 167.542 162.415 167.542 162.243V127.682C167.542 127.51 167.473 127.344 167.352 127.222C167.23 127.101 167.065 127.032 166.893 127.031L125.818 127.033Z" fill="#2A3F4E"/>
<g opacity="0.58">
<path d="M156.555 139.326H132.706C132.246 139.326 131.804 139.143 131.479 138.818C131.154 138.492 130.971 138.051 130.971 137.591C130.971 137.131 131.154 136.689 131.479 136.364C131.804 136.039 132.246 135.856 132.706 135.856H156.555C157.015 135.856 157.456 136.039 157.781 136.364C158.107 136.689 158.29 137.131 158.29 137.591C158.29 138.051 158.107 138.492 157.781 138.818C157.456 139.143 157.015 139.326 156.555 139.326Z" fill="#D9D9D9"/>
</g>
<g opacity="0.58">
<path d="M142.682 146.954H132.706C132.246 146.954 131.804 146.771 131.479 146.445C131.154 146.12 130.971 145.679 130.971 145.219C130.971 144.758 131.154 144.317 131.479 143.992C131.804 143.666 132.246 143.484 132.706 143.484H142.682C143.142 143.484 143.583 143.666 143.908 143.992C144.234 144.317 144.417 144.758 144.417 145.219C144.417 145.679 144.234 146.12 143.908 146.445C143.583 146.771 143.142 146.954 142.682 146.954Z" fill="#D9D9D9"/>
</g>
</svg>
