<svg aria-hidden="true" style="position: absolute; width: 0; height: 0; overflow: hidden;" version="1.1" xmlns="http://www.w3.org/2000/svg" xmlns:xlink="http://www.w3.org/1999/xlink">
<defs>
<symbol viewBox="0 0 24 24" id="facebook"><path fill="none" stroke="currentColor" stroke-linecap="round" stroke-linejoin="round" stroke-width="1.5" d="M17 2h-3a5 5 0 0 0-5 5v3H6v4h3v8h4v-8h3l1-4h-4V7a1 1 0 0 1 1-1h3V2Z"></path></symbol>
<symbol viewBox="0 0 24 24" id="twitter"><path fill="none" stroke="currentColor" stroke-linecap="round" stroke-linejoin="round" stroke-width="1.5" d="M23 3.01s-2.018 1.192-3.14 1.53a4.48 4.48 0 0 0-7.86 3v1a10.66 10.66 0 0 1-9-4.53s-4 9 5 13a11.64 11.64 0 0 1-7 2c9 5 20 0 20-11.5c0-.278-.028-.556-.08-.83C21.94 5.674 23 3.01 23 3.01Z"></path></symbol>
<symbol viewBox="0 0 24 24" id="linkedin"><g fill="none" stroke="currentColor" stroke-linecap="round" stroke-linejoin="round" stroke-width="1.5"><path d="M21 8v8a5 5 0 0 1-5 5H8a5 5 0 0 1-5-5V8a5 5 0 0 1 5-5h8a5 5 0 0 1 5 5ZM7 17v-7"></path><path d="M11 17v-3.25M11 10v3.75m0 0c0-3.75 6-3.75 6 0V17M7 7.01l.01-.011"></path></g></symbol>
<symbol viewBox="0 0 24 24" id="github"><g fill="none" stroke="currentColor" stroke-linecap="round" stroke-linejoin="round" stroke-width="1.5"><path d="M16 22.027v-2.87a3.37 3.37 0 0 0-.94-2.61c3.14-.35 6.44-1.54 6.44-7a5.44 5.44 0 0 0-1.5-3.75a5.07 5.07 0 0 0-.09-3.77s-1.18-.35-3.91 1.48a13.38 13.38 0 0 0-7 0c-2.73-1.83-3.91-1.48-3.91-1.48A5.07 5.07 0 0 0 5 5.797a5.44 5.44 0 0 0-1.5 3.78c0 5.42 3.3 6.61 6.44 7a3.37 3.37 0 0 0-.94 2.58v2.87"></path><path d="M9 20.027c-3 .973-5.5 0-7-3"></path></g></symbol>
<symbol viewBox="0 0 24 24" id="dark-mode"><path fill="none" stroke="currentColor" stroke-linecap="round" stroke-linejoin="round" stroke-width="1.5" d="M12 21a9 9 0 0 0 8.997-9.252a7 7 0 0 1-10.371-8.643A9 9 0 0 0 12 21Z"></path></symbol>
<symbol viewBox="0 0 24 24" id="light-mode"><g fill="none" stroke="currentColor" stroke-width="2"><circle cx="12" cy="12" r="4" stroke-linejoin="round"></circle><path stroke-linecap="round" d="M20 12h1M3 12h1m8 8v1m0-18v1m5.657 13.657l.707.707M5.636 5.636l.707.707m0 11.314l-.707.707M18.364 5.636l-.707.707"></path></g></symbol>
<symbol viewBox="0 0 24 24" id="spinner"><rect width="10" height="10" x="1" y="1" fill="#888888" rx="1"><animate id="svgSpinnersBlocksShuffle20" fill="freeze" attributeName="x" begin="0;svgSpinnersBlocksShuffle27.end" dur="0.2s" values="1;13"></animate><animate id="svgSpinnersBlocksShuffle21" fill="freeze" attributeName="y" begin="svgSpinnersBlocksShuffle24.end" dur="0.2s" values="1;13"></animate><animate id="svgSpinnersBlocksShuffle22" fill="freeze" attributeName="x" begin="svgSpinnersBlocksShuffle25.end" dur="0.2s" values="13;1"></animate><animate id="svgSpinnersBlocksShuffle23" fill="freeze" attributeName="y" begin="svgSpinnersBlocksShuffle26.end" dur="0.2s" values="13;1"></animate></rect><rect width="10" height="10" x="1" y="13" fill="#888888" rx="1"><animate id="svgSpinnersBlocksShuffle24" fill="freeze" attributeName="y" begin="svgSpinnersBlocksShuffle20.end" dur="0.2s" values="13;1"></animate><animate id="svgSpinnersBlocksShuffle25" fill="freeze" attributeName="x" begin="svgSpinnersBlocksShuffle21.end" dur="0.2s" values="1;13"></animate><animate id="svgSpinnersBlocksShuffle26" fill="freeze" attributeName="y" begin="svgSpinnersBlocksShuffle22.end" dur="0.2s" values="1;13"></animate><animate id="svgSpinnersBlocksShuffle27" fill="freeze" attributeName="x" begin="svgSpinnersBlocksShuffle23.end" dur="0.2s" values="13;1"></animate></rect></symbol>
</svg>


<svg xmlns="http://www.w3.org/2000/svg" width="32" height="32" viewBox="0 0 24 24"><rect width="10" height="10" x="1" y="1" fill="#888888" rx="1"><animate id="svgSpinnersBlocksShuffle20" fill="freeze" attributeName="x" begin="0;svgSpinnersBlocksShuffle27.end" dur="0.2s" values="1;13"/><animate id="svgSpinnersBlocksShuffle21" fill="freeze" attributeName="y" begin="svgSpinnersBlocksShuffle24.end" dur="0.2s" values="1;13"/><animate id="svgSpinnersBlocksShuffle22" fill="freeze" attributeName="x" begin="svgSpinnersBlocksShuffle25.end" dur="0.2s" values="13;1"/><animate id="svgSpinnersBlocksShuffle23" fill="freeze" attributeName="y" begin="svgSpinnersBlocksShuffle26.end" dur="0.2s" values="13;1"/></rect><rect width="10" height="10" x="1" y="13" fill="#888888" rx="1"><animate id="svgSpinnersBlocksShuffle24" fill="freeze" attributeName="y" begin="svgSpinnersBlocksShuffle20.end" dur="0.2s" values="13;1"/><animate id="svgSpinnersBlocksShuffle25" fill="freeze" attributeName="x" begin="svgSpinnersBlocksShuffle21.end" dur="0.2s" values="1;13"/><animate id="svgSpinnersBlocksShuffle26" fill="freeze" attributeName="y" begin="svgSpinnersBlocksShuffle22.end" dur="0.2s" values="1;13"/><animate id="svgSpinnersBlocksShuffle27" fill="freeze" attributeName="x" begin="svgSpinnersBlocksShuffle23.end" dur="0.2s" values="13;1"/></rect></svg>